<svg width="32" height="32" viewBox="0 0 32 32" fill="none" xmlns="http://www.w3.org/2000/svg">
<path d="M11.9999 14C12.5206 13.4793 13.3648 13.4793 13.8855 14L15.9999 16.1144L18.1143 14C18.635 13.4793 19.4792 13.4793 19.9999 14C20.5206 14.5207 20.5206 15.3649 19.9999 15.8856L17.8855 18L19.9999 20.1144C20.5206 20.6351 20.5206 21.4793 19.9999 22C19.4792 22.5207 18.635 22.5207 18.1143 22L15.9999 19.8856L13.8855 22C13.3648 22.5207 12.5206 22.5207 11.9999 22C11.4792 21.4793 11.4792 20.6351 11.9999 20.1144L14.1143 18L11.9999 15.8856C11.4792 15.3649 11.4792 14.5207 11.9999 14Z" fill="white"/>
<path fill-rule="evenodd" clip-rule="evenodd" d="M12.0001 1.33331C10.5273 1.33331 9.33341 2.52722 9.33341 3.99998V6.66665H4.00008C3.26371 6.66665 2.66675 7.2636 2.66675 7.99998C2.66675 8.73636 3.26371 9.33332 4.00008 9.33332H5.49028L6.51909 26.8232C6.60201 28.2328 7.76923 29.3333 9.18116 29.3333H22.819C24.2309 29.3333 25.3982 28.2328 25.481 26.8232L26.5099 9.33332H28.0001C28.7365 9.33332 29.3334 8.73636 29.3334 7.99998C29.3334 7.2636 28.7365 6.66665 28.0001 6.66665H22.6667V3.99998C22.6667 2.52722 21.4729 1.33331 20.0001 1.33331H12.0001ZM20.0001 6.66665V3.99998H12.0001V6.66665H20.0001ZM23.8386 9.33332H8.16156L9.18116 26.6667H22.819L23.8386 9.33332Z" fill="white"/>
</svg>
