<svg width="43" height="43" viewBox="0 0 43 43" fill="none" xmlns="http://www.w3.org/2000/svg">
<path d="M23.3402 13.8814C23.3546 13.3883 22.9589 12.9807 22.4656 12.9807H20.535C20.0415 12.9807 19.6454 13.3887 19.6603 13.882L19.9433 23.2877C19.945 23.3468 19.9527 23.4044 19.9655 23.4599C20.0556 23.8485 20.4041 24.1364 20.8179 24.1364H22.1898C22.663 24.1364 23.0504 23.76 23.0642 23.287L23.3402 13.8814Z" fill="#F0B212"/>
<path d="M20.0779 29.7934C20.475 30.1849 20.9504 30.3805 21.5041 30.3805C21.862 30.3805 22.1921 30.2911 22.4941 30.1121C22.7962 29.9276 23.0394 29.6842 23.224 29.3823C23.4141 29.0747 23.5121 28.7362 23.5177 28.3672C23.5121 27.8191 23.3079 27.3492 22.9052 26.9577C22.5025 26.5662 22.0354 26.3704 21.5041 26.3704C20.9504 26.3704 20.475 26.5662 20.0779 26.9577C19.6808 27.3492 19.485 27.8191 19.4906 28.3672C19.485 28.9209 19.6808 29.3962 20.0779 29.7934Z" fill="#F0B212"/>
<path fill-rule="evenodd" clip-rule="evenodd" d="M21.5 39C31.1649 39 39 31.1649 39 21.5C39 11.835 31.1649 4 21.5 4C11.835 4 4 11.835 4 21.5C4 31.1649 11.835 39 21.5 39ZM21.5 35.5C29.232 35.5 35.5 29.232 35.5 21.5C35.5 13.768 29.232 7.5 21.5 7.5C13.768 7.5 7.5 13.768 7.5 21.5C7.5 29.232 13.768 35.5 21.5 35.5Z" fill="#F0B212"/>
</svg>
