<svg width="32" height="32" viewBox="0 0 32 32" fill="none" xmlns="http://www.w3.org/2000/svg">
<path fill-rule="evenodd" clip-rule="evenodd" d="M21.0321 5.85077L20.0001 10.6667H26.6667C28.8759 10.6667 30.6667 12.4575 30.6667 14.6667V18.7409C30.6667 19.5689 30.4739 20.3856 30.1037 21.1261L27.7724 25.7888C27.0947 27.144 25.7097 28 24.1946 28H5.33341C3.86065 28 2.66675 26.8061 2.66675 25.3333V14.6667C2.66675 13.1939 3.86065 12 5.33341 12H9.33342L15.2686 2.5036C15.7237 1.7756 16.5215 1.33334 17.3801 1.33334C19.7579 1.33334 21.5302 3.52577 21.0321 5.85077ZM9.33342 14.6667H5.33341V25.3333H9.33342V14.6667ZM25.3871 24.5963C25.1613 25.048 24.6997 25.3333 24.1946 25.3333H12.0001V12.7648L17.4754 4.00417C18.1067 4.05946 18.5603 4.65854 18.4246 5.29202L17.3926 10.1079C17.2238 10.8954 17.4201 11.7169 17.9263 12.3432C18.4326 12.9694 19.1947 13.3333 20.0001 13.3333H26.6667C27.4031 13.3333 28.0001 13.9303 28.0001 14.6667V18.7409C28.0001 19.1549 27.9037 19.5632 27.7186 19.9336L25.3871 24.5963Z" fill="white"/>
</svg>
