<svg width="70" height="70" viewBox="0 0 70 70" fill="none" xmlns="http://www.w3.org/2000/svg">
<g id="Frame 350">
<g id="Ellipse 27" filter="url(#filter0_f_2442_13356)">
<circle cx="35" cy="35" r="12" fill="#3FDDF9"/>
</g>
<g id="Group">
<path id="Vector" fill-rule="evenodd" clip-rule="evenodd" d="M30.3294 47.5241L30.3342 48.2468L31.9192 49.0176V49.9088L35.8069 51.8166L39.1888 51.8117L41.4964 50.6507L41.7036 50.0389L49.9753 45.9295L51.3483 45.8284L52.3744 45.3514L54.3544 44.1904L54.8361 30.6917L54.7687 30.1907L15.3131 28.1914L15.1349 28.6153L15.6552 41.9069L19.7308 44.0122L21.1664 43.8965L23.4885 45.0238L24.346 44.624L30.3294 47.5241Z" fill="#778691"/>
<path id="Vector_2" fill-rule="evenodd" clip-rule="evenodd" d="M31.9192 49.9082L36.6115 52.3025L38.4951 52.2977L41.429 50.6838L31.9192 49.9082Z" fill="#434654"/>
<path id="Vector_3" fill-rule="evenodd" clip-rule="evenodd" d="M20.4245 43.4424L21.1664 43.8952L23.4884 45.0225L22.2503 44.3288L20.4245 43.4424Z" fill="#56646D"/>
<path id="Vector_4" fill-rule="evenodd" clip-rule="evenodd" d="M20.4245 43.4424L18.96 43.5291L19.7308 44.0109L21.1664 43.8952L20.4245 43.4424Z" fill="url(#paint0_radial_2442_13356)"/>
<path id="Vector_5" fill-rule="evenodd" clip-rule="evenodd" d="M15.6553 41.9072L19.7309 44.0125L18.9601 43.5307L15.6553 41.9072Z" fill="#56646D"/>
<path id="Vector_6" fill-rule="evenodd" clip-rule="evenodd" d="M18.9601 43.53L18.5651 30.1518L20.0151 30.0361L20.4246 43.4433L18.9601 43.53Z" fill="url(#paint1_radial_2442_13356)"/>
<path id="Vector_7" fill-rule="evenodd" clip-rule="evenodd" d="M18.565 30.1511L15.1398 28.6143L15.6552 41.9058L18.9601 43.5341L18.565 30.1559V30.1511ZM35.807 51.8203L31.924 49.9077L31.8903 35.9273L35.807 37.6375V51.8203Z" fill="url(#paint2_radial_2442_13356)"/>
<path id="Vector_8" fill-rule="evenodd" clip-rule="evenodd" d="M22.0867 37.2861L22.2505 44.3294L23.4886 45.0231L24.3461 44.6232L22.8238 43.891L22.6648 37.5511L22.0867 37.2861Z" fill="url(#paint3_radial_2442_13356)"/>
<path id="Vector_9" fill-rule="evenodd" clip-rule="evenodd" d="M22.6647 37.5508L22.8237 43.8907L30.3294 47.5231L30.262 41.029L22.6647 37.5508Z" fill="url(#paint4_radial_2442_13356)"/>
<path id="Vector_10" fill-rule="evenodd" clip-rule="evenodd" d="M15.3131 28.1914L15.1349 28.6153L18.565 30.1521L20.015 30.0365L31.8854 35.1624V35.9284L35.8021 37.6338V36.8581L31.8854 34.5505L20.0102 29.4777L15.3131 28.1914Z" fill="url(#paint5_radial_2442_13356)"/>
<path id="Vector_11" fill-rule="evenodd" clip-rule="evenodd" d="M31.8854 35.162L20.015 30.0361L20.4245 43.4433L22.2503 44.3297L22.0866 37.2865L30.2619 41.0297L30.3342 48.2464L31.9191 49.0172L31.8854 35.162Z" fill="url(#paint6_radial_2442_13356)"/>
<path id="Vector_12" fill-rule="evenodd" clip-rule="evenodd" d="M35.8069 51.8154L36.6114 52.3019L38.4951 52.2971L39.1888 51.8105L35.8069 51.8154Z" fill="url(#paint7_radial_2442_13356)"/>
<path id="Vector_13" fill-rule="evenodd" clip-rule="evenodd" d="M35.8021 37.6324L39.2033 37.5986L39.1888 51.8103L35.8069 51.8152L35.8021 37.6324Z" fill="url(#paint8_radial_2442_13356)"/>
<path id="Vector_14" opacity="0.75" fill-rule="evenodd" clip-rule="evenodd" d="M36.6692 38.9247V50.5157C36.6692 50.6361 36.7125 50.7373 36.7993 50.824C36.886 50.9107 36.9871 50.9493 37.1076 50.9493H37.888C38.1241 50.9493 38.3216 50.7518 38.3216 50.5157L38.3312 38.9199C38.3312 38.7995 38.2879 38.6983 38.2012 38.6116C38.1144 38.5249 38.0133 38.4863 37.8928 38.4863L37.0979 38.496C36.8619 38.496 36.6692 38.6935 36.6692 38.9295V38.9247Z" fill="url(#paint9_radial_2442_13356)"/>
<path id="Vector_15" fill-rule="evenodd" clip-rule="evenodd" d="M41.8867 35.8643L41.6169 36.5339L41.4965 50.6493L41.7036 50.0374L41.8867 35.8643Z" fill="url(#paint10_radial_2442_13356)"/>
<path id="Vector_16" fill-rule="evenodd" clip-rule="evenodd" d="M51.2326 31.7466L52.6971 31.6406L52.2635 45.2357L50.8472 45.3224L51.2326 31.7466Z" fill="url(#paint11_radial_2442_13356)"/>
<path id="Vector_17" fill-rule="evenodd" clip-rule="evenodd" d="M39.2032 37.5997L41.6216 36.5302L41.4963 50.6504L39.1887 51.8115L39.1984 37.6046L39.2032 37.5997ZM52.2635 45.2355L54.3543 44.1853L54.8409 30.6914L52.6971 31.6356L52.2635 45.2355Z" fill="url(#paint12_radial_2442_13356)"/>
<path id="Vector_18" fill-rule="evenodd" clip-rule="evenodd" d="M50.8472 45.3221L49.9752 45.9291L51.3482 45.8279L52.2635 45.2354L50.8472 45.3221Z" fill="#565C6D"/>
<path id="Vector_19" fill-rule="evenodd" clip-rule="evenodd" d="M52.2636 45.2349L51.3483 45.8274L52.3744 45.3505L54.3544 44.1895L52.2636 45.2349Z" fill="#434654"/>
<path id="Vector_20" fill-rule="evenodd" clip-rule="evenodd" d="M41.7036 50.0386L49.9753 45.9341L50.8473 45.3223L41.7084 49.8556V50.0386H41.7036Z" fill="#434654"/>
<path id="Vector_21" fill-rule="evenodd" clip-rule="evenodd" d="M41.7036 49.8552L41.8867 35.8651L51.2327 31.7461L50.8473 45.3171L41.7036 49.8552Z" fill="url(#paint13_radial_2442_13356)"/>
<path id="Vector_22" fill-rule="evenodd" clip-rule="evenodd" d="M35.8021 37.6335L39.2033 37.5998L41.6169 36.5351L41.8867 35.8655L51.2327 31.7465L52.6972 31.6405L54.8362 30.6915L54.7687 30.1904L51.146 30.8842L35.8021 37.041V37.6335Z" fill="url(#paint14_radial_2442_13356)"/>
<path id="Vector_23" fill-rule="evenodd" clip-rule="evenodd" d="M35.9081 18.5889L37.4497 19.5957V19.9137L35.6238 19.1092L35.9081 18.5889Z" fill="url(#paint15_radial_2442_13356)"/>
<path id="Vector_24" fill-rule="evenodd" clip-rule="evenodd" d="M16.7584 22.9395L15.342 23.9704L15 25.1362L15.1156 28.1038L18.565 29.5925L20.0102 29.4768L31.8854 34.5497V35.3494L35.8021 37.0404H39.2273L41.6217 35.9805L41.9107 35.3157L51.117 31.2834L52.6393 31.1293L54.7687 30.1898L54.8988 29.9345L54.9999 27.1355L54.865 25.883L53.4053 24.8809L16.7584 22.9395Z" fill="#60571E"/>
<path id="Vector_25" fill-rule="evenodd" clip-rule="evenodd" d="M39.0492 21.0212L39.0588 20.8429L38.0712 19.9902L23.0309 25.5208L21.8409 27.2792L21.8698 28.3246L30.1512 31.8124L30.1415 31.3403L22.4239 28.1174L22.4094 27.2695L23.2766 25.9784L37.864 20.578L39.0492 21.0212Z" fill="url(#paint16_radial_2442_13356)"/>
<path id="Vector_26" fill-rule="evenodd" clip-rule="evenodd" d="M21.8699 28.3253L22.4239 28.1182L30.1416 31.3411L30.1512 31.8132L21.8699 28.3253Z" fill="url(#paint17_radial_2442_13356)"/>
<path id="Vector_27" fill-rule="evenodd" clip-rule="evenodd" d="M22.4093 27.2705L22.4238 28.1184L30.4257 31.4618L30.4064 30.6042L22.4093 27.2705Z" fill="url(#paint18_radial_2442_13356)"/>
<path id="Vector_28" fill-rule="evenodd" clip-rule="evenodd" d="M30.4064 30.6043L31.2543 29.2458L23.2765 25.9795L22.4093 27.2706L30.4064 30.6043Z" fill="url(#paint19_radial_2442_13356)"/>
<path id="Vector_29" fill-rule="evenodd" clip-rule="evenodd" d="M23.2765 25.9796L31.2543 29.2458L45.8033 23.5419L37.864 20.5791L23.2765 25.9796Z" fill="url(#paint20_radial_2442_13356)"/>
<path id="Vector_30" fill-rule="evenodd" clip-rule="evenodd" d="M31.341 28.8942L33.981 29.9637L33.7305 30.6429L36.568 31.8088H38.5191L40.1715 31.1199L40.4461 30.4984L50.7267 26.2494L52.066 26.1819L53.4294 25.6183L53.4101 24.886L50.5196 23.8454L49.031 23.9466L46.3958 22.9975L31.3458 28.899L31.341 28.8942ZM18.3963 22.3712L16.7632 22.9445L16.6042 23.6238L19.1141 24.6548L20.6124 24.544L23.0356 25.5267L38.0759 20.001L35.6238 19.1194L35.908 18.5991L33.4029 17.6982L31.7023 17.7079L30.2137 18.2282L29.3995 18.9074L19.7934 22.3038L18.3915 22.3809L18.3963 22.3712Z" fill="url(#paint21_radial_2442_13356)"/>
<path id="Vector_31" fill-rule="evenodd" clip-rule="evenodd" d="M19.1093 24.6499L20.6075 24.5391L19.9331 26.4805L18.4637 26.5913L19.1093 24.6499Z" fill="url(#paint22_radial_2442_13356)"/>
<path id="Vector_32" fill-rule="evenodd" clip-rule="evenodd" d="M15 25.1362L16.5994 23.6187L16.7584 22.9395L15.342 23.9704L15 25.1362Z" fill="url(#paint23_radial_2442_13356)"/>
<path id="Vector_33" fill-rule="evenodd" clip-rule="evenodd" d="M41.93 32.1563L51.3482 28.1626L50.7268 26.25L40.4462 30.4991L41.93 32.1563Z" fill="url(#paint24_radial_2442_13356)"/>
<path id="Vector_34" fill-rule="evenodd" clip-rule="evenodd" d="M52.0613 26.1816L52.8562 28.046L51.3483 28.1616L50.7268 26.2491L52.0613 26.1816Z" fill="url(#paint25_radial_2442_13356)"/>
<g id="Vector_35" style="mix-blend-mode:multiply" opacity="0.35">
<path fill-rule="evenodd" clip-rule="evenodd" d="M26.6246 21.7553L28.012 21.736L29.9631 20.9796V20.5412L27.1353 19.4766L23.7485 20.652L26.6246 21.7553Z" fill="#5D6C8C"/>
</g>
<path id="Vector_36" fill-rule="evenodd" clip-rule="evenodd" d="M52.0614 26.1818L53.4247 25.6182L55 27.1405L52.8611 28.051L52.0662 26.1866L52.0614 26.1818ZM38.5145 31.8087L40.1669 31.1198L41.6459 32.8107L39.2275 33.8369L38.5096 31.8039L38.5145 31.8087Z" fill="url(#paint26_radial_2442_13356)"/>
<path id="Vector_37" fill-rule="evenodd" clip-rule="evenodd" d="M53.4247 25.6131L55 27.1355L54.8651 25.8829L53.4054 24.8809L53.4247 25.6131Z" fill="url(#paint27_radial_2442_13356)"/>
<path id="Vector_38" fill-rule="evenodd" clip-rule="evenodd" d="M29.2406 20.2649V21.2621L27.2943 22.0184L25.902 22.0377L23.2765 21.0598L21.7542 21.5945L23.026 20.3757L26.4127 19.2002L29.2406 20.2649Z" fill="#383F49"/>
<path id="Vector_39" fill-rule="evenodd" clip-rule="evenodd" d="M25.902 22.0389V21.4849L23.0115 20.3721L21.7542 21.5957L23.2765 21.061L25.902 22.0389Z" fill="url(#paint28_radial_2442_13356)"/>
<path id="Vector_40" fill-rule="evenodd" clip-rule="evenodd" d="M27.2943 22.0184V21.4595L29.2406 20.708V21.262L27.2943 22.0184Z" fill="url(#paint29_radial_2442_13356)"/>
<path id="Vector_41" fill-rule="evenodd" clip-rule="evenodd" d="M27.2944 22.0198L25.9021 22.039V21.485L27.2944 21.4609V22.0198Z" fill="url(#paint30_radial_2442_13356)"/>
<path id="Vector_42" fill-rule="evenodd" clip-rule="evenodd" d="M25.9022 21.4837L27.2945 21.4596L29.2407 20.7081V20.2649L26.4128 19.2002L23.0261 20.3757L25.9022 21.4837Z" fill="url(#paint31_radial_2442_13356)"/>
<path id="Vector_43" fill-rule="evenodd" clip-rule="evenodd" d="M35.8021 33.8697V37.0397H39.2274L39.2322 33.8408L35.8021 33.8697Z" fill="url(#paint32_radial_2442_13356)"/>
<path id="Vector_44" fill-rule="evenodd" clip-rule="evenodd" d="M41.93 32.1562L41.9108 35.3165L41.6217 35.9814L41.6506 32.8114L41.93 32.1562Z" fill="url(#paint33_radial_2442_13356)"/>
<path id="Vector_45" fill-rule="evenodd" clip-rule="evenodd" d="M51.3482 28.1625L51.1169 31.2843L52.6393 31.1301L52.8561 28.0469L51.3482 28.1625Z" fill="url(#paint34_radial_2442_13356)"/>
<path id="Vector_46" fill-rule="evenodd" clip-rule="evenodd" d="M52.8563 28.0452L52.6395 31.1284L54.7688 30.189L54.8989 29.9337L54.9952 27.1299L52.8563 28.0404V28.0452ZM39.2323 33.8407L41.6507 32.8146L41.6218 35.9845L39.2227 37.0395L39.2323 33.8407Z" fill="url(#paint35_radial_2442_13356)"/>
<path id="Vector_47" fill-rule="evenodd" clip-rule="evenodd" d="M41.9299 32.1549L51.3482 28.1611L51.1169 31.2829L41.9106 35.3152L41.9299 32.1549Z" fill="url(#paint36_radial_2442_13356)"/>
<path id="Vector_48" fill-rule="evenodd" clip-rule="evenodd" d="M18.4637 26.5913L18.5649 29.5926L20.0102 29.477L19.9331 26.4805L18.4637 26.5913Z" fill="url(#paint37_radial_2442_13356)"/>
<path id="Vector_49" fill-rule="evenodd" clip-rule="evenodd" d="M21.8409 27.2802L19.9332 26.4805L20.0102 29.477L31.8855 34.5498L32.1649 31.587L30.1222 30.7343L30.1511 31.8135L21.8698 28.3256L21.8409 27.2802Z" fill="url(#paint38_radial_2442_13356)"/>
<path id="Vector_50" fill-rule="evenodd" clip-rule="evenodd" d="M31.8951 32.2281L31.8854 35.3451L35.8021 37.036V33.8661L31.8951 32.2233V32.2281ZM18.565 29.5929L18.4638 26.5916L15 25.1367L15.1156 28.1043L18.565 29.5929Z" fill="url(#paint39_radial_2442_13356)"/>
<path id="Vector_51" fill-rule="evenodd" clip-rule="evenodd" d="M33.9811 29.9639L32.1649 31.5874L31.8951 32.2281L33.7257 30.6431L33.9811 29.9639Z" fill="url(#paint40_radial_2442_13356)"/>
<path id="Vector_52" fill-rule="evenodd" clip-rule="evenodd" d="M32.1649 31.5871L30.1222 30.7344L31.3363 28.8941L33.9763 29.9636L32.16 31.5871H32.1649ZM19.9332 26.4853L21.8409 27.2802L23.0308 25.5218L20.6076 24.5391L19.9283 26.4853H19.9332Z" fill="url(#paint41_radial_2442_13356)"/>
<path id="Vector_53" fill-rule="evenodd" clip-rule="evenodd" d="M31.8951 32.2281L35.8021 33.8708L36.5633 31.8089L33.7257 30.6431L31.8951 32.2281ZM16.5994 23.6191L15 25.1367L18.4638 26.5916L19.1094 24.6501L16.5994 23.6191Z" fill="url(#paint42_radial_2442_13356)"/>
<path id="Vector_54" fill-rule="evenodd" clip-rule="evenodd" d="M35.8021 33.8705L39.2322 33.8416L38.5192 31.8086H36.5681L35.8021 33.8705Z" fill="url(#paint43_radial_2442_13356)"/>
<path id="Vector_55" fill-rule="evenodd" clip-rule="evenodd" d="M40.1715 31.1195L40.4461 30.498L41.9299 32.1553L41.6505 32.8105L40.1715 31.1195Z" fill="url(#paint44_radial_2442_13356)"/>
<path id="Vector_56" fill-rule="evenodd" clip-rule="evenodd" d="M47.6966 35.2624L48.2121 35.4648C47.9808 35.3202 47.7544 35.1709 47.5231 35.0264C47.4846 35.0456 47.4413 35.0601 47.4027 35.0794C47.4991 35.142 47.5954 35.2046 47.6966 35.2672V35.2624Z" fill="#49575E"/>
<path id="Vector_57" fill-rule="evenodd" clip-rule="evenodd" d="M48.212 35.4601L47.6965 35.2578C47.6676 36.7994 47.6339 38.341 47.605 39.8826C47.5761 41.4243 47.5423 42.9659 47.5134 44.5075L48.0289 44.705C48.0578 43.1634 48.0915 41.6218 48.1204 40.0802C48.1493 38.5385 48.1831 36.9969 48.212 35.4553V35.4601Z" fill="url(#paint45_radial_2442_13356)"/>
<path id="Vector_58" fill-rule="evenodd" clip-rule="evenodd" d="M47.5135 44.5088C47.2726 44.8749 47.0365 45.2411 46.7957 45.6024L47.3111 45.8047C47.5472 45.4386 47.7881 45.0724 48.0289 44.7111L47.5135 44.5136V44.5088Z" fill="url(#paint46_radial_2442_13356)"/>
<path id="Vector_59" fill-rule="evenodd" clip-rule="evenodd" d="M47.3112 45.8039L46.7957 45.6016C46.4729 45.7605 46.155 45.9195 45.8322 46.0785C45.5431 46.223 45.2589 46.3676 44.9698 46.5073C45.1096 46.5892 45.2493 46.6759 45.389 46.7578C45.7117 46.5988 46.0297 46.4398 46.3525 46.2808C46.6704 46.1219 46.9932 45.9629 47.316 45.8039H47.3112Z" fill="url(#paint47_radial_2442_13356)"/>
<path id="Vector_60" fill-rule="evenodd" clip-rule="evenodd" d="M44.7867 41.6462C44.7578 43.2119 44.7289 44.7824 44.7 46.3481C44.7915 46.4011 44.8782 46.4541 44.9697 46.5071C45.2588 46.3626 45.543 46.2229 45.8321 46.0784C46.1548 45.9194 46.4728 45.7604 46.7956 45.6014C47.0365 45.2353 47.2725 44.8692 47.5134 44.5079C47.5423 42.9662 47.576 41.4246 47.6049 39.883C47.6338 38.3414 47.6675 36.7998 47.6965 35.2582C47.6001 35.1956 47.5038 35.1329 47.4026 35.0703C47.1184 35.1956 46.8389 35.316 46.5547 35.4413C46.2319 35.581 45.9092 35.7255 45.5864 35.8652C45.3455 36.2217 45.1094 36.5782 44.8686 36.9347C44.8397 38.5052 44.8108 40.0709 44.7819 41.6366L44.7867 41.6462Z" fill="url(#paint48_radial_2442_13356)"/>
<path id="Vector_61" fill-rule="evenodd" clip-rule="evenodd" d="M23.6187 39.8687C24.6352 40.3457 25.6565 40.8178 26.673 41.2947C27.6895 41.7668 28.7108 42.2438 29.7273 42.7159C29.8381 42.7689 29.9345 42.9279 29.9345 43.0676C29.9345 43.2073 29.8478 43.2795 29.7321 43.2314C28.7156 42.7544 27.6943 42.2775 26.6826 41.8006C25.6661 41.3236 24.6496 40.8467 23.6331 40.3698C23.5223 40.3168 23.426 40.1626 23.426 40.0229C23.426 39.8832 23.5127 39.8157 23.6235 39.8639L23.6187 39.8687ZM23.6428 40.8949C24.6593 41.3718 25.6758 41.8536 26.6923 42.3305C27.7088 42.8074 28.7253 43.2844 29.7418 43.7613C29.8526 43.8143 29.9441 43.9733 29.9489 44.113C29.9489 44.2527 29.8622 44.325 29.7466 44.272C28.7301 43.7902 27.7136 43.3133 26.7019 42.8315C25.6854 42.3498 24.6737 41.8728 23.6572 41.3911C23.5464 41.3381 23.4501 41.1839 23.4501 41.0442C23.4501 40.9045 23.5368 40.8371 23.6476 40.8852L23.6428 40.8949ZM23.6669 41.921C24.6834 42.4028 25.695 42.8845 26.7067 43.3663C27.7184 43.848 28.7349 44.3298 29.7514 44.8115C29.8622 44.8645 29.9537 45.0235 29.9586 45.168C29.9586 45.3077 29.8718 45.38 29.761 45.327C28.7494 44.8452 27.7329 44.3587 26.7212 43.8769C25.7095 43.3952 24.693 42.9134 23.6813 42.4268C23.5705 42.3739 23.4742 42.2149 23.4742 42.08C23.4742 41.9403 23.5609 41.8728 23.6717 41.9258L23.6669 41.921ZM23.5946 38.8426C24.6159 39.3147 25.6372 39.7868 26.6537 40.259C27.6751 40.7311 28.6916 41.2032 29.7129 41.6705C29.8237 41.7235 29.9152 41.8825 29.92 42.0222C29.92 42.1619 29.8333 42.239 29.7177 42.186C28.6964 41.7138 27.6799 41.2369 26.6586 40.7648C25.6421 40.2927 24.6207 39.8206 23.5994 39.3484C23.4886 39.2955 23.3923 39.1413 23.3875 39.0016C23.3875 38.8619 23.4742 38.7896 23.585 38.8426H23.5946ZM23.691 42.952C24.7026 43.4337 25.7143 43.9203 26.726 44.4068C27.7377 44.8934 28.7494 45.3752 29.761 45.8617C29.8718 45.9147 29.9634 46.0737 29.9682 46.2182C29.9682 46.3579 29.8815 46.4302 29.7707 46.3772C28.759 45.8906 27.7473 45.4041 26.7356 44.9175C25.724 44.4309 24.7123 43.9444 23.7006 43.4578C23.5898 43.4048 23.4934 43.2458 23.4934 43.1061C23.4934 42.9664 23.5802 42.899 23.691 42.952Z" fill="url(#paint49_radial_2442_13356)"/>
<path id="Vector_62" fill-rule="evenodd" clip-rule="evenodd" d="M23.6089 39.3487C24.6302 39.8208 25.6467 40.2929 26.668 40.765C27.6845 41.2371 28.7058 41.7141 29.7271 42.1862C29.8283 42.2344 29.915 42.1717 29.9246 42.0513C29.9054 42.0513 29.8813 42.0465 29.862 42.0368C28.8407 41.5647 27.8242 41.0878 26.8029 40.6157C25.7816 40.1436 24.7651 39.6714 23.7437 39.1993C23.6329 39.1463 23.5366 38.9922 23.5318 38.8525C23.5318 38.8428 23.5318 38.838 23.5318 38.8284C23.4499 38.8235 23.3921 38.891 23.3969 39.0018C23.3969 39.1415 23.4932 39.2957 23.6089 39.3487Z" fill="url(#paint50_linear_2442_13356)"/>
<path id="Vector_63" fill-rule="evenodd" clip-rule="evenodd" d="M26.8175 41.6516C25.801 41.1746 24.7845 40.6977 23.768 40.2207C23.6572 40.1678 23.5608 40.0136 23.5608 39.8739C23.4789 39.845 23.4211 39.9124 23.4259 40.0232C23.4259 40.1629 23.5223 40.3171 23.6331 40.3701C24.6496 40.847 25.6661 41.324 26.6826 41.8009C27.6991 42.2778 28.7156 42.7548 29.7321 43.2317C29.8381 43.2799 29.92 43.2221 29.9296 43.0968C29.9103 43.0968 29.8862 43.092 29.867 43.0824C28.8505 42.6054 27.8292 42.1285 26.8175 41.6516Z" fill="url(#paint51_linear_2442_13356)"/>
<path id="Vector_64" fill-rule="evenodd" clip-rule="evenodd" d="M23.792 41.2471C23.6812 41.1941 23.5848 41.04 23.5848 40.9002C23.5029 40.8713 23.4451 40.9388 23.4499 41.0496C23.4499 41.1893 23.5463 41.3435 23.6571 41.3965C24.6736 41.8782 25.6901 42.3551 26.7018 42.8369C27.7183 43.3138 28.7348 43.7956 29.7464 44.2773C29.8524 44.3255 29.9343 44.2677 29.944 44.1424C29.9247 44.1424 29.9006 44.1376 29.8813 44.128C28.8648 43.6462 27.8483 43.1693 26.8366 42.6876C25.8201 42.2058 24.8085 41.7289 23.792 41.2471Z" fill="url(#paint52_linear_2442_13356)"/>
<path id="Vector_65" fill-rule="evenodd" clip-rule="evenodd" d="M23.8161 42.2774C23.7053 42.2244 23.6089 42.0654 23.6089 41.9305C23.527 41.9016 23.4692 41.9691 23.474 42.0799C23.474 42.2196 23.5704 42.3737 23.6812 42.4267C24.6929 42.9085 25.7094 43.3951 26.7211 43.8768C27.7327 44.3586 28.7492 44.8403 29.7609 45.3269C29.8669 45.3751 29.9488 45.3172 29.9584 45.192C29.9392 45.192 29.9199 45.1872 29.8958 45.1727C28.8841 44.691 27.8676 44.2044 26.8559 43.7226C25.8443 43.2409 24.8278 42.7591 23.8161 42.2726V42.2774Z" fill="url(#paint53_linear_2442_13356)"/>
<path id="Vector_66" fill-rule="evenodd" clip-rule="evenodd" d="M23.6331 42.9326C23.5512 42.9229 23.4934 42.9904 23.4982 43.106C23.4982 43.2457 23.5946 43.4047 23.7054 43.4577C24.717 43.9442 25.7287 44.4308 26.7404 44.9174C27.7521 45.4039 28.7638 45.8905 29.7754 46.3771C29.8814 46.4253 29.9633 46.3674 29.973 46.2422C29.9537 46.2422 29.9344 46.2374 29.9103 46.2229C28.8987 45.7364 27.887 45.2498 26.8753 44.7632C25.8636 44.2766 24.8519 43.7901 23.8402 43.3035C23.7294 43.2505 23.6331 43.0915 23.6331 42.9518V42.9326Z" fill="url(#paint54_linear_2442_13356)"/>
<path id="Vector_67" style="mix-blend-mode:screen" fill-rule="evenodd" clip-rule="evenodd" d="M22.0624 26.9525L22.8284 25.5795L21.0892 24.7316L23.0451 25.3916L31.8131 22.2939L23.1174 25.6036L22.0624 26.9525Z" fill="url(#paint55_radial_2442_13356)"/>
<path id="Vector_68" style="mix-blend-mode:screen" fill-rule="evenodd" clip-rule="evenodd" d="M30.5365 30.1132L31.4374 29.0534L33.6149 29.8145L31.6397 28.9088L36.8764 26.7217L31.341 28.8944L30.5365 30.1132Z" fill="url(#paint56_radial_2442_13356)"/>
<g id="Vector_69" style="mix-blend-mode:multiply" opacity="0.35">
<path fill-rule="evenodd" clip-rule="evenodd" d="M45.0324 31.0917L45.0276 32.9127L45.6442 33.3896L47.5279 32.6092L48.3228 31.4819L48.3806 29.6416L45.0324 31.0917Z" fill="#5D6C8C"/>
</g>
<path id="Vector_70" fill-rule="evenodd" clip-rule="evenodd" d="M44.2328 25.9169L42.802 25.9072L40.875 26.6828V27.8583L43.9389 29.0386L45.0277 30.8404V32.4157L45.7455 32.9215L46.261 33.1335L48.1398 32.3531L48.9395 31.2258L48.9974 29.3855L47.5425 27.1598L44.2328 25.9169Z" fill="#383F49"/>
<path id="Vector_71" fill-rule="evenodd" clip-rule="evenodd" d="M40.875 27.2369L44.1895 28.5135L47.5425 27.1598L44.2328 25.9169L42.802 25.9072L40.875 26.6828V27.2369Z" fill="url(#paint57_radial_2442_13356)"/>
<path id="Vector_72" fill-rule="evenodd" clip-rule="evenodd" d="M44.1894 28.5129L45.6443 30.835L48.9973 29.3849L47.5424 27.1592L44.1894 28.5129Z" fill="url(#paint58_radial_2442_13356)"/>
<path id="Vector_73" fill-rule="evenodd" clip-rule="evenodd" d="M45.6443 30.8348V32.6559L46.261 33.1328L48.1398 32.3524L48.9395 31.2251L48.9973 29.3848L45.6443 30.8348Z" fill="url(#paint59_radial_2442_13356)"/>
<path id="Vector_74" fill-rule="evenodd" clip-rule="evenodd" d="M45.0276 32.4152L45.6443 32.656V30.835L44.1894 28.513L40.8749 27.2363V27.8578L43.9389 29.0381L45.0276 30.8398V32.4152Z" fill="url(#paint60_radial_2442_13356)"/>
<path id="Vector_75" fill-rule="evenodd" clip-rule="evenodd" d="M45.6442 32.6569L45.0276 32.416L45.7454 32.9219L46.2609 33.1338L45.6442 32.6569Z" fill="url(#paint61_radial_2442_13356)"/>
<path id="Vector_76" style="mix-blend-mode:screen" fill-rule="evenodd" clip-rule="evenodd" d="M16.744 23.0166L16.5464 23.5803L15.2264 24.9243L16.638 23.7151L17.7749 24.1005L16.6813 23.5754L16.744 23.0166Z" fill="url(#paint62_radial_2442_13356)"/>
<path id="Vector_77" style="mix-blend-mode:screen" fill-rule="evenodd" clip-rule="evenodd" d="M17.8278 24.1201L18.9985 24.6886L18.7865 25.6184L19.1671 24.7127L20.2077 24.5681L19.1093 24.5874L17.8278 24.1201Z" fill="url(#paint63_radial_2442_13356)"/>
<path id="Vector_78" style="mix-blend-mode:screen" fill-rule="evenodd" clip-rule="evenodd" d="M23.7486 20.6514L25.8587 21.5522L25.902 21.9521L25.9502 21.5474L26.6006 21.4752L25.9068 21.4366L23.7486 20.6514Z" fill="url(#paint64_radial_2442_13356)"/>
<path id="Vector_79" style="mix-blend-mode:screen" fill-rule="evenodd" clip-rule="evenodd" d="M26.6006 21.4755L27.2847 21.4177L28.5758 20.9648L27.3329 21.4996L27.2943 21.9043L27.251 21.4948L26.6006 21.4755Z" fill="url(#paint65_radial_2442_13356)"/>
<path id="Vector_80" style="mix-blend-mode:screen" fill-rule="evenodd" clip-rule="evenodd" d="M23.45 26.0518L30.7775 29.0531C28.6915 28.2582 26.5814 27.5163 24.5147 26.6732C24.1341 26.5191 23.715 26.2734 23.4452 26.0518H23.45Z" fill="url(#paint66_radial_2442_13356)"/>
<path id="Vector_81" style="mix-blend-mode:screen" opacity="0.5" fill-rule="evenodd" clip-rule="evenodd" d="M22.578 27.3438L29.9199 30.4077C27.8339 29.6128 25.7142 28.8131 23.6475 27.9652C23.2669 27.8111 22.8478 27.5654 22.578 27.3438Z" fill="url(#paint67_radial_2442_13356)"/>
<path id="Vector_82" style="mix-blend-mode:screen" fill-rule="evenodd" clip-rule="evenodd" d="M22.048 28.3984L29.467 31.525C27.381 30.7301 25.1794 29.863 23.1127 29.0199C22.7321 28.8657 22.313 28.62 22.0432 28.3984H22.048Z" fill="url(#paint68_radial_2442_13356)"/>
<path id="Vector_83" style="mix-blend-mode:screen" fill-rule="evenodd" clip-rule="evenodd" d="M33.9184 30.127L33.6535 30.6135L32.1504 32.0058L33.7739 30.7773L34.9638 31.1531L33.851 30.5846L33.9184 30.127Z" fill="url(#paint69_radial_2442_13356)"/>
<path id="Vector_84" style="mix-blend-mode:screen" fill-rule="evenodd" clip-rule="evenodd" d="M15.5781 28.8125L18.5746 30.0313L19.7116 30.0602L18.6758 30.2337L18.8348 39.2473L18.4494 30.2144L15.5781 28.8125Z" fill="url(#paint70_radial_2442_13356)"/>
<path id="Vector_85" style="mix-blend-mode:screen" fill-rule="evenodd" clip-rule="evenodd" d="M20.28 30.1514L29.5923 34.174C27.5063 33.3791 23.4162 31.6159 21.3495 30.7728C20.9689 30.6187 20.5497 30.373 20.28 30.1514Z" fill="url(#paint71_radial_2442_13356)"/>
<path id="Vector_86" style="mix-blend-mode:screen" opacity="0.75" fill-rule="evenodd" clip-rule="evenodd" d="M32.2083 36.0664L35.6961 37.767L35.8069 46.6553L35.9322 37.767L37.5027 37.6176L35.8021 37.5647L32.2083 36.0664Z" fill="url(#paint72_radial_2442_13356)"/>
<path id="Vector_87" style="mix-blend-mode:screen" opacity="0.5" fill-rule="evenodd" clip-rule="evenodd" d="M37.8785 37.6143L39.184 37.5131L40.3065 37.1133L39.2515 37.6528L39.1985 41.5888L39.0877 37.6577L37.8785 37.6143Z" fill="url(#paint73_radial_2442_13356)"/>
<path id="Vector_88" style="mix-blend-mode:screen" fill-rule="evenodd" clip-rule="evenodd" d="M35.1133 31.2119L36.414 31.8719L36.1491 32.9366L36.6163 31.9105L37.5413 31.8093L36.5634 31.7563L35.1133 31.2119Z" fill="url(#paint74_radial_2442_13356)"/>
<path id="Vector_89" style="mix-blend-mode:screen" fill-rule="evenodd" clip-rule="evenodd" d="M41.2892 27.4004L44.1315 28.6L45.1962 30.1223L44.3724 28.5566L46.9546 27.4004L44.1749 28.3687L41.2892 27.4004Z" fill="url(#paint75_radial_2442_13356)"/>
<path id="Vector_90" style="mix-blend-mode:screen" fill-rule="evenodd" clip-rule="evenodd" d="M45.6202 46.6469L47.1281 45.7316C47.475 45.4184 47.7496 44.9945 47.8267 44.6284L48.188 36.8047L48.029 44.7103L47.3112 45.8038L45.6202 46.6469Z" fill="url(#paint76_radial_2442_13356)"/>
<path id="Vector_91" style="mix-blend-mode:screen" opacity="0.5" fill-rule="evenodd" clip-rule="evenodd" d="M50.881 26.2398L52.0372 26.1193L53.2271 25.7002L52.1528 26.2012L52.3841 26.9383L52.0131 26.2349L50.881 26.2398Z" fill="url(#paint77_radial_2442_13356)"/>
<path id="Vector_92" style="mix-blend-mode:screen" opacity="0.5" fill-rule="evenodd" clip-rule="evenodd" d="M52.4321 27.0488L52.7453 27.9834L51.7191 28.1328L52.7693 28.1135L52.6971 30.3007L52.9283 28.0605L53.7473 27.6655L52.8753 27.9401L52.4321 27.0488Z" fill="url(#paint78_radial_2442_13356)"/>
<path id="Vector_93" style="mix-blend-mode:screen" opacity="0.5" fill-rule="evenodd" clip-rule="evenodd" d="M36.1297 32.9887L35.754 33.7691L33.2488 32.8008L35.7154 33.9425L35.8021 36.6066L35.8937 33.9618L37.3341 33.8558L35.9033 33.7884L36.1297 32.9887Z" fill="url(#paint79_radial_2442_13356)"/>
<path id="Vector_94" style="mix-blend-mode:screen" opacity="0.75" fill-rule="evenodd" clip-rule="evenodd" d="M23.6714 39.502L28.619 41.6699C27.9687 41.3664 27.3183 41.0629 26.6679 40.7642C25.6514 40.2921 24.6301 39.82 23.6088 39.3478C23.498 39.2948 23.4017 39.1407 23.3968 39.001C23.3824 39.1551 23.3968 39.3816 23.6714 39.502ZM26.6824 41.8C25.6659 41.323 24.6494 40.8461 23.6329 40.3692C23.5221 40.3162 23.4257 40.162 23.4257 40.0223C23.4113 40.1765 23.4257 40.4029 23.7003 40.5233L28.6335 42.7105C27.9831 42.407 27.3328 42.1035 26.6872 41.8H26.6824ZM23.445 41.0484C23.4306 41.2026 23.445 41.429 23.7196 41.5494L28.6383 43.7511C27.9928 43.4476 27.3424 43.1392 26.6969 42.8357C25.6804 42.354 24.6687 41.877 23.6522 41.3953C23.5414 41.3423 23.445 41.1881 23.445 41.0484ZM26.7161 43.8715C25.7044 43.3897 24.6879 42.908 23.6763 42.4214C23.5655 42.3684 23.4691 42.2094 23.4691 42.0746C23.4547 42.2287 23.4691 42.4503 23.7437 42.5756L28.6528 44.7916C28.0072 44.4833 27.3617 44.175 26.7209 43.8715H26.7161ZM26.7354 44.9073C25.7237 44.4207 24.712 43.9341 23.7003 43.4476C23.5895 43.3946 23.4932 43.2356 23.4932 43.0959C23.4787 43.25 23.4932 43.4716 23.7678 43.5969L28.6624 45.8322C28.0217 45.5239 27.3761 45.2156 26.7354 44.9073Z" fill="url(#paint80_radial_2442_13356)"/>
<path id="Vector_95" fill-rule="evenodd" clip-rule="evenodd" d="M45.1769 44.0884C45.4082 43.9776 45.6442 43.8619 45.8755 43.7463C46.1067 43.6355 46.3428 43.5199 46.574 43.4043C46.7041 43.3416 46.8149 43.1489 46.8149 42.9803C46.8149 42.8069 46.7137 42.7202 46.5837 42.7828C46.3524 42.8936 46.1164 43.0092 45.8851 43.12C45.6539 43.2308 45.4178 43.3465 45.1866 43.4573C45.0565 43.5199 44.9457 43.7126 44.9409 43.886C44.9409 44.0595 45.0421 44.1462 45.1721 44.0835L45.1769 44.0884ZM45.201 42.6961C45.4323 42.5853 45.6683 42.4745 45.8996 42.3637C46.1308 42.2529 46.3669 42.1421 46.5981 42.0313C46.7282 41.9687 46.839 41.7808 46.8438 41.6073C46.8438 41.4387 46.7426 41.3472 46.6126 41.4098C46.3813 41.5206 46.1453 41.6314 45.914 41.7422C45.6828 41.853 45.4467 41.9638 45.2155 42.0746C45.0854 42.1373 44.9746 42.3251 44.9698 42.4986C44.9698 42.672 45.071 42.7587 45.201 42.6961ZM45.2251 41.3086C45.4564 41.1978 45.6924 41.087 45.9237 40.9811C46.1549 40.8703 46.391 40.7595 46.6222 40.6535C46.7523 40.5908 46.8631 40.403 46.8631 40.2343C46.8631 40.0609 46.7619 39.9742 46.6318 40.0368C46.3958 40.1476 46.1645 40.2584 45.9285 40.3644C45.6972 40.4752 45.4612 40.5812 45.2299 40.692C45.0999 40.7546 44.9891 40.9425 44.9842 41.1159C44.9842 41.2894 45.0854 41.3809 45.2155 41.3183L45.2251 41.3086ZM45.2492 39.9164C45.4805 39.8104 45.7165 39.6996 45.9478 39.5936C46.179 39.4876 46.4151 39.3768 46.6511 39.2708C46.7812 39.213 46.892 39.0203 46.8968 38.8517C46.8968 38.6783 46.7956 38.5916 46.6656 38.6494C46.4295 38.7554 46.1983 38.8662 45.9622 38.9721C45.731 39.0781 45.4949 39.1889 45.2588 39.2949C45.1288 39.3527 45.018 39.5454 45.0132 39.7189C45.0132 39.8923 45.1143 39.9838 45.2444 39.9212L45.2492 39.9164ZM45.2733 38.5289C45.5094 38.4229 45.7406 38.317 45.9767 38.211C46.2079 38.105 46.444 37.999 46.68 37.893C46.8101 37.8352 46.9209 37.6473 46.9257 37.4739C46.9257 37.3053 46.8245 37.2138 46.6945 37.2716C46.4584 37.3775 46.2272 37.4835 45.9911 37.5895C45.7551 37.6955 45.5238 37.8015 45.2878 37.9075C45.1577 37.9653 45.0469 38.1532 45.0421 38.3266C45.0421 38.5 45.1432 38.5916 45.2733 38.5338V38.5289ZM45.1432 45.4806C45.3745 45.365 45.6105 45.2494 45.8418 45.1338C46.073 45.0181 46.3091 44.9025 46.5403 44.7869C46.6704 44.7243 46.7812 44.5316 46.7812 44.3581C46.7812 44.1895 46.68 44.1028 46.5499 44.1654C46.3187 44.2811 46.0826 44.3919 45.8514 44.5075C45.6202 44.6231 45.3841 44.7387 45.1529 44.8495C45.0228 44.9122 44.912 45.1049 44.9072 45.2783C44.9072 45.4517 45.0083 45.5384 45.1384 45.4758L45.1432 45.4806ZM45.3022 37.1367C45.5383 37.0307 45.7695 36.9295 46.0056 36.8235C46.2416 36.7175 46.4729 36.6116 46.7089 36.5056C46.839 36.4478 46.9498 36.2599 46.9546 36.0913C46.9546 35.9178 46.8534 35.8311 46.7234 35.8889C46.4873 35.9901 46.2561 36.0961 46.02 36.2021C45.784 36.3081 45.5527 36.4092 45.3167 36.5152C45.1866 36.573 45.0758 36.7609 45.071 36.9343C45.071 37.1078 45.1721 37.1993 45.3022 37.1415V37.1367Z" fill="url(#paint81_radial_2442_13356)"/>
<g id="Group_2">
<path id="Vector_96" fill-rule="evenodd" clip-rule="evenodd" d="M21.9661 32.0303L30.2089 35.6386L30.2475 39.6034L22.0577 35.9469L21.9661 32.0303Z" fill="url(#paint82_radial_2442_13356)"/>
<path id="Vector_97" style="mix-blend-mode:screen" fill-rule="evenodd" clip-rule="evenodd" d="M22.0577 35.9463L30.2475 39.6028C28.1615 38.8079 25.1939 37.4108 23.1272 36.5678C22.7466 36.4136 22.3275 36.1679 22.0577 35.9463Z" fill="url(#paint83_radial_2442_13356)"/>
<g id="Vector_98" style="mix-blend-mode:screen">
<path fill-rule="evenodd" clip-rule="evenodd" d="M22.684 34.8101L23.4934 35.1666L23.5078 35.7447L22.6985 35.3834L22.684 34.8053V34.8101ZM23.8836 34.497L24.6929 34.8535L24.717 36.2843L23.9077 35.923L23.8788 34.4922L23.8836 34.497ZM25.1121 35.7158L25.9214 36.0772L25.9359 36.8287L25.1265 36.4674L25.1121 35.7158ZM26.302 34.7764L27.1161 35.1329L27.1499 37.3634L26.3405 37.0021L26.302 34.7764ZM27.5353 36.2506L28.3446 36.6071L28.3591 37.903L27.5497 37.5417L27.5305 36.2458L27.5353 36.2506ZM28.7445 36.2795L29.5538 36.636L29.5731 38.4426L28.7637 38.0812L28.7397 36.2747L28.7445 36.2795Z" fill="#6AFFFF"/>
</g>
<path id="Vector_99" style="mix-blend-mode:multiply" fill-rule="evenodd" clip-rule="evenodd" d="M30.2091 35.6386C28.1231 34.8437 25.1362 33.5526 23.0695 32.7047C22.6889 32.5506 22.2361 32.2519 21.9711 32.0303L30.2091 35.6386Z" fill="url(#paint84_radial_2442_13356)"/>
</g>
<path id="Vector_100" opacity="0.5" fill-rule="evenodd" clip-rule="evenodd" d="M37.893 50.7754H37.1125C36.9921 50.7754 36.8909 50.7368 36.8042 50.6501C36.7175 50.5634 36.679 50.4622 36.679 50.3418V50.5104C36.679 50.6308 36.7223 50.732 36.8042 50.8187C36.8909 50.9054 36.9921 50.944 37.1125 50.944H37.893C38.129 50.944 38.3266 50.7465 38.3266 50.5104V50.4285V50.3418C38.3266 50.3707 38.3266 50.3996 38.3169 50.4285C38.2784 50.626 38.1001 50.7754 37.893 50.7754Z" fill="url(#paint85_radial_2442_13356)"/>
<g id="Group_3">
<path id="Vector_101" fill-rule="evenodd" clip-rule="evenodd" d="M42.5562 23.6819C42.826 23.6482 43.1006 23.706 43.1632 23.8072C43.2258 23.9083 43.0572 24.0191 42.7826 24.0528C41.0579 24.26 39.3333 24.4623 37.6134 24.6647C37.3388 24.6936 37.069 24.6358 37.0064 24.5346C36.9438 24.4334 37.1124 24.3226 37.387 24.2937C39.1117 24.0962 40.8363 23.8939 42.561 23.6867L42.5562 23.6819ZM36.4668 21.6585C36.5487 21.5574 36.833 21.4947 37.1027 21.5188C37.3677 21.5429 37.5171 21.6441 37.4352 21.7501C36.9149 22.4004 36.3946 23.0508 35.8743 23.7108C35.7924 23.812 35.5081 23.8794 35.2432 23.8553C34.9782 23.8312 34.8289 23.7253 34.9108 23.6241C35.4263 22.9689 35.9465 22.3137 36.4717 21.6682L36.4668 21.6585ZM26.4078 25.8739C26.1381 25.9028 25.8635 25.8353 25.796 25.7342C25.7334 25.6282 25.902 25.5222 26.1766 25.4933C27.9061 25.3199 29.6308 25.1368 31.3603 24.9537C31.63 24.9248 31.9046 24.9874 31.9673 25.0886C32.0299 25.1898 31.8613 25.3006 31.5867 25.3295C29.8572 25.5126 28.1325 25.6956 26.403 25.8739H26.4078ZM32.5165 28.0562C32.4346 28.1622 32.1503 28.2296 31.8854 28.2007C31.6204 28.1718 31.4711 28.0658 31.5481 27.955C32.0588 27.2758 32.5791 26.6013 33.0994 25.9317C33.1813 25.8257 33.4655 25.7631 33.7305 25.7872C33.9954 25.8161 34.1448 25.922 34.0677 26.028C33.5522 26.7025 33.0319 27.3769 32.5165 28.0562Z" fill="#35EFFF"/>
<path id="Vector_102" fill-rule="evenodd" clip-rule="evenodd" d="M36.4668 21.8272C36.5487 21.726 36.8329 21.6634 37.1027 21.6875C37.2472 21.702 37.3532 21.7357 37.411 21.7839C37.4206 21.7742 37.4255 21.7646 37.4351 21.755C37.517 21.6538 37.3676 21.5526 37.1027 21.5237C36.8329 21.4996 36.5535 21.5623 36.4668 21.6634C35.9465 22.3138 35.4262 22.9642 34.9059 23.6193C34.8673 23.6675 34.877 23.7157 34.93 23.7542C35.4406 23.1087 35.9513 22.4631 36.4668 21.8272Z" fill="url(#paint86_linear_2442_13356)"/>
<path id="Vector_103" fill-rule="evenodd" clip-rule="evenodd" d="M31.9673 25.0882C31.9046 24.9871 31.63 24.9245 31.3603 24.9534C29.6308 25.1364 27.9013 25.3147 26.1766 25.4929C25.9068 25.5218 25.7334 25.6278 25.796 25.7338C25.8056 25.7483 25.8153 25.7579 25.8297 25.7723C25.8924 25.7193 26.0176 25.676 26.1718 25.6615C27.9013 25.4881 29.6259 25.305 31.3554 25.122C31.5915 25.0979 31.8324 25.1412 31.9287 25.2183C31.9769 25.1798 31.9914 25.1364 31.9624 25.0882H31.9673Z" fill="url(#paint87_linear_2442_13356)"/>
<path id="Vector_104" fill-rule="evenodd" clip-rule="evenodd" d="M33.7304 25.787C33.4654 25.7581 33.1812 25.8255 33.0993 25.9315C32.5838 26.606 32.0635 27.2756 31.548 27.9549C31.5095 28.0031 31.524 28.0512 31.5673 28.0946C32.0732 27.4249 32.5886 26.7601 33.0993 26.0953C33.1812 25.9893 33.4654 25.9267 33.7304 25.9508C33.8749 25.9652 33.9857 26.0038 34.0435 26.052C34.0483 26.0423 34.058 26.0327 34.0628 26.023C34.1447 25.9171 33.9954 25.8111 33.7256 25.7822L33.7304 25.787Z" fill="url(#paint88_linear_2442_13356)"/>
<path id="Vector_105" fill-rule="evenodd" clip-rule="evenodd" d="M37.3822 24.2894C37.1124 24.3183 36.939 24.4291 37.0016 24.5303C37.0112 24.5448 37.0208 24.5544 37.0353 24.5689C37.0979 24.5159 37.2232 24.4725 37.3773 24.4532C38.206 24.3569 39.0394 24.2605 39.868 24.1642C40.7641 24.0582 41.6601 23.9522 42.5514 23.8462C42.7874 23.8173 43.0235 23.8559 43.1198 23.9329C43.168 23.8944 43.1825 23.8462 43.1536 23.8029C43.0909 23.7017 42.8212 23.6439 42.5466 23.6776C41.3277 23.8221 40.1089 23.9667 38.89 24.1112C38.3842 24.169 37.8784 24.2268 37.3725 24.2894H37.3822Z" fill="url(#paint89_linear_2442_13356)"/>
</g>
</g>
</g>
<defs>
<filter id="filter0_f_2442_13356" x="0" y="0" width="70" height="70" filterUnits="userSpaceOnUse" color-interpolation-filters="sRGB">
<feFlood flood-opacity="0" result="BackgroundImageFix"/>
<feBlend mode="normal" in="SourceGraphic" in2="BackgroundImageFix" result="shape"/>
<feGaussianBlur stdDeviation="11.5" result="effect1_foregroundBlur_2442_13356"/>
</filter>
<radialGradient id="paint0_radial_2442_13356" cx="0" cy="0" r="1" gradientUnits="userSpaceOnUse" gradientTransform="translate(20.2173 39.6558) scale(4.90424 4.90425)">
<stop stop-color="#989CAD"/>
<stop offset="1" stop-color="#4A4B59"/>
</radialGradient>
<radialGradient id="paint1_radial_2442_13356" cx="0" cy="0" r="1" gradientUnits="userSpaceOnUse" gradientTransform="translate(2.58051 30.6865) scale(24.1599 24.1599)">
<stop stop-color="#BDC8D1"/>
<stop offset="1" stop-color="#717C99"/>
</radialGradient>
<radialGradient id="paint2_radial_2442_13356" cx="0" cy="0" r="1" gradientUnits="userSpaceOnUse" gradientTransform="translate(17.0138 26.3018) scale(35.8521 35.852)">
<stop stop-color="#F0F8FF"/>
<stop offset="1" stop-color="#B1C5D6"/>
</radialGradient>
<radialGradient id="paint3_radial_2442_13356" cx="0" cy="0" r="1" gradientUnits="userSpaceOnUse" gradientTransform="translate(11.623 37.0019) scale(16.2832 16.2832)">
<stop stop-color="#90A8BD"/>
<stop offset="1" stop-color="#616C8A"/>
</radialGradient>
<radialGradient id="paint4_radial_2442_13356" cx="0" cy="0" r="1" gradientUnits="userSpaceOnUse" gradientTransform="translate(23.3055 37.387) scale(12.2221 12.2221)">
<stop stop-color="#5A5E6E"/>
<stop offset="1" stop-color="#3E3F4A"/>
</radialGradient>
<radialGradient id="paint5_radial_2442_13356" cx="0" cy="0" r="1" gradientUnits="userSpaceOnUse" gradientTransform="translate(26.4946 23.687) scale(19.0919)">
<stop stop-color="#D0DCE6"/>
<stop offset="1" stop-color="#8A99BD"/>
</radialGradient>
<radialGradient id="paint6_radial_2442_13356" cx="0" cy="0" r="1" gradientUnits="userSpaceOnUse" gradientTransform="translate(11.7192 26.2255) scale(30.2155)">
<stop stop-color="#E7F4FF"/>
<stop offset="1" stop-color="#A9BCCC"/>
</radialGradient>
<radialGradient id="paint7_radial_2442_13356" cx="0" cy="0" r="1" gradientUnits="userSpaceOnUse" gradientTransform="translate(37.8736 47.6964) scale(6.02673 6.02671)">
<stop stop-color="#8E9CBC"/>
<stop offset="1" stop-color="#404B68"/>
</radialGradient>
<radialGradient id="paint8_radial_2442_13356" cx="0" cy="0" r="1" gradientUnits="userSpaceOnUse" gradientTransform="translate(18.2085 36.7122) scale(31.2272 31.2272)">
<stop stop-color="#BDC8D1"/>
<stop offset="1" stop-color="#717C99"/>
</radialGradient>
<radialGradient id="paint9_radial_2442_13356" cx="0" cy="0" r="1" gradientUnits="userSpaceOnUse" gradientTransform="translate(51.5168 45.8812) scale(16.9481 16.9481)">
<stop stop-color="#A6B4BF"/>
<stop offset="1" stop-color="#717C99"/>
</radialGradient>
<radialGradient id="paint10_radial_2442_13356" cx="0" cy="0" r="1" gradientUnits="userSpaceOnUse" gradientTransform="translate(65.1601 43.4615) scale(24.5982 24.5983)">
<stop stop-color="#90A8BD"/>
<stop offset="1" stop-color="#616C8A"/>
</radialGradient>
<radialGradient id="paint11_radial_2442_13356" cx="0" cy="0" r="1" gradientUnits="userSpaceOnUse" gradientTransform="translate(65.4539 38.1202) scale(25.4751 25.4751)">
<stop stop-color="#E7F4FF"/>
<stop offset="1" stop-color="#A9BCCC"/>
</radialGradient>
<radialGradient id="paint12_radial_2442_13356" cx="0" cy="0" r="1" gradientUnits="userSpaceOnUse" gradientTransform="translate(24.6446 3.21222) scale(50.7623)">
<stop stop-color="#BDC8D1"/>
<stop offset="1" stop-color="#717C99"/>
</radialGradient>
<radialGradient id="paint13_radial_2442_13356" cx="0" cy="0" r="1" gradientUnits="userSpaceOnUse" gradientTransform="translate(66.8656 43.9778) scale(34.7103 34.7103)">
<stop stop-color="#BDC8D1"/>
<stop offset="1" stop-color="#717C99"/>
</radialGradient>
<radialGradient id="paint14_radial_2442_13356" cx="0" cy="0" r="1" gradientUnits="userSpaceOnUse" gradientTransform="translate(37.2474 10.5445) scale(27.2383 27.2383)">
<stop stop-color="#727D87"/>
<stop offset="1" stop-color="#414D66"/>
</radialGradient>
<radialGradient id="paint15_radial_2442_13356" cx="0" cy="0" r="1" gradientUnits="userSpaceOnUse" gradientTransform="translate(35.2047 14.8408) scale(5.49198)">
<stop stop-color="#727D87"/>
<stop offset="1" stop-color="#414D66"/>
</radialGradient>
<radialGradient id="paint16_radial_2442_13356" cx="0" cy="0" r="1" gradientUnits="userSpaceOnUse" gradientTransform="translate(29.7176 31.9762) scale(14.5634 14.5634)">
<stop stop-color="#BDC8D1"/>
<stop offset="1" stop-color="#717C99"/>
</radialGradient>
<radialGradient id="paint17_radial_2442_13356" cx="0" cy="0" r="1" gradientUnits="userSpaceOnUse" gradientTransform="translate(25.088 32.1745) scale(9.71214 9.71214)">
<stop stop-color="#D0DCE6"/>
<stop offset="1" stop-color="#8A99BD"/>
</radialGradient>
<radialGradient id="paint18_radial_2442_13356" cx="0" cy="0" r="1" gradientUnits="userSpaceOnUse" gradientTransform="translate(27.7279 26.3263) scale(10.6853 10.6853)">
<stop stop-color="#5A5E6E"/>
<stop offset="1" stop-color="#3E3F4A"/>
</radialGradient>
<radialGradient id="paint19_radial_2442_13356" cx="0" cy="0" r="1" gradientUnits="userSpaceOnUse" gradientTransform="translate(26.2537 26.3312) scale(18.5089 18.5089)">
<stop stop-color="#AAB3D1"/>
<stop offset="1" stop-color="#6C6D82"/>
</radialGradient>
<radialGradient id="paint20_radial_2442_13356" cx="0" cy="0" r="1" gradientUnits="userSpaceOnUse" gradientTransform="translate(25.8539 27.4874) scale(21.5922 21.5922)">
<stop stop-color="#7A8196"/>
<stop offset="1" stop-color="#535463"/>
</radialGradient>
<radialGradient id="paint21_radial_2442_13356" cx="0" cy="0" r="1" gradientUnits="userSpaceOnUse" gradientTransform="translate(21.176 25.6713) scale(56.7553)">
<stop stop-color="#E7F4FF"/>
<stop offset="1" stop-color="#A9BCCC"/>
</radialGradient>
<radialGradient id="paint22_radial_2442_13356" cx="0" cy="0" r="1" gradientUnits="userSpaceOnUse" gradientTransform="translate(17.6159 24.1537) scale(6.45549 6.45549)">
<stop stop-color="#BDC8D1"/>
<stop offset="1" stop-color="#717C99"/>
</radialGradient>
<radialGradient id="paint23_radial_2442_13356" cx="0" cy="0" r="1" gradientUnits="userSpaceOnUse" gradientTransform="translate(15.8816 23.2911) scale(7.93929)">
<stop stop-color="white"/>
<stop offset="1" stop-color="#8999C4"/>
</radialGradient>
<radialGradient id="paint24_radial_2442_13356" cx="0" cy="0" r="1" gradientUnits="userSpaceOnUse" gradientTransform="translate(38.6685 17.1593) scale(17.2178 17.2178)">
<stop stop-color="#BDC8D1"/>
<stop offset="1" stop-color="#929CBD"/>
</radialGradient>
<radialGradient id="paint25_radial_2442_13356" cx="0" cy="0" r="1" gradientUnits="userSpaceOnUse" gradientTransform="translate(53.9449 22.8286) scale(8.74863 8.74863)">
<stop stop-color="#E7F4FF"/>
<stop offset="1" stop-color="#A9BCCC"/>
</radialGradient>
<radialGradient id="paint26_radial_2442_13356" cx="0" cy="0" r="1" gradientUnits="userSpaceOnUse" gradientTransform="translate(43.9149 11.893) scale(34.0407 34.0407)">
<stop stop-color="#BDC8D1"/>
<stop offset="1" stop-color="#7A84A1"/>
</radialGradient>
<radialGradient id="paint27_radial_2442_13356" cx="0" cy="0" r="1" gradientUnits="userSpaceOnUse" gradientTransform="translate(51.7048 26.1431) scale(6.38324 6.38323)">
<stop stop-color="#90A1BD"/>
<stop offset="1" stop-color="#616C8A"/>
</radialGradient>
<radialGradient id="paint28_radial_2442_13356" cx="0" cy="0" r="1" gradientUnits="userSpaceOnUse" gradientTransform="translate(26.3838 21.3789) scale(4.83198)">
<stop stop-color="#989CAD"/>
<stop offset="1" stop-color="#4A4B59"/>
</radialGradient>
<radialGradient id="paint29_radial_2442_13356" cx="0" cy="0" r="1" gradientUnits="userSpaceOnUse" gradientTransform="translate(27.0534 18.8051) scale(3.78658 3.78658)">
<stop stop-color="#7A8196"/>
<stop offset="1" stop-color="#535463"/>
</radialGradient>
<radialGradient id="paint30_radial_2442_13356" cx="0" cy="0" r="1" gradientUnits="userSpaceOnUse" gradientTransform="translate(26.2249 21.0177) scale(3.08322 3.08322)">
<stop stop-color="#D1D5E6"/>
<stop offset="1" stop-color="#83849E"/>
</radialGradient>
<radialGradient id="paint31_radial_2442_13356" cx="0" cy="0" r="1" gradientUnits="userSpaceOnUse" gradientTransform="translate(24.852 24.1863) scale(10.8539 10.8539)">
<stop stop-color="#8F97B0"/>
<stop offset="1" stop-color="#535463"/>
</radialGradient>
<radialGradient id="paint32_radial_2442_13356" cx="0" cy="0" r="1" gradientUnits="userSpaceOnUse" gradientTransform="translate(26.3164 34.9585) scale(19.4965)">
<stop stop-color="#BDC8D1"/>
<stop offset="1" stop-color="#717C99"/>
</radialGradient>
<radialGradient id="paint33_radial_2442_13356" cx="0" cy="0" r="1" gradientUnits="userSpaceOnUse" gradientTransform="translate(48.9492 34.276) scale(7.57315 7.57315)">
<stop stop-color="#90A8BD"/>
<stop offset="1" stop-color="#616C8A"/>
</radialGradient>
<radialGradient id="paint34_radial_2442_13356" cx="0" cy="0" r="1" gradientUnits="userSpaceOnUse" gradientTransform="translate(59.9041 31.318) scale(10.2324 10.2324)">
<stop stop-color="#E7F4FF"/>
<stop offset="1" stop-color="#A9BCCC"/>
</radialGradient>
<radialGradient id="paint35_radial_2442_13356" cx="0" cy="0" r="1" gradientUnits="userSpaceOnUse" gradientTransform="translate(39.5792 18.2464) scale(19.8097 19.8097)">
<stop stop-color="#BDC8D1"/>
<stop offset="1" stop-color="#717C99"/>
</radialGradient>
<radialGradient id="paint36_radial_2442_13356" cx="0" cy="0" r="1" gradientUnits="userSpaceOnUse" gradientTransform="translate(38.4324 15.7464) scale(20.4841 20.4841)">
<stop stop-color="#BDC8D1"/>
<stop offset="1" stop-color="#717C99"/>
</radialGradient>
<radialGradient id="paint37_radial_2442_13356" cx="0" cy="0" r="1" gradientUnits="userSpaceOnUse" gradientTransform="translate(11.1652 27.7812) scale(9.4809 9.48089)">
<stop stop-color="#BDC8D1"/>
<stop offset="1" stop-color="#717C99"/>
</radialGradient>
<radialGradient id="paint38_radial_2442_13356" cx="0" cy="0" r="1" gradientUnits="userSpaceOnUse" gradientTransform="translate(27.1257 18.4207) scale(19.2219 19.2219)">
<stop stop-color="#E7F4FF"/>
<stop offset="1" stop-color="#A9BCCC"/>
</radialGradient>
<radialGradient id="paint39_radial_2442_13356" cx="0" cy="0" r="1" gradientUnits="userSpaceOnUse" gradientTransform="translate(21.5567 24.785) scale(26.5349 26.5349)">
<stop stop-color="#F0F8FF"/>
<stop offset="1" stop-color="#B1C5D6"/>
</radialGradient>
<radialGradient id="paint40_radial_2442_13356" cx="0" cy="0" r="1" gradientUnits="userSpaceOnUse" gradientTransform="translate(34.4917 30.0602) scale(7.24075 7.24074)">
<stop stop-color="white"/>
<stop offset="1" stop-color="#8999C4"/>
</radialGradient>
<radialGradient id="paint41_radial_2442_13356" cx="0" cy="0" r="1" gradientUnits="userSpaceOnUse" gradientTransform="translate(27.8002 23.7923) scale(17.6032 17.6032)">
<stop stop-color="#F0F8FF"/>
<stop offset="1" stop-color="#B1C5D6"/>
</radialGradient>
<radialGradient id="paint42_radial_2442_13356" cx="0" cy="0" r="1" gradientUnits="userSpaceOnUse" gradientTransform="translate(18.353 23.8263) scale(45.2848 45.2848)">
<stop stop-color="#F0F8FF"/>
<stop offset="1" stop-color="#BACFE0"/>
</radialGradient>
<radialGradient id="paint43_radial_2442_13356" cx="0" cy="0" r="1" gradientUnits="userSpaceOnUse" gradientTransform="translate(29.5731 27.7667) scale(15.551 15.551)">
<stop stop-color="#E7F4FF"/>
<stop offset="1" stop-color="#A9BCCC"/>
</radialGradient>
<radialGradient id="paint44_radial_2442_13356" cx="0" cy="0" r="1" gradientUnits="userSpaceOnUse" gradientTransform="translate(40.899 29.2455) scale(5.993 5.99301)">
<stop stop-color="#90A1BD"/>
<stop offset="1" stop-color="#616C8A"/>
</radialGradient>
<radialGradient id="paint45_radial_2442_13356" cx="0" cy="0" r="1" gradientUnits="userSpaceOnUse" gradientTransform="translate(55.1636 41.1352) scale(16.235 16.2351)">
<stop stop-color="#A3B2BF"/>
<stop offset="1" stop-color="#596178"/>
</radialGradient>
<radialGradient id="paint46_radial_2442_13356" cx="0" cy="0" r="1" gradientUnits="userSpaceOnUse" gradientTransform="translate(48.4673 45.005) scale(5.16439 5.1644)">
<stop stop-color="#BDC8D1"/>
<stop offset="1" stop-color="#717C99"/>
</radialGradient>
<radialGradient id="paint47_radial_2442_13356" cx="0" cy="0" r="1" gradientUnits="userSpaceOnUse" gradientTransform="translate(48.583 44.3008) scale(4.19125 4.19125)">
<stop stop-color="#BDC8D1"/>
<stop offset="1" stop-color="#5B647D"/>
</radialGradient>
<radialGradient id="paint48_radial_2442_13356" cx="0" cy="0" r="1" gradientUnits="userSpaceOnUse" gradientTransform="translate(51.8347 42.022) scale(8.67637 8.67637)">
<stop stop-color="#54596E"/>
<stop offset="1" stop-color="#333542"/>
</radialGradient>
<radialGradient id="paint49_radial_2442_13356" cx="0" cy="0" r="1" gradientUnits="userSpaceOnUse" gradientTransform="translate(23.8403 50.9105) scale(13.0459)">
<stop stop-color="#363A47"/>
<stop offset="1" stop-color="#21232B"/>
</radialGradient>
<linearGradient id="paint50_linear_2442_13356" x1="23.3969" y1="40.5145" x2="29.9198" y2="40.5145" gradientUnits="userSpaceOnUse">
<stop stop-color="#2B2C33"/>
<stop offset="0.15" stop-color="#444552"/>
<stop offset="0.37" stop-color="#4E505F"/>
<stop offset="0.67" stop-color="#575A6A"/>
<stop offset="1" stop-color="#5A5E6E"/>
</linearGradient>
<linearGradient id="paint51_linear_2442_13356" x1="23.4211" y1="41.56" x2="29.9344" y2="41.56" gradientUnits="userSpaceOnUse">
<stop stop-color="#2B2C33"/>
<stop offset="0.15" stop-color="#444552"/>
<stop offset="0.37" stop-color="#4E505F"/>
<stop offset="0.67" stop-color="#575A6A"/>
<stop offset="1" stop-color="#5A5E6E"/>
</linearGradient>
<linearGradient id="paint52_linear_2442_13356" x1="23.4451" y1="42.596" x2="29.9488" y2="42.596" gradientUnits="userSpaceOnUse">
<stop stop-color="#2B2C33"/>
<stop offset="0.15" stop-color="#444552"/>
<stop offset="0.37" stop-color="#4E505F"/>
<stop offset="0.67" stop-color="#575A6A"/>
<stop offset="1" stop-color="#5A5E6E"/>
</linearGradient>
<linearGradient id="paint53_linear_2442_13356" x1="23.4692" y1="43.6311" x2="29.9584" y2="43.6311" gradientUnits="userSpaceOnUse">
<stop stop-color="#2B2C33"/>
<stop offset="0.15" stop-color="#444552"/>
<stop offset="0.37" stop-color="#4E505F"/>
<stop offset="0.67" stop-color="#575A6A"/>
<stop offset="1" stop-color="#5A5E6E"/>
</linearGradient>
<linearGradient id="paint54_linear_2442_13356" x1="23.4934" y1="44.6572" x2="29.973" y2="44.6572" gradientUnits="userSpaceOnUse">
<stop stop-color="#2B2C33"/>
<stop offset="0.15" stop-color="#444552"/>
<stop offset="0.37" stop-color="#4E505F"/>
<stop offset="0.67" stop-color="#575A6A"/>
<stop offset="1" stop-color="#5A5E6E"/>
</linearGradient>
<radialGradient id="paint55_radial_2442_13356" cx="0" cy="0" r="1" gradientUnits="userSpaceOnUse" gradientTransform="translate(20.0583 20.4055) scale(19.5303 19.5303)">
<stop stop-color="white"/>
<stop offset="1"/>
</radialGradient>
<radialGradient id="paint56_radial_2442_13356" cx="0" cy="0" r="1" gradientUnits="userSpaceOnUse" gradientTransform="translate(29.3225 26.4182) scale(9.47608 9.47607)">
<stop stop-color="white"/>
<stop offset="1"/>
</radialGradient>
<radialGradient id="paint57_radial_2442_13356" cx="0" cy="0" r="1" gradientUnits="userSpaceOnUse" gradientTransform="translate(40.928 27.2128) scale(14.6453)">
<stop stop-color="#8F97B0"/>
<stop offset="1" stop-color="#535463"/>
</radialGradient>
<radialGradient id="paint58_radial_2442_13356" cx="0" cy="0" r="1" gradientUnits="userSpaceOnUse" gradientTransform="translate(39.29 19.1958) scale(15.5895 15.5895)">
<stop stop-color="#7A8196"/>
<stop offset="1" stop-color="#535463"/>
</radialGradient>
<radialGradient id="paint59_radial_2442_13356" cx="0" cy="0" r="1" gradientUnits="userSpaceOnUse" gradientTransform="translate(40.557 22.1103) scale(12.6894 12.6894)">
<stop stop-color="#6C7285"/>
<stop offset="1" stop-color="#42434F"/>
</radialGradient>
<radialGradient id="paint60_radial_2442_13356" cx="0" cy="0" r="1" gradientUnits="userSpaceOnUse" gradientTransform="translate(41.3904 27.2315) scale(12.1739 12.1739)">
<stop stop-color="#989CAD"/>
<stop offset="1" stop-color="#4A4B59"/>
</radialGradient>
<radialGradient id="paint61_radial_2442_13356" cx="0" cy="0" r="1" gradientUnits="userSpaceOnUse" gradientTransform="translate(46.5837 31.0816) scale(2.05709 2.05708)">
<stop stop-color="#5A5E6E"/>
<stop offset="1" stop-color="#3E3F4A"/>
</radialGradient>
<radialGradient id="paint62_radial_2442_13356" cx="0" cy="0" r="1" gradientUnits="userSpaceOnUse" gradientTransform="translate(16.3297 23.5273) scale(5.16439)">
<stop stop-color="white"/>
<stop offset="1"/>
</radialGradient>
<radialGradient id="paint63_radial_2442_13356" cx="0" cy="0" r="1" gradientUnits="userSpaceOnUse" gradientTransform="translate(19.2249 24.4862) scale(4.8368)">
<stop stop-color="white"/>
<stop offset="1"/>
</radialGradient>
<radialGradient id="paint64_radial_2442_13356" cx="0" cy="0" r="1" gradientUnits="userSpaceOnUse" gradientTransform="translate(26.456 20.7622) scale(3.38191)">
<stop stop-color="#5D768F"/>
<stop offset="1"/>
</radialGradient>
<radialGradient id="paint65_radial_2442_13356" cx="0" cy="0" r="1" gradientUnits="userSpaceOnUse" gradientTransform="translate(27.4099 20.7673) scale(2.5292 2.52921)">
<stop stop-color="#5D768F"/>
<stop offset="1"/>
</radialGradient>
<radialGradient id="paint66_radial_2442_13356" cx="0" cy="0" r="1" gradientUnits="userSpaceOnUse" gradientTransform="translate(26.2972 25.9891) scale(7.43345)">
<stop stop-color="#5D768F"/>
<stop offset="1"/>
</radialGradient>
<radialGradient id="paint67_radial_2442_13356" cx="0" cy="0" r="1" gradientUnits="userSpaceOnUse" gradientTransform="translate(23.3295 29.0781) scale(7.56834)">
<stop stop-color="#5D768F"/>
<stop offset="1"/>
</radialGradient>
<radialGradient id="paint68_radial_2442_13356" cx="0" cy="0" r="1" gradientUnits="userSpaceOnUse" gradientTransform="translate(25.5889 26.4859) scale(10.5167 10.5167)">
<stop stop-color="white"/>
<stop offset="1"/>
</radialGradient>
<radialGradient id="paint69_radial_2442_13356" cx="0" cy="0" r="1" gradientUnits="userSpaceOnUse" gradientTransform="translate(33.2247 30.0161) scale(5.14994 5.14993)">
<stop stop-color="white"/>
<stop offset="1"/>
</radialGradient>
<radialGradient id="paint70_radial_2442_13356" cx="0" cy="0" r="1" gradientUnits="userSpaceOnUse" gradientTransform="translate(17.2594 27.7767) scale(15.1319 15.1319)">
<stop stop-color="white"/>
<stop offset="1"/>
</radialGradient>
<radialGradient id="paint71_radial_2442_13356" cx="0" cy="0" r="1" gradientUnits="userSpaceOnUse" gradientTransform="translate(23.9365 28.5471) scale(11.6632 11.6632)">
<stop stop-color="white"/>
<stop offset="1"/>
</radialGradient>
<radialGradient id="paint72_radial_2442_13356" cx="0" cy="0" r="1" gradientUnits="userSpaceOnUse" gradientTransform="translate(34.2798 35.2089) scale(13.6962 13.6962)">
<stop stop-color="white"/>
<stop offset="1"/>
</radialGradient>
<radialGradient id="paint73_radial_2442_13356" cx="0" cy="0" r="1" gradientUnits="userSpaceOnUse" gradientTransform="translate(37.4545 34.2517) scale(9.38937 9.38936)">
<stop stop-color="white"/>
<stop offset="1"/>
</radialGradient>
<radialGradient id="paint74_radial_2442_13356" cx="0" cy="0" r="1" gradientUnits="userSpaceOnUse" gradientTransform="translate(37.1222 29.8678) scale(5.42454 5.42453)">
<stop stop-color="white"/>
<stop offset="1"/>
</radialGradient>
<radialGradient id="paint75_radial_2442_13356" cx="0" cy="0" r="1" gradientUnits="userSpaceOnUse" gradientTransform="translate(43.6979 29.2214) scale(5.42935)">
<stop stop-color="#5D768F"/>
<stop offset="1"/>
</radialGradient>
<radialGradient id="paint76_radial_2442_13356" cx="0" cy="0" r="1" gradientUnits="userSpaceOnUse" gradientTransform="translate(52.0709 45.587) scale(9.53871 9.53871)">
<stop stop-color="white"/>
<stop offset="1"/>
</radialGradient>
<radialGradient id="paint77_radial_2442_13356" cx="0" cy="0" r="1" gradientUnits="userSpaceOnUse" gradientTransform="translate(51.7722 24.5633) scale(5.18366 5.18366)">
<stop stop-color="white"/>
<stop offset="1"/>
</radialGradient>
<radialGradient id="paint78_radial_2442_13356" cx="0" cy="0" r="1" gradientUnits="userSpaceOnUse" gradientTransform="translate(52.8079 27.9931) scale(3.26629 3.26628)">
<stop stop-color="white"/>
<stop offset="1"/>
</radialGradient>
<radialGradient id="paint79_radial_2442_13356" cx="0" cy="0" r="1" gradientUnits="userSpaceOnUse" gradientTransform="translate(35.5468 32.5744) scale(8.46921 8.46921)">
<stop stop-color="white"/>
<stop offset="1"/>
</radialGradient>
<radialGradient id="paint80_radial_2442_13356" cx="0" cy="0" r="1" gradientUnits="userSpaceOnUse" gradientTransform="translate(25.3479 38.7649) scale(10.377)">
<stop stop-color="#5D768F"/>
<stop offset="1"/>
</radialGradient>
<radialGradient id="paint81_radial_2442_13356" cx="0" cy="0" r="1" gradientUnits="userSpaceOnUse" gradientTransform="translate(45.1191 34.1209) scale(11.7548 11.7548)">
<stop stop-color="#52FCFF"/>
<stop offset="0.35" stop-color="#32C9F4"/>
<stop offset="0.79" stop-color="#0E8FE7"/>
<stop offset="1" stop-color="#0079E3"/>
</radialGradient>
<radialGradient id="paint82_radial_2442_13356" cx="0" cy="0" r="1" gradientUnits="userSpaceOnUse" gradientTransform="translate(26.3886 32.7914) scale(8.17053)">
<stop stop-color="#52FCFF"/>
<stop offset="0.19" stop-color="#40E6FD"/>
<stop offset="0.74" stop-color="#12ACF8"/>
<stop offset="1" stop-color="#0096F7"/>
</radialGradient>
<radialGradient id="paint83_radial_2442_13356" cx="0" cy="0" r="1" gradientUnits="userSpaceOnUse" gradientTransform="translate(23.7294 38.2539) scale(6.86016)">
<stop stop-color="#7FFF3D"/>
<stop offset="1"/>
</radialGradient>
<radialGradient id="paint84_radial_2442_13356" cx="0" cy="0" r="1" gradientUnits="userSpaceOnUse" gradientTransform="translate(23.6524 34.309) scale(6.8987 6.8987)">
<stop stop-color="#5679C4"/>
<stop offset="1" stop-color="white"/>
</radialGradient>
<radialGradient id="paint85_radial_2442_13356" cx="0" cy="0" r="1" gradientUnits="userSpaceOnUse" gradientTransform="translate(40.0368 49.2627) scale(4.18162 4.18161)">
<stop stop-color="#E7F4FF"/>
<stop offset="1" stop-color="#A9BCCC"/>
</radialGradient>
<linearGradient id="paint86_linear_2442_13356" x1="34.8866" y1="22.6317" x2="37.4592" y2="22.6317" gradientUnits="userSpaceOnUse">
<stop stop-color="#165BC5"/>
<stop offset="0.15" stop-color="#2578F7"/>
<stop offset="0.25" stop-color="#1B8BF4"/>
<stop offset="0.43" stop-color="#0FA5F0"/>
<stop offset="0.61" stop-color="#06B8ED"/>
<stop offset="0.8" stop-color="#01C3EB"/>
<stop offset="1" stop-color="#00C7EB"/>
</linearGradient>
<linearGradient id="paint87_linear_2442_13356" x1="25.7816" y1="25.358" x2="31.9817" y2="25.358" gradientUnits="userSpaceOnUse">
<stop stop-color="#165BC5"/>
<stop offset="0.15" stop-color="#2578F7"/>
<stop offset="0.25" stop-color="#1B8BF4"/>
<stop offset="0.43" stop-color="#0FA5F0"/>
<stop offset="0.61" stop-color="#06B8ED"/>
<stop offset="0.8" stop-color="#01C3EB"/>
<stop offset="1" stop-color="#00C7EB"/>
</linearGradient>
<linearGradient id="paint88_linear_2442_13356" x1="31.524" y1="26.9384" x2="34.0869" y2="26.9384" gradientUnits="userSpaceOnUse">
<stop stop-color="#165BC5"/>
<stop offset="0.15" stop-color="#2578F7"/>
<stop offset="0.25" stop-color="#1B8BF4"/>
<stop offset="0.43" stop-color="#0FA5F0"/>
<stop offset="0.61" stop-color="#06B8ED"/>
<stop offset="0.8" stop-color="#01C3EB"/>
<stop offset="1" stop-color="#00C7EB"/>
</linearGradient>
<linearGradient id="paint89_linear_2442_13356" x1="36.9919" y1="24.1208" x2="43.1728" y2="24.1208" gradientUnits="userSpaceOnUse">
<stop stop-color="#165BC5"/>
<stop offset="0.15" stop-color="#2578F7"/>
<stop offset="0.25" stop-color="#1B8BF4"/>
<stop offset="0.43" stop-color="#0FA5F0"/>
<stop offset="0.61" stop-color="#06B8ED"/>
<stop offset="0.8" stop-color="#01C3EB"/>
<stop offset="1" stop-color="#00C7EB"/>
</linearGradient>
</defs>
</svg>
