<svg width="25" height="24" viewBox="0 0 25 24" fill="none" xmlns="http://www.w3.org/2000/svg">
<path fill-rule="evenodd" clip-rule="evenodd" d="M21.503 10C21.7682 10 22.0226 9.89464 22.2101 9.70711C22.3976 9.51957 22.503 9.26522 22.503 9V3C22.503 2.73478 22.3976 2.48043 22.2101 2.29289C22.0226 2.10536 21.7682 2 21.503 2H15.5C15.2348 2 14.9804 2.10536 14.7929 2.29289C14.6054 2.48043 14.5 2.73478 14.5 3C14.5 3.26522 14.6054 3.51957 14.7929 3.70711C14.9804 3.89464 15.2348 4 15.5 4H19.09L10.483 12.607C10.3008 12.7956 10.2 13.0482 10.2023 13.3104C10.2046 13.5726 10.3098 13.8234 10.4952 14.0088C10.6806 14.1942 10.9314 14.2994 11.1936 14.3017C11.4558 14.304 11.7084 14.2032 11.897 14.021L20.504 5.414V9C20.504 9.26522 20.6094 9.51957 20.7969 9.70711C20.9844 9.89464 21.2378 10 21.503 10ZM5.5 5C4.70435 5 3.94129 5.31607 3.37868 5.87868C2.81607 6.44129 2.5 7.20435 2.5 8V19C2.5 19.7956 2.81607 20.5587 3.37868 21.1213C3.94129 21.6839 4.70435 22 5.5 22H16.5C17.2956 22 18.0587 21.6839 18.6213 21.1213C19.1839 20.5587 19.5 19.7956 19.5 19V13C19.5 12.7348 19.3946 12.4804 19.2071 12.2929C19.0196 12.1054 18.7652 12 18.5 12C18.2348 12 17.9804 12.1054 17.7929 12.2929C17.6054 12.4804 17.5 12.7348 17.5 13V19C17.5 19.2652 17.3946 19.5196 17.2071 19.7071C17.0196 19.8946 16.7652 20 16.5 20H5.5C5.23478 20 4.98043 19.8946 4.79289 19.7071C4.60536 19.5196 4.5 19.2652 4.5 19V8C4.5 7.73478 4.60536 7.48043 4.79289 7.29289C4.98043 7.10536 5.23478 7 5.5 7H11.5C11.7652 7 12.0196 6.89464 12.2071 6.70711C12.3946 6.51957 12.5 6.26522 12.5 6C12.5 5.73478 12.3946 5.48043 12.2071 5.29289C12.0196 5.10536 11.7652 5 11.5 5H5.5Z" fill="#B0E822"/>
</svg>
