<?xml version="1.0" standalone="no"?>
<!DOCTYPE svg PUBLIC "-//W3C//DTD SVG 20010904//EN"
 "http://www.w3.org/TR/2001/REC-SVG-20010904/DTD/svg10.dtd">
<svg version="1.0" xmlns="http://www.w3.org/2000/svg"
 width="512.000000pt" height="512.000000pt" viewBox="0 0 512.000000 512.000000"
 preserveAspectRatio="xMidYMid meet">

<g transform="translate(0.000000,512.000000) scale(0.100000,-0.100000)"
fill="#b0e822" stroke="none">
<path d="M2375 5114 c-16 -2 -73 -9 -125 -15 -593 -68 -1184 -388 -1577 -854
-646 -766 -771 -1825 -322 -2720 61 -120 182 -313 245 -391 19 -23 34 -50 34
-60 0 -10 -47 -217 -105 -458 -58 -242 -105 -456 -105 -476 0 -76 79 -145 156
-137 24 2 211 82 475 202 238 109 439 198 444 197 6 0 71 -26 145 -56 156 -64
335 -115 517 -148 113 -20 160 -23 403 -23 308 0 409 13 658 81 661 181 1234
649 1546 1262 188 370 270 715 269 1132 0 595 -199 1132 -592 1601 -357 427
-910 742 -1461 833 -192 31 -471 45 -605 30z m406 -304 c901 -91 1658 -743
1889 -1625 233 -892 -140 -1852 -915 -2361 -639 -419 -1430 -474 -2132 -148
-53 24 -110 44 -129 44 -21 0 -151 -54 -364 -151 -183 -82 -334 -148 -337
-145 -3 3 31 161 77 352 95 402 95 375 -1 494 -541 668 -639 1594 -249 2359
409 802 1266 1271 2161 1181z"/>
<path d="M2463 3780 c-203 -29 -406 -139 -530 -289 -64 -77 -143 -229 -143
-275 0 -79 69 -146 150 -146 67 0 105 29 149 115 43 85 141 191 210 228 163
89 359 99 503 26 144 -73 238 -248 226 -419 -11 -146 -84 -221 -412 -421 -218
-132 -287 -256 -290 -516 -1 -132 5 -151 67 -197 37 -27 117 -27 154 0 58 43
66 65 74 195 6 87 13 130 27 157 20 40 84 86 278 202 134 81 282 222 332 317
85 162 93 356 23 557 -59 168 -194 319 -354 395 -132 63 -318 91 -464 71z"/>
<path d="M2434 1649 c-42 -12 -101 -79 -110 -123 -20 -111 70 -211 173 -191
47 8 129 86 144 134 27 92 -52 193 -149 190 -15 0 -41 -5 -58 -10z"/>
</g>
</svg>
