<svg width="24" height="24" viewBox="0 0 24 24" fill="none" xmlns="http://www.w3.org/2000/svg">
<path d="M12.1303 17.8141C12.484 17.6135 12.7133 17.2296 12.7417 16.7906L12.7218 13.5953L12.7693 11.4612L12.7239 8.30851C12.7269 7.91215 12.9562 7.52835 13.3354 7.28502L15.5708 6.08722C15.9245 5.88654 16.4026 5.86899 16.7972 6.08913L18.9891 7.31211C19.3399 7.50779 19.5887 7.87405 19.604 8.33751L19.6045 10.7827C19.6015 11.1791 19.3722 11.5629 18.993 11.8062L16.7576 13.004C16.4039 13.2047 15.9258 13.2223 15.5312 13.0021L14.0845 12.195L14.0808 14.3536L15.5714 15.1852C15.9221 15.3809 16.3747 15.406 16.7977 15.1871L20.8965 12.9251C21.2502 12.7244 21.4795 12.3406 21.5079 11.9016L21.4928 7.23064C21.5213 6.79164 21.2725 6.42538 20.9218 6.2297L16.8009 3.9305C16.4501 3.73482 15.9975 3.70972 15.5745 3.92859L11.4503 6.23326C11.0966 6.43394 10.8673 6.81775 10.8388 7.25675L10.8404 10.3849L10.8367 12.5436L10.8383 15.6718C10.8353 16.0681 10.606 16.4519 10.2268 16.6953L8.03523 17.9175C7.68153 18.1182 7.20342 18.1358 6.80886 17.9156L4.61688 16.6926C4.26617 16.497 4.01736 16.1307 4.00199 15.6672L3.97608 13.2646C3.97907 12.8683 4.20837 12.4845 4.58756 12.2412L6.77911 11.0189C7.13281 10.8182 7.61092 10.8007 8.00548 11.0208L9.40834 11.8035L9.41204 9.64488L7.96533 8.83772C7.61462 8.64204 7.16199 8.61695 6.73896 8.83581L2.61477 11.1405C2.26107 11.3412 2.03176 11.725 2.0033 12.164L2.00003 16.7678C1.99704 17.1642 2.22037 17.5731 2.61492 17.7932L6.77969 20.1169C7.13041 20.3126 7.58304 20.3377 8.00606 20.1188L12.1303 17.8141Z" fill="url(#paint0_linear_1066_8850)"/>
<path d="M12.1303 17.8141C12.484 17.6135 12.7133 17.2296 12.7417 16.7906L12.7218 13.5953L12.7693 11.4612L12.7239 8.30851C12.7269 7.91215 12.9562 7.52835 13.3354 7.28502L15.5708 6.08722C15.9245 5.88654 16.4026 5.86899 16.7972 6.08913L18.9891 7.31211C19.3399 7.50779 19.5887 7.87405 19.604 8.33751L19.6045 10.7827C19.6015 11.1791 19.3722 11.5629 18.993 11.8062L16.7576 13.004C16.4039 13.2047 15.9258 13.2223 15.5312 13.0021L14.0845 12.195L14.0808 14.3536L15.5714 15.1852C15.9221 15.3809 16.3747 15.406 16.7977 15.1871L20.8965 12.9251C21.2502 12.7244 21.4795 12.3406 21.5079 11.9016L21.4928 7.23064C21.5213 6.79164 21.2725 6.42538 20.9218 6.2297L16.8009 3.9305C16.4501 3.73482 15.9975 3.70972 15.5745 3.92859L11.4503 6.23326C11.0966 6.43394 10.8673 6.81775 10.8388 7.25675L10.8404 10.3849L10.8367 12.5436L10.8383 15.6718C10.8353 16.0681 10.606 16.4519 10.2268 16.6953L8.03523 17.9175C7.68153 18.1182 7.20342 18.1358 6.80886 17.9156L4.61688 16.6926C4.26617 16.497 4.01736 16.1307 4.00199 15.6672L3.97608 13.2646C3.97907 12.8683 4.20837 12.4845 4.58756 12.2412L6.77911 11.0189C7.13281 10.8182 7.61092 10.8007 8.00548 11.0208L9.40834 11.8035L9.41204 9.64488L7.96533 8.83772C7.61462 8.64204 7.16199 8.61695 6.73896 8.83581L2.61477 11.1405C2.26107 11.3412 2.03176 11.725 2.0033 12.164L2.00003 16.7678C1.99704 17.1642 2.22037 17.5731 2.61492 17.7932L6.77969 20.1169C7.13041 20.3126 7.58304 20.3377 8.00606 20.1188L12.1303 17.8141Z" fill="white" fill-opacity="0.2"/>
<defs>
<linearGradient id="paint0_linear_1066_8850" x1="21.7111" y1="5.96347" x2="2.39693" y2="18.8083" gradientUnits="userSpaceOnUse">
<stop stop-color="#8245E7"/>
<stop offset="1" stop-color="#C352DF"/>
</linearGradient>
</defs>
</svg>
