<svg width="48" height="48" viewBox="0 0 48 48" fill="none" xmlns="http://www.w3.org/2000/svg">
<mask id="mask0_2078_13243" style="mask-type:alpha" maskUnits="userSpaceOnUse" x="0" y="0" width="48" height="48">
<circle cx="24" cy="24" r="24" fill="#D9D9D9"/>
</mask>
<g mask="url(#mask0_2078_13243)">
<rect x="-13.4399" width="74.4" height="48" fill="#1B1BF9"/>
<rect x="-13.4399" width="74.4" height="48" fill="url(#paint0_linear_2078_13243)"/>
<path d="M24.8983 30.8297C25.2876 30.6097 25.54 30.189 25.5713 29.7078L25.5494 26.2053L25.6017 23.866L25.5517 20.4103C25.555 19.9759 25.8074 19.5551 26.2247 19.2884L28.685 17.9755C29.0742 17.7555 29.6005 17.7363 30.0347 17.9776L32.4472 19.3181C32.8332 19.5326 33.107 19.9341 33.1239 20.4421L33.1244 23.1224C33.1211 23.5568 32.8688 23.9775 32.4514 24.2442L29.9912 25.5572C29.6019 25.7772 29.0757 25.7964 28.6414 25.5551L27.0492 24.6703L27.0451 27.0365L28.6856 27.948C29.0716 28.1625 29.5698 28.19 30.0353 27.9501L34.5464 25.4707C34.9357 25.2507 35.188 24.83 35.2194 24.3488L35.2028 19.2288C35.2341 18.7476 34.9603 18.3462 34.5743 18.1317L30.0388 15.6115C29.6528 15.397 29.1546 15.3695 28.689 15.6094L24.1499 18.1356C23.7607 18.3555 23.5083 18.7762 23.477 19.2574L23.4787 22.6863L23.4746 25.0525L23.4763 28.4814C23.4731 28.9158 23.2207 29.3365 22.8034 29.6032L20.3913 30.943C20.002 31.163 19.4758 31.1822 19.0416 30.9409L16.6291 29.6004C16.2431 29.3859 15.9693 28.9844 15.9523 28.4764L15.9238 25.8429C15.9271 25.4084 16.1795 24.9877 16.5968 24.721L19.0088 23.3812C19.3981 23.1613 19.9243 23.142 20.3586 23.3833L21.9026 24.2413L21.9066 21.8751L20.3144 20.9904C19.9284 20.7759 19.4302 20.7484 18.9647 20.9883L14.4256 23.5145C14.0363 23.7345 13.7839 24.1552 13.7526 24.6364L13.749 29.6828C13.7457 30.1172 13.9915 30.5655 14.4257 30.8067L19.0095 33.3538C19.3955 33.5683 19.8936 33.5958 20.3592 33.3559L24.8983 30.8297Z" fill="white"/>
</g>
<defs>
<linearGradient id="paint0_linear_2078_13243" x1="-13.925" y1="8.63047" x2="44.2087" y2="59.262" gradientUnits="userSpaceOnUse">
<stop stop-color="#803CDF"/>
<stop offset="1" stop-color="#A327C2"/>
</linearGradient>
</defs>
</svg>
