<svg width="14" height="14" viewBox="0 0 14 14" fill="none" xmlns="http://www.w3.org/2000/svg">
<path d="M5.99997 0.999958C5.99996 0.631782 6.29845 0.333284 6.66663 0.333298C7.03481 0.333307 7.33329 0.631786 7.3333 0.999963L7.3333 6.33334L12.6666 6.3333C13.0348 6.3333 13.3333 6.63179 13.3333 6.99996C13.3333 7.36812 13.0348 7.66662 12.6666 7.66662L7.3333 7.66666L7.33331 12.9999C7.3333 13.0057 7.33323 13.0114 7.33308 13.0171C7.32394 13.3774 7.02906 13.6666 6.66664 13.6666C6.39049 13.6666 6.15355 13.4987 6.05236 13.2594C6.01862 13.1797 5.99996 13.092 5.99998 13L5.99998 7.66666L0.666665 7.66664C0.298475 7.66665 -4.70634e-06 7.36817 0 6.99998C-4.70634e-06 6.63179 0.298474 6.33331 0.666665 6.33331L5.99993 6.3333L5.99997 0.999958Z" fill="#B0E822"/>
</svg>
