<svg width="25" height="24" viewBox="0 0 25 24" fill="none" xmlns="http://www.w3.org/2000/svg">
<path d="M9.85826 11.1192C10.2021 10.7754 10.7597 10.7754 11.1036 11.1192L12.5 12.5157L13.8965 11.1192C14.2403 10.7754 14.7979 10.7754 15.1418 11.1192C15.4857 11.4631 15.4857 12.0207 15.1418 12.3646L13.7454 13.761L15.1418 15.1574C15.4857 15.5013 15.4857 16.0589 15.1418 16.4028C14.7979 16.7466 14.2403 16.7466 13.8965 16.4028L12.5 15.0063L11.1036 16.4028C10.7597 16.7466 10.2022 16.7466 9.85826 16.4028C9.51437 16.0589 9.51437 15.5013 9.85826 15.1574L11.2547 13.761L9.85826 12.3646C9.51437 12.0207 9.51437 11.4631 9.85826 11.1192Z" fill="#DD3333"/>
<path fill-rule="evenodd" clip-rule="evenodd" d="M9.85823 2.75391C8.88555 2.75391 8.09705 3.54242 8.09705 4.51509V6.27627H4.57468C4.08835 6.27627 3.69409 6.67052 3.69409 7.15686C3.69409 7.6432 4.08835 8.03745 4.57468 8.03745H5.55887L6.23835 19.5885C6.29311 20.5195 7.06399 21.2463 7.99649 21.2463H17.0035C17.936 21.2463 18.7069 20.5195 18.7616 19.5885L19.4412 8.03745H20.4253C20.9117 8.03745 21.3059 7.6432 21.3059 7.15686C21.3059 6.67052 20.9117 6.27627 20.4253 6.27627H16.903V4.51509C16.903 3.54242 16.1145 2.75391 15.1418 2.75391H9.85823ZM15.1418 6.27627V4.51509H9.85823V6.27627H15.1418ZM17.6769 8.03745H7.3231L7.99649 19.4852H17.0035L17.6769 8.03745Z" fill="#DD3333"/>
</svg>
