<svg width="70" height="70" viewBox="0 0 70 70" fill="none" xmlns="http://www.w3.org/2000/svg">
<g id="Frame 352">
<g id="Ellipse 27" filter="url(#filter0_f_2445_17105)">
<circle cx="35" cy="35" r="12" fill="#FFA901"/>
</g>
<g id="Group">
<path id="Vector" fill-rule="evenodd" clip-rule="evenodd" d="M30.5458 47.0757L30.5504 47.7802L32.0569 48.5316L32.0615 49.4005L35.7523 51.2603L38.9714 51.2556L41.1602 50.1237L41.3571 49.5273L49.2195 45.5211L50.5245 45.4225L51.4999 44.9576L53.3819 43.8257L53.8444 30.666L53.7757 30.1776L16.2727 28.2285L16.1078 28.6418L16.5978 41.5995L20.4763 43.6519L21.8409 43.5392L24.048 44.6382L24.8585 44.2484L30.5458 47.0757Z" fill="#778691"/>
<path id="Vector_2" fill-rule="evenodd" clip-rule="evenodd" d="M32.0615 49.4014L36.5215 51.7355L38.3074 51.7308L41.0961 50.1575L32.0615 49.4014Z" fill="#434654"/>
<path id="Vector_3" fill-rule="evenodd" clip-rule="evenodd" d="M21.1311 43.0986L21.8409 43.5401L24.048 44.6391L22.8666 43.9628L21.1311 43.0986Z" fill="#56646D"/>
<path id="Vector_4" fill-rule="evenodd" clip-rule="evenodd" d="M21.131 43.0986L19.739 43.1832L20.4762 43.6528L21.8408 43.5401L21.131 43.0986Z" fill="url(#paint0_radial_2445_17105)"/>
<path id="Vector_5" fill-rule="evenodd" clip-rule="evenodd" d="M16.5978 41.5996L20.4763 43.652L19.7391 43.1823L16.5978 41.5996Z" fill="#56646D"/>
<path id="Vector_6" fill-rule="evenodd" clip-rule="evenodd" d="M19.739 43.1823L19.3635 30.1401L20.7418 30.0273L21.1311 43.0978L19.739 43.1823Z" fill="url(#paint1_radial_2445_17105)"/>
<path id="Vector_7" fill-rule="evenodd" clip-rule="evenodd" d="M19.3636 30.1408L16.1078 28.6426L16.5978 41.6003L19.7391 43.1877L19.3636 30.1455V30.1408ZM35.7523 51.2658L32.0615 49.4012L32.0294 35.7719L35.7523 37.4392V51.2658Z" fill="url(#paint2_radial_2445_17105)"/>
<path id="Vector_8" fill-rule="evenodd" clip-rule="evenodd" d="M22.7155 37.0967L22.8666 43.963L24.048 44.6393L24.8585 44.2495L23.4161 43.5356L23.2604 37.355L22.7155 37.0967Z" fill="url(#paint3_radial_2445_17105)"/>
<path id="Vector_9" fill-rule="evenodd" clip-rule="evenodd" d="M23.2604 37.3545L23.4161 43.5351L30.5458 47.0763L30.4816 40.7454L23.2604 37.3545Z" fill="url(#paint4_radial_2445_17105)"/>
<path id="Vector_10" fill-rule="evenodd" clip-rule="evenodd" d="M16.2727 28.2285L16.1078 28.6418L19.3636 30.14L20.7419 30.0273L32.0249 35.0244L32.0294 35.7711L35.7523 37.4337V36.6776L32.0249 34.4279L20.7373 29.4825L16.2727 28.2285Z" fill="url(#paint5_radial_2445_17105)"/>
<path id="Vector_11" fill-rule="evenodd" clip-rule="evenodd" d="M32.0248 35.0245L20.7419 30.0273L21.1311 43.0978L22.8666 43.962L22.7155 37.0956L30.4817 40.7448L30.5504 47.7802L32.0569 48.5317L32.0248 35.0245Z" fill="url(#paint6_radial_2445_17105)"/>
<path id="Vector_12" fill-rule="evenodd" clip-rule="evenodd" d="M35.7522 51.2606L36.5215 51.7349L38.3073 51.7302L38.9713 51.2559L35.7522 51.2606Z" fill="url(#paint7_radial_2445_17105)"/>
<path id="Vector_13" fill-rule="evenodd" clip-rule="evenodd" d="M35.7522 37.4342L38.9805 37.4014L38.9713 51.2561L35.7522 51.2608V37.4342Z" fill="url(#paint8_radial_2445_17105)"/>
<path id="Vector_14" opacity="0.75" fill-rule="evenodd" clip-rule="evenodd" d="M36.5765 38.693V49.9929C36.5765 50.1103 36.6177 50.2089 36.7001 50.2934C36.7825 50.378 36.8787 50.4156 36.9932 50.4156H37.735C37.9594 50.4156 38.1471 50.223 38.1471 49.9929L38.1563 38.6883C38.1563 38.5709 38.1151 38.4723 38.0326 38.3877C37.9502 38.3032 37.854 38.2656 37.7396 38.2656L36.984 38.275C36.7596 38.275 36.5765 38.4676 36.5765 38.6977V38.693Z" fill="url(#paint9_radial_2445_17105)"/>
<path id="Vector_15" fill-rule="evenodd" clip-rule="evenodd" d="M41.5311 35.7109L41.2792 36.3638L41.1602 50.1246L41.3571 49.5281L41.5311 35.7109Z" fill="url(#paint10_radial_2445_17105)"/>
<path id="Vector_16" fill-rule="evenodd" clip-rule="evenodd" d="M50.4191 31.6951L51.8066 31.5918L51.3945 44.8454L50.0482 44.9299L50.4191 31.6951Z" fill="url(#paint11_radial_2445_17105)"/>
<path id="Vector_17" fill-rule="evenodd" clip-rule="evenodd" d="M38.9805 37.4008L41.2792 36.3582L41.1601 50.1237L38.9667 51.2556L38.9759 37.4055L38.9805 37.4008ZM51.3945 44.8448L53.3818 43.821L53.8443 30.666L51.8066 31.5865L51.3945 44.8448Z" fill="url(#paint12_radial_2445_17105)"/>
<path id="Vector_18" fill-rule="evenodd" clip-rule="evenodd" d="M50.0482 44.9302L49.2194 45.522L50.5244 45.4234L51.3944 44.8457L50.0482 44.9302Z" fill="#565C6D"/>
<path id="Vector_19" fill-rule="evenodd" clip-rule="evenodd" d="M51.3944 44.8453L50.5244 45.423L51.4997 44.958L53.3817 43.8262L51.3944 44.8453Z" fill="#434654"/>
<path id="Vector_20" fill-rule="evenodd" clip-rule="evenodd" d="M41.3571 49.5276L49.2194 45.5261L50.0482 44.9297L41.3616 49.3491V49.5276H41.3571Z" fill="#434654"/>
<path id="Vector_21" fill-rule="evenodd" clip-rule="evenodd" d="M41.3616 49.3486L41.5311 35.7099L50.4191 31.6943L50.0482 44.9245L41.3616 49.3486Z" fill="url(#paint13_radial_2445_17105)"/>
<path id="Vector_22" fill-rule="evenodd" clip-rule="evenodd" d="M35.7522 37.4339L38.9805 37.401L41.2792 36.3631L41.531 35.7102L50.4191 31.6947L51.8066 31.5914L53.8443 30.6662L53.7756 30.1777L50.3367 30.854L35.7522 36.8562V37.4339Z" fill="url(#paint14_radial_2445_17105)"/>
<path id="Vector_23" fill-rule="evenodd" clip-rule="evenodd" d="M35.8484 18.8682L37.3137 19.8497V20.1597L35.5782 19.3754L35.8484 18.8682Z" fill="url(#paint15_radial_2445_17105)"/>
<path id="Vector_24" fill-rule="evenodd" clip-rule="evenodd" d="M17.6509 23.1104L16.3 24.1154L15.9795 25.252L16.0894 28.145L19.3635 29.5963L20.7372 29.4835L32.0247 34.429V35.2086L35.7521 36.8571H39.0033L41.2837 35.8239L41.5584 35.1757L50.3091 31.2447L51.7516 31.0945L53.7755 30.1786L53.9037 29.9297L53.9953 27.201L53.8671 25.9799L52.4796 25.0031L17.6509 23.1104Z" fill="#60571E"/>
<path id="Vector_25" fill-rule="evenodd" clip-rule="evenodd" d="M38.8385 21.2404L38.8431 21.0666L37.909 20.2354L23.6084 25.627L22.4774 27.3412L22.5094 28.3604L30.3809 31.7606L30.3672 31.3004L23.0314 28.1584L23.0223 27.3318L23.8465 26.0731L37.7075 20.8083L38.8385 21.2404Z" fill="url(#paint16_radial_2445_17105)"/>
<path id="Vector_26" fill-rule="evenodd" clip-rule="evenodd" d="M22.5093 28.3602L23.0314 28.1582L30.3671 31.3002L30.3808 31.7604L22.5093 28.3602Z" fill="url(#paint17_radial_2445_17105)"/>
<path id="Vector_27" fill-rule="evenodd" clip-rule="evenodd" d="M23.0223 27.332L23.0314 28.1586L30.6419 31.418L30.619 30.582L23.0223 27.332Z" fill="url(#paint18_radial_2445_17105)"/>
<path id="Vector_28" fill-rule="evenodd" clip-rule="evenodd" d="M30.619 30.5819L31.425 29.2575L23.8465 26.0732L23.0223 27.3319L30.619 30.5819Z" fill="url(#paint19_radial_2445_17105)"/>
<path id="Vector_29" fill-rule="evenodd" clip-rule="evenodd" d="M23.8464 26.0734L31.4249 29.2577L45.2538 23.697L37.7074 20.8086L23.8464 26.0734Z" fill="url(#paint20_radial_2445_17105)"/>
<path id="Vector_30" fill-rule="evenodd" clip-rule="evenodd" d="M31.5073 28.9147L34.0166 29.9574L33.7785 30.6196L36.4756 31.7561H38.3302L39.9008 31.0845L40.1618 30.4787L49.9337 26.3363L51.2066 26.2706L52.5025 25.7211L52.4842 25.0072L49.7367 23.9928L48.3218 24.0914L45.817 23.1662L31.5119 28.9194L31.5073 28.9147ZM19.2032 22.5556L17.6509 23.1145L17.4998 23.7767L19.8855 24.7818L21.3096 24.6738L23.6129 25.6319L37.9089 20.2449L35.5781 19.3855L35.8483 18.8783L33.4671 18L31.8507 18.0094L30.4358 18.5166L29.6619 19.1788L20.5311 22.4899L19.1986 22.565L19.2032 22.5556Z" fill="url(#paint21_radial_2445_17105)"/>
<path id="Vector_31" fill-rule="evenodd" clip-rule="evenodd" d="M19.8809 24.777L21.3096 24.6689L20.664 26.5616L19.2673 26.6697L19.8809 24.777Z" fill="url(#paint22_radial_2445_17105)"/>
<path id="Vector_32" fill-rule="evenodd" clip-rule="evenodd" d="M15.9795 25.252L17.4952 23.7726L17.6509 23.1104L16.3 24.1154L15.9795 25.252Z" fill="url(#paint23_radial_2445_17105)"/>
<path id="Vector_33" fill-rule="evenodd" clip-rule="evenodd" d="M41.5723 32.0939L50.5245 28.2005L49.9338 26.3359L40.1619 30.4783L41.5723 32.0939Z" fill="url(#paint24_radial_2445_17105)"/>
<path id="Vector_34" fill-rule="evenodd" clip-rule="evenodd" d="M51.2067 26.2705L51.9577 28.0881L50.5244 28.2008L49.9337 26.3363L51.2067 26.2705Z" fill="url(#paint25_radial_2445_17105)"/>
<g id="Vector_35" style="mix-blend-mode:multiply" opacity="0.35">
<path fill-rule="evenodd" clip-rule="evenodd" d="M27.029 21.9539L28.3477 21.9351L30.1977 21.1977V20.7704L27.5143 19.7324L24.2906 20.8784L27.029 21.9539Z" fill="#5D6C8C"/>
</g>
<path id="Vector_36" fill-rule="evenodd" clip-rule="evenodd" d="M51.2067 26.2702L52.5026 25.7207L54 27.2048L51.9669 28.0925L51.2113 26.2749L51.2067 26.2702ZM38.3303 31.7557L39.9009 31.0841L41.3067 32.7326L39.008 33.733L38.3257 31.751L38.3303 31.7557Z" fill="url(#paint26_radial_2445_17105)"/>
<path id="Vector_37" fill-rule="evenodd" clip-rule="evenodd" d="M52.498 25.7168L53.9954 27.2009L53.8671 25.9798L52.4797 25.0029L52.498 25.7168Z" fill="url(#paint27_radial_2445_17105)"/>
<path id="Vector_38" fill-rule="evenodd" clip-rule="evenodd" d="M29.5108 20.5038V21.4759L27.6609 22.2133L26.3421 22.2321L23.8465 21.2787L22.3995 21.8L23.6084 20.6118L26.8275 19.4658L29.5108 20.5038Z" fill="#383F49"/>
<path id="Vector_39" fill-rule="evenodd" clip-rule="evenodd" d="M26.3421 22.2314V21.6913L23.59 20.6064L22.3995 21.7994L23.8465 21.278L26.3421 22.2314Z" fill="url(#paint28_radial_2445_17105)"/>
<path id="Vector_40" fill-rule="evenodd" clip-rule="evenodd" d="M27.6609 22.213V21.6682L29.5108 20.9355V21.4756L27.6609 22.213Z" fill="url(#paint29_radial_2445_17105)"/>
<path id="Vector_41" fill-rule="evenodd" clip-rule="evenodd" d="M27.661 22.2128L26.3422 22.2316V21.6915L27.661 21.668V22.2128Z" fill="url(#paint30_radial_2445_17105)"/>
<path id="Vector_42" fill-rule="evenodd" clip-rule="evenodd" d="M26.3421 21.692L27.6609 21.6685L29.5109 20.9358V20.5038L26.8275 19.4658L23.6084 20.6118L26.3421 21.692Z" fill="url(#paint31_radial_2445_17105)"/>
<path id="Vector_43" fill-rule="evenodd" clip-rule="evenodd" d="M35.7477 33.7665L35.7523 36.8568H39.0034L39.0126 33.7383L35.7477 33.7665Z" fill="url(#paint32_radial_2445_17105)"/>
<path id="Vector_44" fill-rule="evenodd" clip-rule="evenodd" d="M41.5722 32.0947L41.5585 35.1756L41.2838 35.8238L41.3112 32.7335L41.5722 32.0947Z" fill="url(#paint33_radial_2445_17105)"/>
<path id="Vector_45" fill-rule="evenodd" clip-rule="evenodd" d="M50.5244 28.2006L50.3092 31.244L51.7516 31.0937L51.9577 28.0879L50.5244 28.2006Z" fill="url(#paint34_radial_2445_17105)"/>
<path id="Vector_46" fill-rule="evenodd" clip-rule="evenodd" d="M51.9577 28.0886L51.7517 31.0944L53.7757 30.1786L53.8993 29.9297L53.9909 27.1963L51.9577 28.0839V28.0886ZM39.008 33.7386L41.3067 32.7382L41.2792 35.8285L38.9988 36.8571L39.008 33.7386Z" fill="url(#paint35_radial_2445_17105)"/>
<path id="Vector_47" fill-rule="evenodd" clip-rule="evenodd" d="M41.5723 32.0936L50.5244 28.2002L50.3092 31.2435L41.5585 35.1745L41.5723 32.0936Z" fill="url(#paint36_radial_2445_17105)"/>
<path id="Vector_48" fill-rule="evenodd" clip-rule="evenodd" d="M19.2673 26.6695L19.3635 29.5955L20.7372 29.4828L20.664 26.5615L19.2673 26.6695Z" fill="url(#paint37_radial_2445_17105)"/>
<path id="Vector_49" fill-rule="evenodd" clip-rule="evenodd" d="M22.4774 27.3411L20.6641 26.5615L20.7373 29.4828L32.0249 34.4282L32.2904 31.5398L30.3535 30.7086L30.381 31.7606L22.5094 28.3603L22.4774 27.3411Z" fill="url(#paint38_radial_2445_17105)"/>
<path id="Vector_50" fill-rule="evenodd" clip-rule="evenodd" d="M32.0339 32.1652L32.0248 35.2039L35.7476 36.8524V33.7621L32.0339 32.1605V32.1652ZM19.3635 29.5962L19.2674 26.6703L15.975 25.252L16.0849 28.145L19.3635 29.5962Z" fill="url(#paint39_radial_2445_17105)"/>
<path id="Vector_51" fill-rule="evenodd" clip-rule="evenodd" d="M34.0167 29.957L32.2904 31.5398L32.0339 32.1644L33.7786 30.6192L34.0167 29.957Z" fill="url(#paint40_radial_2445_17105)"/>
<path id="Vector_52" fill-rule="evenodd" clip-rule="evenodd" d="M32.2904 31.54L30.3488 30.7087L31.5028 28.9146L34.0121 29.9572L32.2858 31.54H32.2904ZM20.664 26.5663L22.4773 27.3413L23.6084 25.627L21.3051 24.6689L20.6594 26.5663H20.664Z" fill="url(#paint41_radial_2445_17105)"/>
<path id="Vector_53" fill-rule="evenodd" clip-rule="evenodd" d="M32.0339 32.1642L35.7476 33.7657L36.4711 31.7556L33.774 30.619L32.0339 32.1642ZM17.4952 23.7715L15.975 25.2509L19.2674 26.6692L19.881 24.7765L17.4952 23.7715Z" fill="url(#paint42_radial_2445_17105)"/>
<path id="Vector_54" fill-rule="evenodd" clip-rule="evenodd" d="M35.7477 33.766L39.0126 33.7378L38.3303 31.7559H36.4758L35.7477 33.766Z" fill="url(#paint43_radial_2445_17105)"/>
<path id="Vector_55" fill-rule="evenodd" clip-rule="evenodd" d="M39.9055 31.0844L40.162 30.4785L41.5723 32.0941L41.3113 32.7329L39.9055 31.0844Z" fill="url(#paint44_radial_2445_17105)"/>
<path id="Vector_56" fill-rule="evenodd" clip-rule="evenodd" d="M47.0534 35.1227L47.5434 35.32C47.3236 35.1791 47.1084 35.0335 46.8886 34.8926C46.852 34.9114 46.8107 34.9255 46.7741 34.9442C46.8657 35.0053 46.9573 35.0663 47.0534 35.1274V35.1227Z" fill="#49575E"/>
<path id="Vector_57" fill-rule="evenodd" clip-rule="evenodd" d="M47.5479 35.3164L47.058 35.1191C47.0305 36.622 46.9985 38.1249 46.971 39.6278C46.9435 41.1307 46.9114 42.6336 46.884 44.1365L47.3739 44.329C47.4014 42.8261 47.4335 41.3233 47.4609 39.8204C47.4884 38.3175 47.5205 36.8146 47.5479 35.3117V35.3164Z" fill="url(#paint45_radial_2445_17105)"/>
<path id="Vector_58" fill-rule="evenodd" clip-rule="evenodd" d="M46.8794 44.1367C46.6505 44.4937 46.4261 44.8506 46.1971 45.2028L46.6871 45.4001C46.9115 45.0432 47.1404 44.6862 47.3694 44.334L46.8794 44.1414V44.1367Z" fill="url(#paint46_radial_2445_17105)"/>
<path id="Vector_59" fill-rule="evenodd" clip-rule="evenodd" d="M46.6917 45.3994L46.2017 45.2021C45.8949 45.3571 45.5927 45.5121 45.2859 45.6671C45.0112 45.808 44.741 45.9489 44.4662 46.0851C44.599 46.1649 44.7318 46.2495 44.8646 46.3293C45.1714 46.1743 45.4737 46.0193 45.7805 45.8644C46.0827 45.7094 46.3895 45.5544 46.6963 45.3994H46.6917Z" fill="url(#paint47_radial_2445_17105)"/>
<path id="Vector_60" fill-rule="evenodd" clip-rule="evenodd" d="M44.2877 41.3463C44.2602 42.8727 44.2327 44.4038 44.2053 45.9301C44.2923 45.9818 44.3747 46.0335 44.4617 46.0851C44.7364 45.9442 45.0066 45.808 45.2813 45.6671C45.5882 45.5121 45.8904 45.3571 46.1972 45.2022C46.4261 44.8452 46.6505 44.4883 46.8795 44.1361C46.9069 42.6332 46.939 41.1303 46.9665 39.6274C46.9939 38.1245 47.026 36.6216 47.0535 35.1187C46.9619 35.0577 46.8703 34.9966 46.7741 34.9355C46.504 35.0577 46.2384 35.1751 45.9682 35.2972C45.6614 35.4334 45.3546 35.5743 45.0478 35.7105C44.8189 36.058 44.5945 36.4056 44.3655 36.7531C44.3381 38.2842 44.3106 39.8105 44.2831 41.3369L44.2877 41.3463Z" fill="url(#paint48_radial_2445_17105)"/>
<path id="Vector_61" fill-rule="evenodd" clip-rule="evenodd" d="M24.1671 39.613C25.1333 40.078 26.104 40.5383 27.0702 41.0032C28.0364 41.4635 29.0072 41.9284 29.9734 42.3887C30.0787 42.4403 30.1703 42.5953 30.1703 42.7315C30.1703 42.8677 30.0879 42.9382 29.978 42.8912C29.0118 42.4263 28.041 41.9613 27.0794 41.4963C26.1132 41.0314 25.147 40.5664 24.1808 40.1015C24.0755 40.0498 23.9839 39.8995 23.9839 39.7633C23.9839 39.6271 24.0663 39.5614 24.1716 39.6083L24.1671 39.613ZM24.19 40.6134C25.1562 41.0784 26.1223 41.548 27.0885 42.013C28.0547 42.4779 29.0209 42.9429 29.9871 43.4078C30.0924 43.4595 30.1794 43.6145 30.184 43.7507C30.184 43.8869 30.1016 43.9573 29.9917 43.9057C29.0255 43.436 28.0593 42.9711 27.0977 42.5014C26.1315 42.0317 25.1699 41.5668 24.2037 41.0971C24.0984 41.0455 24.0068 40.8952 24.0068 40.759C24.0068 40.6228 24.0892 40.557 24.1945 40.604L24.19 40.6134ZM24.2129 41.6138C25.179 42.0834 26.1407 42.5531 27.1023 43.0227C28.0639 43.4924 29.0301 43.962 29.9963 44.4317C30.1016 44.4833 30.1886 44.6383 30.1932 44.7792C30.1932 44.9154 30.1108 44.9859 30.0054 44.9342C29.0438 44.4646 28.0776 43.9902 27.116 43.5205C26.1544 43.0509 25.1882 42.5812 24.2266 42.1069C24.1213 42.0552 24.0297 41.9002 24.0297 41.7687C24.0297 41.6325 24.1121 41.5668 24.2174 41.6185L24.2129 41.6138ZM24.1442 38.6127C25.1149 39.0729 26.0857 39.5332 27.0519 39.9935C28.0227 40.4537 28.9889 40.914 29.9596 41.3695C30.065 41.4212 30.152 41.5762 30.1565 41.7124C30.1565 41.8486 30.0741 41.9237 29.9642 41.8721C28.9935 41.4118 28.0273 40.9469 27.0565 40.4866C26.0903 40.0263 25.1195 39.5661 24.1487 39.1058C24.0434 39.0541 23.9518 38.9039 23.9473 38.7677C23.9473 38.6315 24.0297 38.561 24.135 38.6127H24.1442ZM24.2358 42.6188C25.1974 43.0885 26.159 43.5628 27.1206 44.0372C28.0822 44.5115 29.0438 44.9812 30.0054 45.4555C30.1108 45.5072 30.1978 45.6622 30.2023 45.8031C30.2023 45.9393 30.1199 46.0097 30.0146 45.958C29.053 45.4837 28.0914 45.0093 27.1298 44.535C26.1681 44.0606 25.2065 43.5863 24.2449 43.112C24.1396 43.0603 24.048 42.9053 24.048 42.7691C24.048 42.6329 24.1304 42.5672 24.2358 42.6188Z" fill="url(#paint49_radial_2445_17105)"/>
<path id="Vector_62" fill-rule="evenodd" clip-rule="evenodd" d="M24.1578 39.1061C25.1286 39.5664 26.0948 40.0266 27.0655 40.4869C28.0317 40.9471 29.0025 41.4121 29.9733 41.8724C30.0694 41.9193 30.1519 41.8583 30.161 41.7408C30.1427 41.7408 30.1198 41.7362 30.1015 41.7268C29.1307 41.2665 28.1645 40.8015 27.1938 40.3413C26.2276 39.881 25.2568 39.4208 24.286 38.9605C24.1807 38.9088 24.0891 38.7586 24.0845 38.6224C24.0845 38.613 24.0845 38.6083 24.0845 38.5989C24.0067 38.5942 23.9517 38.6599 23.9563 38.7679C23.9563 38.9041 24.0479 39.0544 24.1578 39.1061Z" fill="url(#paint50_linear_2445_17105)"/>
<path id="Vector_63" fill-rule="evenodd" clip-rule="evenodd" d="M27.2121 41.3509C26.2459 40.8859 25.2797 40.421 24.3135 39.956C24.2082 39.9043 24.1166 39.7541 24.1166 39.6179C24.0387 39.5897 23.9838 39.6554 23.9884 39.7634C23.9884 39.8996 24.08 40.0499 24.1853 40.1016C25.1515 40.5666 26.1177 41.0315 27.0838 41.4965C28.05 41.9614 29.0162 42.4264 29.9824 42.8913C30.0832 42.9383 30.161 42.8819 30.1702 42.7598C30.1519 42.7598 30.129 42.7551 30.1106 42.7457C29.1444 42.2808 28.1737 41.8158 27.2121 41.3509Z" fill="url(#paint51_linear_2445_17105)"/>
<path id="Vector_64" fill-rule="evenodd" clip-rule="evenodd" d="M24.3318 40.957C24.2265 40.9053 24.1349 40.755 24.1349 40.6188C24.057 40.5907 24.0021 40.6564 24.0067 40.7644C24.0067 40.9006 24.0983 41.0509 24.2036 41.1026C25.1698 41.5722 26.136 42.0372 27.0976 42.5068C28.0638 42.9718 29.03 43.4414 29.9916 43.9111C30.0923 43.9581 30.1702 43.9017 30.1793 43.7796C30.161 43.7796 30.1381 43.7749 30.1198 43.7655C29.1536 43.2959 28.1874 42.8309 27.2258 42.3612C26.2596 41.8916 25.298 41.4266 24.3318 40.957Z" fill="url(#paint52_linear_2445_17105)"/>
<path id="Vector_65" fill-rule="evenodd" clip-rule="evenodd" d="M24.3547 41.9619C24.2494 41.9102 24.1578 41.7552 24.1578 41.6237C24.0799 41.5955 24.025 41.6613 24.0296 41.7693C24.0296 41.9055 24.1211 42.0558 24.2265 42.1075C25.1881 42.5771 26.1543 43.0515 27.1159 43.5211C28.0775 43.9908 29.0437 44.4604 30.0053 44.9348C30.1061 44.9817 30.1839 44.9254 30.1931 44.8033C30.1747 44.8033 30.1564 44.7986 30.1335 44.7845C29.1719 44.3148 28.2057 43.8405 27.2441 43.3708C26.2825 42.9012 25.3163 42.4315 24.3547 41.9572V41.9619Z" fill="url(#paint53_linear_2445_17105)"/>
<path id="Vector_66" fill-rule="evenodd" clip-rule="evenodd" d="M24.1807 42.6005C24.1029 42.5911 24.0479 42.6569 24.0525 42.7696C24.0525 42.9058 24.1441 43.0608 24.2494 43.1124C25.211 43.5868 26.1726 44.0611 27.1343 44.5355C28.0959 45.0098 29.0575 45.4842 30.0191 45.9585C30.1198 46.0055 30.1977 45.9491 30.2068 45.827C30.1885 45.827 30.1702 45.8223 30.1473 45.8082C29.1857 45.3339 28.2241 44.8595 27.2625 44.3852C26.3009 43.9108 25.3392 43.4365 24.3776 42.9621C24.2723 42.9105 24.1807 42.7555 24.1807 42.6193V42.6005Z" fill="url(#paint54_linear_2445_17105)"/>
<path id="Vector_67" style="mix-blend-mode:screen" fill-rule="evenodd" clip-rule="evenodd" d="M22.688 27.022L23.4161 25.6835L21.7676 24.8569L23.6222 25.5003L31.9608 22.4805L23.6909 25.707L22.688 27.022Z" fill="url(#paint55_radial_2445_17105)"/>
<path id="Vector_68" style="mix-blend-mode:screen" fill-rule="evenodd" clip-rule="evenodd" d="M30.7426 30.1032L31.5989 29.07L33.6687 29.812L31.7912 28.9291L36.7687 26.7969L31.5073 28.915L30.7426 30.1032Z" fill="url(#paint56_radial_2445_17105)"/>
<g id="Vector_69" style="mix-blend-mode:multiply" opacity="0.35">
<path fill-rule="evenodd" clip-rule="evenodd" d="M44.5212 31.0562L44.5166 32.8315L45.1027 33.2965L46.8932 32.5356L47.6533 31.4367L47.7082 29.6426L44.5212 31.0562Z" fill="#5D6C8C"/>
</g>
<path id="Vector_70" fill-rule="evenodd" clip-rule="evenodd" d="M43.761 26.0123L42.401 26.0029L40.5694 26.7591V27.905L43.4817 29.0557L44.5212 30.8122L44.5166 32.3479L45.1989 32.8411L45.6888 33.0477L47.4793 32.2869L48.2394 31.1879L48.2944 29.3938L46.9069 27.224L43.761 26.0123Z" fill="#383F49"/>
<path id="Vector_71" fill-rule="evenodd" clip-rule="evenodd" d="M40.5694 27.2992L43.7198 28.5438L46.9069 27.224L43.761 26.0123L42.401 26.0029L40.5694 26.7591V27.2992Z" fill="url(#paint57_radial_2445_17105)"/>
<path id="Vector_72" fill-rule="evenodd" clip-rule="evenodd" d="M43.7198 28.5434L45.1073 30.8071L48.2944 29.3934L46.9069 27.2236L43.7198 28.5434Z" fill="url(#paint58_radial_2445_17105)"/>
<path id="Vector_73" fill-rule="evenodd" clip-rule="evenodd" d="M45.1073 30.8072L45.1027 32.5825L45.6888 33.0475L47.4793 32.2866L48.2394 31.1876L48.2944 29.3936L45.1073 30.8072Z" fill="url(#paint59_radial_2445_17105)"/>
<path id="Vector_74" fill-rule="evenodd" clip-rule="evenodd" d="M44.5166 32.3476L45.1027 32.5824L45.1073 30.8071L43.7198 28.5434L40.5694 27.2988V27.9047L43.4817 29.0553L44.5212 30.8118L44.5166 32.3476Z" fill="url(#paint60_radial_2445_17105)"/>
<path id="Vector_75" fill-rule="evenodd" clip-rule="evenodd" d="M45.1027 32.5825L44.5166 32.3477L45.1989 32.8408L45.6889 33.0474L45.1027 32.5825Z" fill="url(#paint61_radial_2445_17105)"/>
<path id="Vector_76" style="mix-blend-mode:screen" fill-rule="evenodd" clip-rule="evenodd" d="M17.6327 23.1855L17.4449 23.735L16.1902 25.0454L17.5319 23.8665L18.6126 24.2423L17.5731 23.7303L17.6327 23.1855Z" fill="url(#paint62_radial_2445_17105)"/>
<path id="Vector_77" style="mix-blend-mode:screen" fill-rule="evenodd" clip-rule="evenodd" d="M18.6629 24.2607L19.7756 24.8149L19.5741 25.7214L19.9359 24.8384L20.925 24.6975L19.8855 24.7163L18.6629 24.2607Z" fill="url(#paint63_radial_2445_17105)"/>
<path id="Vector_78" style="mix-blend-mode:screen" fill-rule="evenodd" clip-rule="evenodd" d="M24.2906 20.8789L26.2963 21.7572L26.3421 22.147L26.3879 21.7525L27.0015 21.682L26.3421 21.6444L24.2906 20.8789Z" fill="url(#paint64_radial_2445_17105)"/>
<path id="Vector_79" style="mix-blend-mode:screen" fill-rule="evenodd" clip-rule="evenodd" d="M27.0015 21.6814L27.6518 21.6251L28.8835 21.1836L27.6976 21.7049L27.6609 22.0994L27.6197 21.7002L27.0015 21.6814Z" fill="url(#paint65_radial_2445_17105)"/>
<path id="Vector_80" style="mix-blend-mode:screen" fill-rule="evenodd" clip-rule="evenodd" d="M24.0114 26.1436L30.9762 29.0695C28.9934 28.2946 26.9878 27.5713 25.0233 26.7494C24.6616 26.5991 24.2632 26.3596 24.0068 26.1436H24.0114Z" fill="url(#paint66_radial_2445_17105)"/>
<path id="Vector_81" style="mix-blend-mode:screen" opacity="0.5" fill-rule="evenodd" clip-rule="evenodd" d="M23.1826 27.4023L30.1611 30.3893C28.1784 29.6144 26.1636 28.8348 24.1991 28.0082C23.8374 27.8579 23.439 27.6184 23.1826 27.4023Z" fill="url(#paint67_radial_2445_17105)"/>
<path id="Vector_82" style="mix-blend-mode:screen" fill-rule="evenodd" clip-rule="evenodd" d="M22.6788 28.4307L29.7307 31.4787C27.7479 30.7038 25.6553 29.8584 23.6908 29.0365C23.3291 28.8862 22.9307 28.6467 22.6743 28.4307H22.6788Z" fill="url(#paint68_radial_2445_17105)"/>
<path id="Vector_83" style="mix-blend-mode:screen" fill-rule="evenodd" clip-rule="evenodd" d="M33.9572 30.1172L33.7054 30.5915L32.2812 31.9488L33.8198 30.7512L34.9555 31.1175L33.8977 30.5634L33.9572 30.1172Z" fill="url(#paint69_radial_2445_17105)"/>
<path id="Vector_84" style="mix-blend-mode:screen" fill-rule="evenodd" clip-rule="evenodd" d="M16.5244 28.8359L19.3772 30.0242L20.4533 30.0523L19.4688 30.2214L19.6199 39.0086L19.2536 30.2026L16.5244 28.8359Z" fill="url(#paint70_radial_2445_17105)"/>
<path id="Vector_85" style="mix-blend-mode:screen" fill-rule="evenodd" clip-rule="evenodd" d="M20.9937 30.1396L29.8452 34.0613C27.8624 33.2863 23.9747 31.5674 22.0103 30.7455C21.6485 30.5952 21.2501 30.3557 20.9937 30.1396Z" fill="url(#paint71_radial_2445_17105)"/>
<path id="Vector_86" style="mix-blend-mode:screen" opacity="0.75" fill-rule="evenodd" clip-rule="evenodd" d="M32.3361 35.9082L35.6468 37.5661L35.7521 46.2312L35.8758 37.5661L37.364 37.4205L35.7521 37.3688L32.3361 35.9082Z" fill="url(#paint72_radial_2445_17105)"/>
<path id="Vector_87" style="mix-blend-mode:screen" opacity="0.5" fill-rule="evenodd" clip-rule="evenodd" d="M37.7212 37.4152L38.9667 37.3166L40.0291 36.9268L39.0308 37.4528L38.9759 41.2898L38.8705 37.4575L37.7212 37.4152Z" fill="url(#paint73_radial_2445_17105)"/>
<path id="Vector_88" style="mix-blend-mode:screen" fill-rule="evenodd" clip-rule="evenodd" d="M35.0928 31.1738L36.3338 31.8173L36.0773 32.8552L36.5215 31.8548L37.4053 31.7562L36.4757 31.7045L35.0928 31.1738Z" fill="url(#paint74_radial_2445_17105)"/>
<path id="Vector_89" style="mix-blend-mode:screen" fill-rule="evenodd" clip-rule="evenodd" d="M40.9633 27.459L43.6649 28.6284L44.6769 30.1125L43.8985 28.5862L46.3483 27.459L43.7061 28.403L40.9633 27.459Z" fill="url(#paint75_radial_2445_17105)"/>
<path id="Vector_90" style="mix-blend-mode:screen" fill-rule="evenodd" clip-rule="evenodd" d="M45.0798 46.222L46.5131 45.3296C46.8428 45.0244 47.1038 44.6111 47.1771 44.2541L47.5205 36.627L47.3694 44.334L46.6871 45.4001L45.0798 46.222Z" fill="url(#paint76_radial_2445_17105)"/>
<path id="Vector_91" style="mix-blend-mode:screen" opacity="0.5" fill-rule="evenodd" clip-rule="evenodd" d="M50.0848 26.3268L51.1838 26.2094L52.3102 25.8008L51.2937 26.2892L51.5135 27.0078L51.1563 26.3221L50.0848 26.3268Z" fill="url(#paint77_radial_2445_17105)"/>
<path id="Vector_92" style="mix-blend-mode:screen" opacity="0.5" fill-rule="evenodd" clip-rule="evenodd" d="M51.5547 27.1162L51.8524 28.0273L50.877 28.1729L51.8798 28.1541L51.8066 30.2864L52.0264 28.1025L52.8094 27.7174L51.9806 27.9851L51.5547 27.1162Z" fill="url(#paint78_radial_2445_17105)"/>
<path id="Vector_93" style="mix-blend-mode:screen" opacity="0.5" fill-rule="evenodd" clip-rule="evenodd" d="M36.059 32.9058L35.7018 33.6667L33.3253 32.7227L35.6698 33.8357L35.7522 36.4329L35.8346 33.8545L37.2038 33.7512L35.8438 33.6854L36.059 32.9058Z" fill="url(#paint79_radial_2445_17105)"/>
<path id="Vector_94" style="mix-blend-mode:screen" opacity="0.75" fill-rule="evenodd" clip-rule="evenodd" d="M24.2174 39.257L28.9202 41.3704C28.302 41.0746 27.6838 40.7787 27.0656 40.4875C26.0994 40.0272 25.1287 39.567 24.1579 39.1067C24.0526 39.055 23.961 38.9048 23.9564 38.7686C23.9427 38.9188 23.9564 39.1396 24.2174 39.257ZM27.0794 41.4972C26.1132 41.0323 25.147 40.5673 24.1808 40.1024C24.0755 40.0507 23.9839 39.9004 23.9839 39.7642C23.9701 39.9145 23.9839 40.1352 24.2449 40.2527L28.9339 42.3849C28.3157 42.089 27.6975 41.7931 27.0839 41.4972H27.0794ZM24.0022 40.7646C23.9885 40.9149 24.0022 41.1356 24.2632 41.253L28.9385 43.3993C28.3249 43.1035 27.7067 42.8029 27.0931 42.507C26.1269 42.0373 25.1653 41.5724 24.1991 41.1027C24.0938 41.0511 24.0022 40.9008 24.0022 40.7646ZM27.1114 43.5167C26.1498 43.0471 25.1836 42.5774 24.222 42.1031C24.1167 42.0514 24.0251 41.8964 24.0251 41.7649C24.0114 41.9152 24.0251 42.1313 24.2861 42.2534L28.9522 44.4138C28.3386 44.1132 27.725 43.8126 27.116 43.5167H27.1114ZM27.1297 44.5265C26.1681 44.0522 25.2065 43.5778 24.2449 43.1035C24.1396 43.0518 24.048 42.8968 24.048 42.7606C24.0343 42.9109 24.048 43.1269 24.309 43.249L28.9614 45.4282C28.3524 45.1277 27.7388 44.8271 27.1297 44.5265Z" fill="url(#paint80_radial_2445_17105)"/>
<path id="Vector_95" fill-rule="evenodd" clip-rule="evenodd" d="M44.6586 43.7277C44.8784 43.6197 45.1028 43.5069 45.3226 43.3942C45.5424 43.2862 45.7667 43.1735 45.9865 43.0608C46.1102 42.9997 46.2155 42.8119 46.2155 42.6475C46.2155 42.4784 46.1193 42.3939 45.9957 42.4549C45.7759 42.5629 45.5515 42.6757 45.3317 42.7837C45.1119 42.8917 44.8875 43.0044 44.6678 43.1124C44.5441 43.1735 44.4388 43.3614 44.4342 43.5304C44.4342 43.6995 44.5304 43.784 44.654 43.723L44.6586 43.7277ZM44.6815 42.3704C44.9013 42.2624 45.1257 42.1543 45.3455 42.0463C45.5653 41.9383 45.7896 41.8303 46.0094 41.7223C46.1331 41.6612 46.2384 41.478 46.243 41.309C46.243 41.1446 46.1468 41.0554 46.0232 41.1164C45.8034 41.2244 45.579 41.3325 45.3592 41.4405C45.1394 41.5485 44.915 41.6565 44.6952 41.7645C44.5716 41.8256 44.4663 42.0088 44.4617 42.1778C44.4617 42.3469 44.5579 42.4314 44.6815 42.3704ZM44.7044 41.0178C44.9242 40.9098 45.1486 40.8017 45.3684 40.6984C45.5882 40.5904 45.8125 40.4824 46.0323 40.3791C46.156 40.318 46.2613 40.1348 46.2613 39.9705C46.2613 39.8014 46.1651 39.7168 46.0415 39.7779C45.8171 39.8859 45.5973 39.9939 45.3729 40.0973C45.1531 40.2053 44.9288 40.3086 44.709 40.4166C44.5853 40.4777 44.48 40.6608 44.4754 40.8299C44.4754 40.999 44.5716 41.0882 44.6952 41.0272L44.7044 41.0178ZM44.7273 39.6605C44.9471 39.5572 45.1715 39.4491 45.3913 39.3458C45.611 39.2425 45.8354 39.1345 46.0598 39.0311C46.1834 38.9748 46.2888 38.7869 46.2933 38.6226C46.2933 38.4535 46.1972 38.3689 46.0735 38.4253C45.8492 38.5286 45.6294 38.6366 45.405 38.74C45.1852 38.8433 44.9608 38.9513 44.7364 39.0546C44.6128 39.111 44.5075 39.2989 44.5029 39.4679C44.5029 39.637 44.5991 39.7262 44.7227 39.6652L44.7273 39.6605ZM44.7502 38.3079C44.9745 38.2046 45.1943 38.1012 45.4187 37.9979C45.6385 37.8946 45.8629 37.7913 46.0873 37.6879C46.2109 37.6316 46.3162 37.4484 46.3208 37.2793C46.3208 37.115 46.2247 37.0257 46.101 37.0821C45.8766 37.1854 45.6568 37.2887 45.4325 37.3921C45.2081 37.4954 44.9883 37.5987 44.7639 37.702C44.6403 37.7584 44.535 37.9416 44.5304 38.1106C44.5304 38.2797 44.6265 38.3689 44.7502 38.3126V38.3079ZM44.6265 45.085C44.8463 44.9723 45.0707 44.8595 45.2905 44.7468C45.5103 44.6341 45.7347 44.5214 45.9545 44.4087C46.0781 44.3476 46.1834 44.1598 46.1834 43.9907C46.1834 43.8263 46.0873 43.7418 45.9636 43.8028C45.7438 43.9155 45.5195 44.0236 45.2997 44.1363C45.0799 44.249 44.8555 44.3617 44.6357 44.4697C44.5121 44.5308 44.4067 44.7186 44.4022 44.8877C44.4022 45.0568 44.4983 45.1413 44.622 45.0803L44.6265 45.085ZM44.7777 36.9506C45.002 36.8473 45.2218 36.7486 45.4462 36.6453C45.6706 36.542 45.8904 36.4387 46.1148 36.3353C46.2384 36.279 46.3437 36.0958 46.3483 35.9314C46.3483 35.7624 46.2521 35.6778 46.1285 35.7342C45.9041 35.8328 45.6843 35.9361 45.4599 36.0395C45.2356 36.1428 45.0158 36.2414 44.7914 36.3447C44.6678 36.4011 44.5624 36.5843 44.5578 36.7533C44.5578 36.9224 44.654 37.0116 44.7777 36.9553V36.9506Z" fill="url(#paint81_radial_2445_17105)"/>
<g id="Group_2">
<path id="Vector_96" fill-rule="evenodd" clip-rule="evenodd" d="M22.6009 31.9727L30.4312 35.4904L30.4678 39.3556L22.6833 35.7909L22.6009 31.9727Z" fill="url(#paint82_radial_2445_17105)"/>
<path id="Vector_97" style="mix-blend-mode:screen" fill-rule="evenodd" clip-rule="evenodd" d="M22.6833 35.791L30.4679 39.3557C28.4851 38.5808 25.6644 37.2188 23.6999 36.3969C23.3382 36.2466 22.9398 36.0071 22.6833 35.791Z" fill="url(#paint83_radial_2445_17105)"/>
<g id="Vector_98" style="mix-blend-mode:screen">
<path fill-rule="evenodd" clip-rule="evenodd" d="M23.2785 34.683L24.0478 35.0306L24.0615 35.5941L23.2922 35.2419L23.2785 34.6783V34.683ZM24.4187 34.3777L25.188 34.7253L25.2109 36.1202L24.4416 35.7679L24.4141 34.373L24.4187 34.3777ZM25.5864 35.566L26.3557 35.9182L26.3694 36.6509L25.6001 36.2986L25.5864 35.566ZM26.7174 34.6501L27.4913 34.9977L27.5233 37.1722L26.7541 36.8199L26.7174 34.6501ZM27.8897 36.0873L28.659 36.4348L28.6727 37.6982L27.9034 37.346L27.8851 36.0826L27.8897 36.0873ZM29.039 36.1155L29.8083 36.463L29.8266 38.2242L29.0574 37.872L29.0345 36.1108L29.039 36.1155Z" fill="#FFFBD7"/>
</g>
<path id="Vector_99" style="mix-blend-mode:multiply" fill-rule="evenodd" clip-rule="evenodd" d="M30.4312 35.4904C28.4484 34.7154 25.6094 33.4568 23.6449 32.6302C23.2832 32.4799 22.8527 32.1887 22.6009 31.9727L30.4312 35.4904Z" fill="url(#paint84_radial_2445_17105)"/>
</g>
<path id="Vector_100" opacity="0.5" fill-rule="evenodd" clip-rule="evenodd" d="M37.7349 50.2459H36.9931C36.8786 50.2459 36.7825 50.2084 36.7 50.1238C36.6176 50.0393 36.581 49.9407 36.581 49.8232V49.9876C36.581 50.105 36.6222 50.2037 36.7 50.2882C36.7825 50.3727 36.8786 50.4103 36.9931 50.4103H37.7349C37.9593 50.4103 38.1471 50.2178 38.1471 49.9876V49.9078V49.8232C38.1471 49.8514 38.1471 49.8796 38.1379 49.9078C38.1013 50.1003 37.9318 50.2459 37.7349 50.2459Z" fill="url(#paint85_radial_2445_17105)"/>
<g id="Group_3">
<path id="Vector_101" fill-rule="evenodd" clip-rule="evenodd" d="M42.1675 23.8325C42.424 23.7996 42.685 23.856 42.7445 23.9546C42.804 24.0533 42.6437 24.1613 42.3827 24.1942C40.7434 24.3961 39.1041 24.5934 37.4693 24.7906C37.2083 24.8188 36.9519 24.7624 36.8924 24.6638C36.8329 24.5652 36.9931 24.4572 37.2541 24.429C38.8935 24.2364 40.5328 24.0392 42.1721 23.8372L42.1675 23.8325ZM36.3795 21.86C36.4574 21.7613 36.7275 21.7003 36.984 21.7238C37.2358 21.7473 37.3778 21.8459 37.2999 21.9492C36.8054 22.5832 36.3108 23.2173 35.8163 23.8607C35.7384 23.9593 35.4683 24.0251 35.2164 24.0016C34.9646 23.9781 34.8226 23.8748 34.9005 23.7762C35.3904 23.1374 35.885 22.4987 36.3841 21.8694L36.3795 21.86ZM26.8183 25.9694C26.5619 25.9976 26.3009 25.9319 26.2368 25.8332C26.1772 25.7299 26.3375 25.6266 26.5985 25.5984C28.2424 25.4293 29.8818 25.2509 31.5257 25.0724C31.7821 25.0442 32.0431 25.1053 32.1026 25.2039C32.1621 25.3025 32.0019 25.4106 31.7409 25.4387C30.097 25.6172 28.4576 25.7957 26.8137 25.9694H26.8183ZM32.6246 28.097C32.5468 28.2003 32.2766 28.266 32.0248 28.2379C31.7729 28.2097 31.631 28.1064 31.7042 27.9983C32.1896 27.3361 32.6842 26.6786 33.1787 26.0258C33.2566 25.9225 33.5267 25.8614 33.7786 25.8849C34.0304 25.9131 34.1724 26.0164 34.0991 26.1197C33.6091 26.7772 33.1146 27.4348 32.6246 28.097Z" fill="#FFA300"/>
<path id="Vector_102" fill-rule="evenodd" clip-rule="evenodd" d="M36.3795 22.0245C36.4574 21.9259 36.7275 21.8649 36.984 21.8883C37.1213 21.9024 37.2221 21.9353 37.277 21.9823C37.2862 21.9729 37.2908 21.9635 37.2999 21.9541C37.3778 21.8555 37.2358 21.7568 36.984 21.7287C36.7275 21.7052 36.4619 21.7662 36.3795 21.8649C35.885 22.4989 35.3904 23.1329 34.8959 23.7716C34.8592 23.8186 34.8684 23.8656 34.9188 23.9032C35.4042 23.2738 35.8895 22.6445 36.3795 22.0245Z" fill="url(#paint86_linear_2445_17105)"/>
<path id="Vector_103" fill-rule="evenodd" clip-rule="evenodd" d="M32.1026 25.2038C32.0431 25.1052 31.7821 25.0441 31.5257 25.0723C29.8818 25.2508 28.2379 25.4246 26.5985 25.5983C26.3421 25.6265 26.1773 25.7298 26.2368 25.8332C26.2459 25.8472 26.2551 25.8566 26.2688 25.8707C26.3284 25.8191 26.4474 25.7768 26.594 25.7627C28.2379 25.5936 29.8772 25.4152 31.5211 25.2367C31.7455 25.2132 31.9744 25.2555 32.066 25.3306C32.1118 25.2931 32.1255 25.2508 32.0981 25.2038H32.1026Z" fill="url(#paint87_linear_2445_17105)"/>
<path id="Vector_104" fill-rule="evenodd" clip-rule="evenodd" d="M33.7786 25.8855C33.5268 25.8573 33.2566 25.923 33.1788 26.0263C32.6888 26.6839 32.1943 27.3367 31.7043 27.9989C31.6677 28.0459 31.6814 28.0928 31.7226 28.1351C32.2034 27.4823 32.6934 26.8341 33.1788 26.186C33.2566 26.0827 33.5268 26.0217 33.7786 26.0451C33.916 26.0592 34.0213 26.0968 34.0763 26.1438C34.0809 26.1344 34.09 26.125 34.0946 26.1156C34.1724 26.0123 34.0305 25.9089 33.774 25.8808L33.7786 25.8855Z" fill="url(#paint88_linear_2445_17105)"/>
<path id="Vector_105" fill-rule="evenodd" clip-rule="evenodd" d="M37.2495 24.4242C36.9931 24.4524 36.8283 24.5604 36.8878 24.659C36.8969 24.6731 36.9061 24.6825 36.9198 24.6966C36.9794 24.645 37.0984 24.6027 37.245 24.5839C38.0326 24.49 38.8248 24.396 39.6124 24.3021C40.4641 24.1988 41.3158 24.0955 42.1629 23.9921C42.3873 23.964 42.6117 24.0015 42.7033 24.0767C42.7491 24.0391 42.7628 23.9921 42.7353 23.9499C42.6758 23.8512 42.4194 23.7949 42.1584 23.8278C40.9998 23.9687 39.8413 24.1096 38.6828 24.2504C38.202 24.3068 37.7212 24.3632 37.2404 24.4242H37.2495Z" fill="url(#paint89_linear_2445_17105)"/>
</g>
</g>
</g>
<defs>
<filter id="filter0_f_2445_17105" x="0" y="0" width="70" height="70" filterUnits="userSpaceOnUse" color-interpolation-filters="sRGB">
<feFlood flood-opacity="0" result="BackgroundImageFix"/>
<feBlend mode="normal" in="SourceGraphic" in2="BackgroundImageFix" result="shape"/>
<feGaussianBlur stdDeviation="11.5" result="effect1_foregroundBlur_2445_17105"/>
</filter>
<radialGradient id="paint0_radial_2445_17105" cx="0" cy="0" r="1" gradientUnits="userSpaceOnUse" gradientTransform="translate(20.9387 6.91655) scale(0.228956 0.234827)">
<stop stop-color="#989CAD"/>
<stop offset="1" stop-color="#4A4B59"/>
</radialGradient>
<radialGradient id="paint1_radial_2445_17105" cx="0" cy="0" r="1" gradientUnits="userSpaceOnUse" gradientTransform="translate(4.17001 6.91571) scale(22.9643 23.5531)">
<stop stop-color="#BDC8D1"/>
<stop offset="1" stop-color="#717C99"/>
</radialGradient>
<radialGradient id="paint2_radial_2445_17105" cx="0" cy="0" r="1" gradientUnits="userSpaceOnUse" gradientTransform="translate(17.8937 6.91642) scale(0.228956 0.234827)">
<stop stop-color="#F0F8FF"/>
<stop offset="1" stop-color="#B1C5D6"/>
</radialGradient>
<radialGradient id="paint3_radial_2445_17105" cx="0" cy="0" r="1" gradientUnits="userSpaceOnUse" gradientTransform="translate(12.765 6.91677) scale(0.228956 0.234827)">
<stop stop-color="#90A8BD"/>
<stop offset="1" stop-color="#616C8A"/>
</radialGradient>
<radialGradient id="paint4_radial_2445_17105" cx="0" cy="0" r="1" gradientUnits="userSpaceOnUse" gradientTransform="translate(23.8694 6.91627) scale(0.228956 0.234827)">
<stop stop-color="#5A5E6E"/>
<stop offset="1" stop-color="#3E3F4A"/>
</radialGradient>
<radialGradient id="paint5_radial_2445_17105" cx="0" cy="0" r="1" gradientUnits="userSpaceOnUse" gradientTransform="translate(26.9008 6.91565) scale(0.228956 0.234827)">
<stop stop-color="#D0DCE6"/>
<stop offset="1" stop-color="#8A99BD"/>
</radialGradient>
<radialGradient id="paint6_radial_2445_17105" cx="0" cy="0" r="1" gradientUnits="userSpaceOnUse" gradientTransform="translate(12.8566 6.91571) scale(28.7202 29.4566)">
<stop stop-color="#E7F4FF"/>
<stop offset="1" stop-color="#A9BCCC"/>
</radialGradient>
<radialGradient id="paint7_radial_2445_17105" cx="0" cy="0" r="1" gradientUnits="userSpaceOnUse" gradientTransform="translate(37.7166 6.91605) scale(0.228956 0.234826)">
<stop stop-color="#8E9CBC"/>
<stop offset="1" stop-color="#404B68"/>
</radialGradient>
<radialGradient id="paint8_radial_2445_17105" cx="0" cy="0" r="1" gradientUnits="userSpaceOnUse" gradientTransform="translate(19.0247 36.5372) scale(29.6819 30.4429)">
<stop stop-color="#BDC8D1"/>
<stop offset="1" stop-color="#717C99"/>
</radialGradient>
<radialGradient id="paint9_radial_2445_17105" cx="0" cy="0" r="1" gradientUnits="userSpaceOnUse" gradientTransform="translate(50.6893 6.91628) scale(0.228956 0.234827)">
<stop stop-color="#A6B4BF"/>
<stop offset="1" stop-color="#717C99"/>
</radialGradient>
<radialGradient id="paint10_radial_2445_17105" cx="0" cy="0" r="1" gradientUnits="userSpaceOnUse" gradientTransform="translate(63.6573 43.1174) scale(23.3809 23.9805)">
<stop stop-color="#90A8BD"/>
<stop offset="1" stop-color="#616C8A"/>
</radialGradient>
<radialGradient id="paint11_radial_2445_17105" cx="0" cy="0" r="1" gradientUnits="userSpaceOnUse" gradientTransform="translate(63.9367 37.9086) scale(24.2144 24.8353)">
<stop stop-color="#E7F4FF"/>
<stop offset="1" stop-color="#A9BCCC"/>
</radialGradient>
<radialGradient id="paint12_radial_2445_17105" cx="0" cy="0" r="1" gradientUnits="userSpaceOnUse" gradientTransform="translate(25.147 3.877) scale(48.2502 49.4874)">
<stop stop-color="#BDC8D1"/>
<stop offset="1" stop-color="#717C99"/>
</radialGradient>
<radialGradient id="paint13_radial_2445_17105" cx="0" cy="0" r="1" gradientUnits="userSpaceOnUse" gradientTransform="translate(65.2784 43.6188) scale(32.9925 33.8385)">
<stop stop-color="#BDC8D1"/>
<stop offset="1" stop-color="#717C99"/>
</radialGradient>
<radialGradient id="paint14_radial_2445_17105" cx="0" cy="0" r="1" gradientUnits="userSpaceOnUse" gradientTransform="translate(37.1259 6.91581) scale(0.228956 0.234827)">
<stop stop-color="#727D87"/>
<stop offset="1" stop-color="#414D66"/>
</radialGradient>
<radialGradient id="paint15_radial_2445_17105" cx="0" cy="0" r="1" gradientUnits="userSpaceOnUse" gradientTransform="translate(35.1799 15.2143) scale(5.22021 5.35405)">
<stop stop-color="#727D87"/>
<stop offset="1" stop-color="#414D66"/>
</radialGradient>
<radialGradient id="paint16_radial_2445_17105" cx="0" cy="0" r="1" gradientUnits="userSpaceOnUse" gradientTransform="translate(29.9688 31.9203) scale(13.8427 14.1976)">
<stop stop-color="#BDC8D1"/>
<stop offset="1" stop-color="#717C99"/>
</radialGradient>
<radialGradient id="paint17_radial_2445_17105" cx="0" cy="0" r="1" gradientUnits="userSpaceOnUse" gradientTransform="translate(25.5682 32.1127) scale(9.2315 9.46821)">
<stop stop-color="#D0DCE6"/>
<stop offset="1" stop-color="#8A99BD"/>
</radialGradient>
<radialGradient id="paint18_radial_2445_17105" cx="0" cy="0" r="1" gradientUnits="userSpaceOnUse" gradientTransform="translate(28.073 26.4115) scale(10.1565 10.4169)">
<stop stop-color="#5A5E6E"/>
<stop offset="1" stop-color="#3E3F4A"/>
</radialGradient>
<radialGradient id="paint19_radial_2445_17105" cx="0" cy="0" r="1" gradientUnits="userSpaceOnUse" gradientTransform="translate(26.6764 6.91609) scale(0.228956 0.234827)">
<stop stop-color="#AAB3D1"/>
<stop offset="1" stop-color="#6C6D82"/>
</radialGradient>
<radialGradient id="paint20_radial_2445_17105" cx="0" cy="0" r="1" gradientUnits="userSpaceOnUse" gradientTransform="translate(26.2917 6.91625) scale(0.228956 0.234827)">
<stop stop-color="#7A8196"/>
<stop offset="1" stop-color="#535463"/>
</radialGradient>
<radialGradient id="paint21_radial_2445_17105" cx="0" cy="0" r="1" gradientUnits="userSpaceOnUse" gradientTransform="translate(21.8453 25.7728) scale(53.9466 55.3298)">
<stop stop-color="#E7F4FF"/>
<stop offset="1" stop-color="#A9BCCC"/>
</radialGradient>
<radialGradient id="paint22_radial_2445_17105" cx="0" cy="0" r="1" gradientUnits="userSpaceOnUse" gradientTransform="translate(18.4614 24.2932) scale(6.13602 6.29335)">
<stop stop-color="#BDC8D1"/>
<stop offset="1" stop-color="#717C99"/>
</radialGradient>
<radialGradient id="paint23_radial_2445_17105" cx="0" cy="0" r="1" gradientUnits="userSpaceOnUse" gradientTransform="translate(16.8129 6.91671) scale(0.228956 0.234827)">
<stop stop-color="white"/>
<stop offset="1" stop-color="#8999C4"/>
</radialGradient>
<radialGradient id="paint24_radial_2445_17105" cx="0" cy="0" r="1" gradientUnits="userSpaceOnUse" gradientTransform="translate(38.4768 6.91578) scale(16.3658 16.7854)">
<stop stop-color="#BDC8D1"/>
<stop offset="1" stop-color="#929CBD"/>
</radialGradient>
<radialGradient id="paint25_radial_2445_17105" cx="0" cy="0" r="1" gradientUnits="userSpaceOnUse" gradientTransform="translate(52.9926 23.0017) scale(8.31568 8.5289)">
<stop stop-color="#E7F4FF"/>
<stop offset="1" stop-color="#A9BCCC"/>
</radialGradient>
<radialGradient id="paint26_radial_2445_17105" cx="0" cy="0" r="1" gradientUnits="userSpaceOnUse" gradientTransform="translate(43.4589 6.9158) scale(0.228956 0.234827)">
<stop stop-color="#BDC8D1"/>
<stop offset="1" stop-color="#7A84A1"/>
</radialGradient>
<radialGradient id="paint27_radial_2445_17105" cx="0" cy="0" r="1" gradientUnits="userSpaceOnUse" gradientTransform="translate(50.8632 6.91659) scale(0.228956 0.234827)">
<stop stop-color="#90A1BD"/>
<stop offset="1" stop-color="#616C8A"/>
</radialGradient>
<radialGradient id="paint28_radial_2445_17105" cx="0" cy="0" r="1" gradientUnits="userSpaceOnUse" gradientTransform="translate(26.8 21.588) scale(4.59286 4.71062)">
<stop stop-color="#989CAD"/>
<stop offset="1" stop-color="#4A4B59"/>
</radialGradient>
<radialGradient id="paint29_radial_2445_17105" cx="0" cy="0" r="1" gradientUnits="userSpaceOnUse" gradientTransform="translate(27.4365 19.0804) scale(3.59918 3.69147)">
<stop stop-color="#7A8196"/>
<stop offset="1" stop-color="#535463"/>
</radialGradient>
<radialGradient id="paint30_radial_2445_17105" cx="0" cy="0" r="1" gradientUnits="userSpaceOnUse" gradientTransform="translate(26.649 6.91615) scale(0.228956 0.234827)">
<stop stop-color="#D1D5E6"/>
<stop offset="1" stop-color="#83849E"/>
</radialGradient>
<radialGradient id="paint31_radial_2445_17105" cx="0" cy="0" r="1" gradientUnits="userSpaceOnUse" gradientTransform="translate(25.3439 6.91669) scale(0.228956 0.234827)">
<stop stop-color="#8F97B0"/>
<stop offset="1" stop-color="#535463"/>
</radialGradient>
<radialGradient id="paint32_radial_2445_17105" cx="0" cy="0" r="1" gradientUnits="userSpaceOnUse" gradientTransform="translate(26.7314 34.8279) scale(18.5317 19.0069)">
<stop stop-color="#BDC8D1"/>
<stop offset="1" stop-color="#717C99"/>
</radialGradient>
<radialGradient id="paint33_radial_2445_17105" cx="0" cy="0" r="1" gradientUnits="userSpaceOnUse" gradientTransform="translate(48.2486 34.1612) scale(7.19843 7.38295)">
<stop stop-color="#90A8BD"/>
<stop offset="1" stop-color="#616C8A"/>
</radialGradient>
<radialGradient id="paint34_radial_2445_17105" cx="0" cy="0" r="1" gradientUnits="userSpaceOnUse" gradientTransform="translate(58.6615 31.2768) scale(9.72606 9.97543)">
<stop stop-color="#E7F4FF"/>
<stop offset="1" stop-color="#A9BCCC"/>
</radialGradient>
<radialGradient id="paint35_radial_2445_17105" cx="0" cy="0" r="1" gradientUnits="userSpaceOnUse" gradientTransform="translate(39.3377 18.5359) scale(18.8293 19.3121)">
<stop stop-color="#BDC8D1"/>
<stop offset="1" stop-color="#717C99"/>
</radialGradient>
<radialGradient id="paint36_radial_2445_17105" cx="0" cy="0" r="1" gradientUnits="userSpaceOnUse" gradientTransform="translate(38.2478 16.0972) scale(19.4704 19.9696)">
<stop stop-color="#BDC8D1"/>
<stop offset="1" stop-color="#717C99"/>
</radialGradient>
<radialGradient id="paint37_radial_2445_17105" cx="0" cy="0" r="1" gradientUnits="userSpaceOnUse" gradientTransform="translate(12.33 27.8296) scale(9.0117 9.24277)">
<stop stop-color="#BDC8D1"/>
<stop offset="1" stop-color="#717C99"/>
</radialGradient>
<radialGradient id="paint38_radial_2445_17105" cx="0" cy="0" r="1" gradientUnits="userSpaceOnUse" gradientTransform="translate(27.5007 18.7042) scale(18.2707 18.7392)">
<stop stop-color="#E7F4FF"/>
<stop offset="1" stop-color="#A9BCCC"/>
</radialGradient>
<radialGradient id="paint39_radial_2445_17105" cx="0" cy="0" r="1" gradientUnits="userSpaceOnUse" gradientTransform="translate(22.2117 24.9091) scale(25.2218 25.8685)">
<stop stop-color="#F0F8FF"/>
<stop offset="1" stop-color="#B1C5D6"/>
</radialGradient>
<radialGradient id="paint40_radial_2445_17105" cx="0" cy="0" r="1" gradientUnits="userSpaceOnUse" gradientTransform="translate(34.5067 30.051) scale(6.88242 7.05888)">
<stop stop-color="white"/>
<stop offset="1" stop-color="#8999C4"/>
</radialGradient>
<radialGradient id="paint41_radial_2445_17105" cx="0" cy="0" r="1" gradientUnits="userSpaceOnUse" gradientTransform="translate(28.1463 23.941) scale(16.7321 17.1611)">
<stop stop-color="#F0F8FF"/>
<stop offset="1" stop-color="#B1C5D6"/>
</radialGradient>
<radialGradient id="paint42_radial_2445_17105" cx="0" cy="0" r="1" gradientUnits="userSpaceOnUse" gradientTransform="translate(19.162 6.91564) scale(0.228956 0.234827)">
<stop stop-color="#F0F8FF"/>
<stop offset="1" stop-color="#BACFE0"/>
</radialGradient>
<radialGradient id="paint43_radial_2445_17105" cx="0" cy="0" r="1" gradientUnits="userSpaceOnUse" gradientTransform="translate(29.8315 27.8155) scale(14.7814 15.1604)">
<stop stop-color="#E7F4FF"/>
<stop offset="1" stop-color="#A9BCCC"/>
</radialGradient>
<radialGradient id="paint44_radial_2445_17105" cx="0" cy="0" r="1" gradientUnits="userSpaceOnUse" gradientTransform="translate(40.5924 29.2574) scale(5.69645 5.84249)">
<stop stop-color="#90A1BD"/>
<stop offset="1" stop-color="#616C8A"/>
</radialGradient>
<radialGradient id="paint45_radial_2445_17105" cx="0" cy="0" r="1" gradientUnits="userSpaceOnUse" gradientTransform="translate(54.1556 6.91647) scale(0.228955 0.234827)">
<stop stop-color="#A3B2BF"/>
<stop offset="1" stop-color="#596178"/>
</radialGradient>
<radialGradient id="paint46_radial_2445_17105" cx="0" cy="0" r="1" gradientUnits="userSpaceOnUse" gradientTransform="translate(47.7907 44.6205) scale(4.90881 5.03469)">
<stop stop-color="#BDC8D1"/>
<stop offset="1" stop-color="#717C99"/>
</radialGradient>
<radialGradient id="paint47_radial_2445_17105" cx="0" cy="0" r="1" gradientUnits="userSpaceOnUse" gradientTransform="translate(47.896 6.916) scale(3.98383 4.08599)">
<stop stop-color="#BDC8D1"/>
<stop offset="1" stop-color="#5B647D"/>
</radialGradient>
<radialGradient id="paint48_radial_2445_17105" cx="0" cy="0" r="1" gradientUnits="userSpaceOnUse" gradientTransform="translate(50.9915 6.91604) scale(0.228955 0.234827)">
<stop stop-color="#54596E"/>
<stop offset="1" stop-color="#333542"/>
</radialGradient>
<radialGradient id="paint49_radial_2445_17105" cx="0" cy="0" r="1" gradientUnits="userSpaceOnUse" gradientTransform="translate(24.3777 6.91578) scale(12.4003 12.7182)">
<stop stop-color="#363A47"/>
<stop offset="1" stop-color="#21232B"/>
</radialGradient>
<linearGradient id="paint50_linear_2445_17105" x1="23.9563" y1="6.68124" x2="30.161" y2="6.68124" gradientUnits="userSpaceOnUse">
<stop stop-color="#2B2C33"/>
<stop offset="0.15" stop-color="#444552"/>
<stop offset="0.37" stop-color="#4E505F"/>
<stop offset="0.67" stop-color="#575A6A"/>
<stop offset="1" stop-color="#5A5E6E"/>
</linearGradient>
<linearGradient id="paint51_linear_2445_17105" x1="23.9838" y1="41.2616" x2="30.1702" y2="41.2616" gradientUnits="userSpaceOnUse">
<stop stop-color="#2B2C33"/>
<stop offset="0.15" stop-color="#444552"/>
<stop offset="0.37" stop-color="#4E505F"/>
<stop offset="0.67" stop-color="#575A6A"/>
<stop offset="1" stop-color="#5A5E6E"/>
</linearGradient>
<linearGradient id="paint52_linear_2445_17105" x1="24.0067" y1="42.272" x2="30.1839" y2="42.272" gradientUnits="userSpaceOnUse">
<stop stop-color="#2B2C33"/>
<stop offset="0.15" stop-color="#444552"/>
<stop offset="0.37" stop-color="#4E505F"/>
<stop offset="0.67" stop-color="#575A6A"/>
<stop offset="1" stop-color="#5A5E6E"/>
</linearGradient>
<linearGradient id="paint53_linear_2445_17105" x1="24.0296" y1="43.2816" x2="30.1931" y2="43.2816" gradientUnits="userSpaceOnUse">
<stop stop-color="#2B2C33"/>
<stop offset="0.15" stop-color="#444552"/>
<stop offset="0.37" stop-color="#4E505F"/>
<stop offset="0.67" stop-color="#575A6A"/>
<stop offset="1" stop-color="#5A5E6E"/>
</linearGradient>
<linearGradient id="paint54_linear_2445_17105" x1="24.0525" y1="44.2819" x2="30.2068" y2="44.2819" gradientUnits="userSpaceOnUse">
<stop stop-color="#2B2C33"/>
<stop offset="0.15" stop-color="#444552"/>
<stop offset="0.37" stop-color="#4E505F"/>
<stop offset="0.67" stop-color="#575A6A"/>
<stop offset="1" stop-color="#5A5E6E"/>
</linearGradient>
<radialGradient id="paint55_radial_2445_17105" cx="0" cy="0" r="1" gradientUnits="userSpaceOnUse" gradientTransform="translate(20.7877 6.91616) scale(18.5637 19.0397)">
<stop stop-color="white"/>
<stop offset="1"/>
</radialGradient>
<radialGradient id="paint56_radial_2445_17105" cx="0" cy="0" r="1" gradientUnits="userSpaceOnUse" gradientTransform="translate(29.5887 26.501) scale(9.00713 9.23807)">
<stop stop-color="white"/>
<stop offset="1"/>
</radialGradient>
<radialGradient id="paint57_radial_2445_17105" cx="0" cy="0" r="1" gradientUnits="userSpaceOnUse" gradientTransform="translate(40.6198 27.2757) scale(13.9205 14.2775)">
<stop stop-color="#8F97B0"/>
<stop offset="1" stop-color="#535463"/>
</radialGradient>
<radialGradient id="paint58_radial_2445_17105" cx="0" cy="0" r="1" gradientUnits="userSpaceOnUse" gradientTransform="translate(39.0629 19.4603) scale(14.818 15.198)">
<stop stop-color="#7A8196"/>
<stop offset="1" stop-color="#535463"/>
</radialGradient>
<radialGradient id="paint59_radial_2445_17105" cx="0" cy="0" r="1" gradientUnits="userSpaceOnUse" gradientTransform="translate(40.2672 6.91596) scale(0.228956 0.234827)">
<stop stop-color="#6C7285"/>
<stop offset="1" stop-color="#42434F"/>
</radialGradient>
<radialGradient id="paint60_radial_2445_17105" cx="0" cy="0" r="1" gradientUnits="userSpaceOnUse" gradientTransform="translate(41.0594 27.2941) scale(11.5714 11.8681)">
<stop stop-color="#989CAD"/>
<stop offset="1" stop-color="#4A4B59"/>
</radialGradient>
<radialGradient id="paint61_radial_2445_17105" cx="0" cy="0" r="1" gradientUnits="userSpaceOnUse" gradientTransform="translate(46.0002 31.0467) scale(1.95528 2.00542)">
<stop stop-color="#5A5E6E"/>
<stop offset="1" stop-color="#3E3F4A"/>
</radialGradient>
<radialGradient id="paint62_radial_2445_17105" cx="0" cy="0" r="1" gradientUnits="userSpaceOnUse" gradientTransform="translate(17.2389 23.6834) scale(4.90882 5.03468)">
<stop stop-color="white"/>
<stop offset="1"/>
</radialGradient>
<radialGradient id="paint63_radial_2445_17105" cx="0" cy="0" r="1" gradientUnits="userSpaceOnUse" gradientTransform="translate(19.9954 24.6177) scale(4.59744 4.71532)">
<stop stop-color="white"/>
<stop offset="1"/>
</radialGradient>
<radialGradient id="paint64_radial_2445_17105" cx="0" cy="0" r="1" gradientUnits="userSpaceOnUse" gradientTransform="translate(26.8641 6.91612) scale(0.228956 0.234827)">
<stop stop-color="#5D768F"/>
<stop offset="1"/>
</radialGradient>
<radialGradient id="paint65_radial_2445_17105" cx="0" cy="0" r="1" gradientUnits="userSpaceOnUse" gradientTransform="translate(27.7708 20.991) scale(2.40404 2.46568)">
<stop stop-color="#5D768F"/>
<stop offset="1"/>
</radialGradient>
<radialGradient id="paint66_radial_2445_17105" cx="0" cy="0" r="1" gradientUnits="userSpaceOnUse" gradientTransform="translate(26.713 26.0825) scale(7.06558 7.24675)">
<stop stop-color="#5D768F"/>
<stop offset="1"/>
</radialGradient>
<radialGradient id="paint67_radial_2445_17105" cx="0" cy="0" r="1" gradientUnits="userSpaceOnUse" gradientTransform="translate(23.8923 29.0931) scale(7.19379 7.37825)">
<stop stop-color="#5D768F"/>
<stop offset="1"/>
</radialGradient>
<radialGradient id="paint68_radial_2445_17105" cx="0" cy="0" r="1" gradientUnits="userSpaceOnUse" gradientTransform="translate(26.0399 26.5661) scale(9.99622 10.2525)">
<stop stop-color="white"/>
<stop offset="1"/>
</radialGradient>
<radialGradient id="paint69_radial_2445_17105" cx="0" cy="0" r="1" gradientUnits="userSpaceOnUse" gradientTransform="translate(33.2978 30.0092) scale(4.89507 5.02059)">
<stop stop-color="white"/>
<stop offset="1"/>
</radialGradient>
<radialGradient id="paint70_radial_2445_17105" cx="0" cy="0" r="1" gradientUnits="userSpaceOnUse" gradientTransform="translate(18.1225 27.8262) scale(14.383 14.7518)">
<stop stop-color="white"/>
<stop offset="1"/>
</radialGradient>
<radialGradient id="paint71_radial_2445_17105" cx="0" cy="0" r="1" gradientUnits="userSpaceOnUse" gradientTransform="translate(24.4693 28.5757) scale(11.0861 11.3703)">
<stop stop-color="white"/>
<stop offset="1"/>
</radialGradient>
<radialGradient id="paint72_radial_2445_17105" cx="0" cy="0" r="1" gradientUnits="userSpaceOnUse" gradientTransform="translate(34.3006 35.0722) scale(13.0184 13.3522)">
<stop stop-color="white"/>
<stop offset="1"/>
</radialGradient>
<radialGradient id="paint73_radial_2445_17105" cx="0" cy="0" r="1" gradientUnits="userSpaceOnUse" gradientTransform="translate(37.3182 34.137) scale(8.92469 9.15354)">
<stop stop-color="white"/>
<stop offset="1"/>
</radialGradient>
<radialGradient id="paint74_radial_2445_17105" cx="0" cy="0" r="1" gradientUnits="userSpaceOnUse" gradientTransform="translate(37.0023 29.8635) scale(5.15609 5.28829)">
<stop stop-color="white"/>
<stop offset="1"/>
</radialGradient>
<radialGradient id="paint75_radial_2445_17105" cx="0" cy="0" r="1" gradientUnits="userSpaceOnUse" gradientTransform="translate(43.2574 29.2343) scale(5.16066 5.29299)">
<stop stop-color="#5D768F"/>
<stop offset="1"/>
</radialGradient>
<radialGradient id="paint76_radial_2445_17105" cx="0" cy="0" r="1" gradientUnits="userSpaceOnUse" gradientTransform="translate(51.2159 45.1887) scale(9.06666 9.29913)">
<stop stop-color="white"/>
<stop offset="1"/>
</radialGradient>
<radialGradient id="paint77_radial_2445_17105" cx="0" cy="0" r="1" gradientUnits="userSpaceOnUse" gradientTransform="translate(50.9273 24.6924) scale(4.92713 5.05347)">
<stop stop-color="white"/>
<stop offset="1"/>
</radialGradient>
<radialGradient id="paint78_radial_2445_17105" cx="0" cy="0" r="1" gradientUnits="userSpaceOnUse" gradientTransform="translate(51.9165 28.0367) scale(3.10464 3.18425)">
<stop stop-color="white"/>
<stop offset="1"/>
</radialGradient>
<radialGradient id="paint79_radial_2445_17105" cx="0" cy="0" r="1" gradientUnits="userSpaceOnUse" gradientTransform="translate(35.5095 32.5019) scale(8.05009 8.2565)">
<stop stop-color="white"/>
<stop offset="1"/>
</radialGradient>
<radialGradient id="paint80_radial_2445_17105" cx="0" cy="0" r="1" gradientUnits="userSpaceOnUse" gradientTransform="translate(25.8155 38.5384) scale(9.86342 10.1163)">
<stop stop-color="#5D768F"/>
<stop offset="1"/>
</radialGradient>
<radialGradient id="paint81_radial_2445_17105" cx="0" cy="0" r="1" gradientUnits="userSpaceOnUse" gradientTransform="translate(44.6036 34.0106) scale(11.173 11.4595)">
<stop stop-color="#FFCC00"/>
<stop offset="0.57" stop-color="#FFA700"/>
<stop offset="1" stop-color="#FF9100"/>
</radialGradient>
<radialGradient id="paint82_radial_2445_17105" cx="0" cy="0" r="1" gradientUnits="userSpaceOnUse" gradientTransform="translate(26.7999 32.7147) scale(7.76619 7.96532)">
<stop stop-color="#FFA900"/>
<stop offset="0.05" stop-color="#FFA700"/>
<stop offset="1" stop-color="#FF9100"/>
</radialGradient>
<radialGradient id="paint83_radial_2445_17105" cx="0" cy="0" r="1" gradientUnits="userSpaceOnUse" gradientTransform="translate(24.2769 6.91674) scale(0.228956 0.234827)">
<stop stop-color="#7FFF3D"/>
<stop offset="1"/>
</radialGradient>
<radialGradient id="paint84_radial_2445_17105" cx="0" cy="0" r="1" gradientUnits="userSpaceOnUse" gradientTransform="translate(24.199 34.1941) scale(6.5573 6.72543)">
<stop stop-color="#995C33"/>
<stop offset="1" stop-color="white"/>
</radialGradient>
<radialGradient id="paint85_radial_2445_17105" cx="0" cy="0" r="1" gradientUnits="userSpaceOnUse" gradientTransform="translate(39.7726 48.7712) scale(3.97467 4.07659)">
<stop stop-color="#E7F4FF"/>
<stop offset="1" stop-color="#A9BCCC"/>
</radialGradient>
<linearGradient id="paint86_linear_2445_17105" x1="34.8776" y1="22.8089" x2="37.3228" y2="22.8089" gradientUnits="userSpaceOnUse">
<stop stop-color="#7A3A10"/>
<stop offset="0.15" stop-color="#995C33"/>
<stop offset="0.23" stop-color="#A7602C"/>
<stop offset="0.41" stop-color="#C16722"/>
<stop offset="0.6" stop-color="#D46C1A"/>
<stop offset="0.79" stop-color="#DF6F15"/>
<stop offset="1" stop-color="#E37114"/>
</linearGradient>
<linearGradient id="paint87_linear_2445_17105" x1="26.2276" y1="25.4668" x2="32.1164" y2="25.4668" gradientUnits="userSpaceOnUse">
<stop stop-color="#7A3A10"/>
<stop offset="0.15" stop-color="#995C33"/>
<stop offset="0.23" stop-color="#A7602C"/>
<stop offset="0.41" stop-color="#C16722"/>
<stop offset="0.6" stop-color="#D46C1A"/>
<stop offset="0.79" stop-color="#DF6F15"/>
<stop offset="1" stop-color="#E37114"/>
</linearGradient>
<linearGradient id="paint88_linear_2445_17105" x1="31.686" y1="27.0079" x2="34.1175" y2="27.0079" gradientUnits="userSpaceOnUse">
<stop stop-color="#7A3A10"/>
<stop offset="0.15" stop-color="#995C33"/>
<stop offset="0.23" stop-color="#A7602C"/>
<stop offset="0.41" stop-color="#C16722"/>
<stop offset="0.6" stop-color="#D46C1A"/>
<stop offset="0.79" stop-color="#DF6F15"/>
<stop offset="1" stop-color="#E37114"/>
</linearGradient>
<linearGradient id="paint89_linear_2445_17105" x1="36.8786" y1="24.2598" x2="42.7582" y2="24.2598" gradientUnits="userSpaceOnUse">
<stop stop-color="#7A3A10"/>
<stop offset="0.15" stop-color="#995C33"/>
<stop offset="0.23" stop-color="#A7602C"/>
<stop offset="0.41" stop-color="#C16722"/>
<stop offset="0.6" stop-color="#D46C1A"/>
<stop offset="0.79" stop-color="#DF6F15"/>
<stop offset="1" stop-color="#E37114"/>
</linearGradient>
</defs>
</svg>
