<svg width="70" height="68" viewBox="0 0 70 68" fill="none" xmlns="http://www.w3.org/2000/svg">
<g id="Frame 351">
<g id="Ellipse 27" filter="url(#filter0_f_2445_17215)">
<circle cx="35" cy="35" r="12" fill="#FF3A9F"/>
</g>
<g id="Group">
<path id="Vector" fill-rule="evenodd" clip-rule="evenodd" d="M30.3294 47.5242L30.3342 48.2468L31.9192 49.0176V49.9089L35.8069 51.8166L39.1888 51.8118L41.4964 50.6508L41.7036 50.0389L49.9753 45.9296L51.3483 45.8284L52.3744 45.3515L54.3544 44.1904L54.8362 30.6917L54.7688 30.1907L15.3131 28.1914L15.1349 28.6153L15.6552 41.9069L19.7308 44.0122L21.1664 43.8966L23.4885 45.0239L24.346 44.624L30.3294 47.5242Z" fill="#778691"/>
<path id="Vector_2" fill-rule="evenodd" clip-rule="evenodd" d="M31.9192 49.9082L36.6115 52.3025L38.4951 52.2977L41.429 50.6838L31.9192 49.9082Z" fill="#434654"/>
<path id="Vector_3" fill-rule="evenodd" clip-rule="evenodd" d="M20.4246 43.4434L21.1665 43.8962L23.4885 45.0235L22.2504 44.3298L20.4246 43.4434Z" fill="#56646D"/>
<path id="Vector_4" fill-rule="evenodd" clip-rule="evenodd" d="M20.4245 43.4434L18.96 43.5301L19.7308 44.0118L21.1664 43.8962L20.4245 43.4434Z" fill="url(#paint0_radial_2445_17215)"/>
<path id="Vector_5" fill-rule="evenodd" clip-rule="evenodd" d="M15.6552 41.9062L19.7308 44.0115L18.96 43.5298L15.6552 41.9062Z" fill="#56646D"/>
<path id="Vector_6" fill-rule="evenodd" clip-rule="evenodd" d="M18.96 43.5301L18.565 30.1518L20.0151 30.0361L20.4246 43.4433L18.96 43.5301Z" fill="url(#paint1_radial_2445_17215)"/>
<path id="Vector_7" fill-rule="evenodd" clip-rule="evenodd" d="M18.565 30.152L15.1398 28.6152L15.6553 41.9068L18.9601 43.5351L18.565 30.1568V30.152ZM35.807 51.8213L31.9241 49.9087L31.8904 35.9283L35.807 37.6385V51.8213Z" fill="url(#paint2_radial_2445_17215)"/>
<path id="Vector_8" fill-rule="evenodd" clip-rule="evenodd" d="M22.0865 37.2861L22.2503 44.3294L23.4885 45.0231L24.346 44.6232L22.8236 43.891L22.6646 37.5511L22.0865 37.2861Z" fill="url(#paint3_radial_2445_17215)"/>
<path id="Vector_9" fill-rule="evenodd" clip-rule="evenodd" d="M22.6647 37.5518L22.8237 43.8916L30.3294 47.5241L30.2619 41.03L22.6647 37.5518Z" fill="url(#paint4_radial_2445_17215)"/>
<path id="Vector_10" fill-rule="evenodd" clip-rule="evenodd" d="M15.3131 28.1914L15.1349 28.6153L18.565 30.1521L20.015 30.0365L31.8855 35.1624V35.9284L35.8021 37.6338V36.8582L31.8855 34.5506L20.0102 29.4777L15.3131 28.1914Z" fill="url(#paint5_radial_2445_17215)"/>
<path id="Vector_11" fill-rule="evenodd" clip-rule="evenodd" d="M31.8854 35.162L20.015 30.0361L20.4245 43.4433L22.2504 44.3298L22.0866 37.2865L30.2619 41.0297L30.3342 48.2464L31.9192 49.0172L31.8854 35.162Z" fill="url(#paint6_radial_2445_17215)"/>
<path id="Vector_12" fill-rule="evenodd" clip-rule="evenodd" d="M35.8069 51.8154L36.6114 52.3019L38.4951 52.2971L39.1888 51.8105L35.8069 51.8154Z" fill="url(#paint7_radial_2445_17215)"/>
<path id="Vector_13" fill-rule="evenodd" clip-rule="evenodd" d="M35.8021 37.6333L39.2033 37.5996L39.1889 51.8113L35.8069 51.8162L35.8021 37.6333Z" fill="url(#paint8_radial_2445_17215)"/>
<path id="Vector_14" opacity="0.75" fill-rule="evenodd" clip-rule="evenodd" d="M36.6693 38.9247V50.5157C36.6693 50.6362 36.7126 50.7373 36.7993 50.824C36.886 50.9108 36.9872 50.9493 37.1076 50.9493H37.8881C38.1241 50.9493 38.3217 50.7518 38.3217 50.5157L38.3313 38.9199C38.3313 38.7995 38.2879 38.6983 38.2012 38.6116C38.1145 38.5249 38.0133 38.4863 37.8929 38.4863L37.098 38.496C36.862 38.496 36.6693 38.6935 36.6693 38.9295V38.9247Z" fill="url(#paint9_radial_2445_17215)"/>
<path id="Vector_15" fill-rule="evenodd" clip-rule="evenodd" d="M41.8867 35.8652L41.6217 36.5349L41.4965 50.6503L41.7036 50.0384L41.8867 35.8652Z" fill="url(#paint10_radial_2445_17215)"/>
<path id="Vector_16" fill-rule="evenodd" clip-rule="evenodd" d="M51.2326 31.7466L52.6972 31.6406L52.2636 45.2357L50.8472 45.3224L51.2326 31.7466Z" fill="url(#paint11_radial_2445_17215)"/>
<path id="Vector_17" fill-rule="evenodd" clip-rule="evenodd" d="M39.2033 37.5998L41.6217 36.5303L41.4964 50.6505L39.1888 51.8115L39.1985 37.6046L39.2033 37.5998ZM52.2636 45.2355L54.3544 44.1853L54.841 30.6914L52.6972 31.6356L52.2636 45.2355Z" fill="url(#paint12_radial_2445_17215)"/>
<path id="Vector_18" fill-rule="evenodd" clip-rule="evenodd" d="M50.8473 45.3221L49.9753 45.9291L51.3483 45.8279L52.2636 45.2354L50.8473 45.3221Z" fill="#565C6D"/>
<path id="Vector_19" fill-rule="evenodd" clip-rule="evenodd" d="M52.2636 45.2358L51.3483 45.8284L52.3744 45.3515L54.3544 44.1904L52.2636 45.2358Z" fill="#434654"/>
<path id="Vector_20" fill-rule="evenodd" clip-rule="evenodd" d="M41.7036 50.0386L49.9753 45.9341L50.8473 45.3223L41.7084 49.8556V50.0386H41.7036Z" fill="#434654"/>
<path id="Vector_21" fill-rule="evenodd" clip-rule="evenodd" d="M41.7036 49.8552L41.8866 35.8651L51.2326 31.7461L50.8472 45.3171L41.7036 49.8552Z" fill="url(#paint13_radial_2445_17215)"/>
<path id="Vector_22" fill-rule="evenodd" clip-rule="evenodd" d="M35.8021 37.6335L39.2033 37.5998L41.6217 36.5351L41.8867 35.8655L51.2327 31.7465L52.6972 31.6405L54.8362 30.6915L54.7688 30.1904L51.146 30.8842L35.8021 37.041V37.6335Z" fill="url(#paint14_radial_2445_17215)"/>
<path id="Vector_23" fill-rule="evenodd" clip-rule="evenodd" d="M35.9081 18.5889L37.4497 19.5957V19.9137L35.6239 19.1092L35.9081 18.5889Z" fill="url(#paint15_radial_2445_17215)"/>
<path id="Vector_24" fill-rule="evenodd" clip-rule="evenodd" d="M16.7584 22.9395L15.342 23.9704L15 25.1363L15.1156 28.1039L18.565 29.5925L20.0102 29.4768L31.8855 34.5497V35.3494L35.8021 37.0404H39.2274L41.6265 35.9805L41.9107 35.3157L51.1171 31.2834L52.6394 31.1293L54.7688 30.1898L54.8988 29.9345L55 27.1355L54.8651 25.883L53.4054 24.8809L16.7584 22.9395Z" fill="#60571E"/>
<path id="Vector_25" fill-rule="evenodd" clip-rule="evenodd" d="M39.0491 21.0222L39.0588 20.8439L38.0712 19.9912L23.0308 25.5217L21.8409 27.2801L21.8698 28.3255L30.1511 31.8134L30.1415 31.3413L22.4238 28.1184L22.4093 27.2705L23.2765 25.9794L37.864 20.579L39.0491 21.0222Z" fill="url(#paint16_radial_2445_17215)"/>
<path id="Vector_26" fill-rule="evenodd" clip-rule="evenodd" d="M21.8698 28.3253L22.4238 28.1182L30.1415 31.3411L30.1511 31.8132L21.8698 28.3253Z" fill="url(#paint17_radial_2445_17215)"/>
<path id="Vector_27" fill-rule="evenodd" clip-rule="evenodd" d="M22.4094 27.2705L22.4238 28.1184L30.4257 31.4618L30.4065 30.6042L22.4094 27.2705Z" fill="url(#paint18_radial_2445_17215)"/>
<path id="Vector_28" fill-rule="evenodd" clip-rule="evenodd" d="M30.4065 30.6043L31.2544 29.2458L23.2766 25.9795L22.4094 27.2706L30.4065 30.6043Z" fill="url(#paint19_radial_2445_17215)"/>
<path id="Vector_29" fill-rule="evenodd" clip-rule="evenodd" d="M23.2765 25.9796L31.2543 29.2458L45.8033 23.5419L37.864 20.5791L23.2765 25.9796Z" fill="url(#paint20_radial_2445_17215)"/>
<path id="Vector_30" fill-rule="evenodd" clip-rule="evenodd" d="M31.3411 28.8942L33.9811 29.9637L33.7306 30.643L36.5681 31.8088H38.5192L40.1716 31.1199L40.4462 30.4984L50.7268 26.2494L52.0661 26.1819L53.4295 25.6183L53.4102 24.886L50.5197 23.8454L49.0311 23.9466L46.3959 22.9975L31.3459 28.899L31.3411 28.8942ZM18.3964 22.3713L16.7632 22.9445L16.6042 23.6238L19.1142 24.6548L20.6124 24.544L23.0357 25.5267L38.076 20.001L35.6239 19.1194L35.9081 18.5991L33.403 17.6982L31.7024 17.7079L30.2138 18.2282L29.3996 18.9074L19.7935 22.3038L18.3915 22.3809L18.3964 22.3713Z" fill="url(#paint21_radial_2445_17215)"/>
<path id="Vector_31" fill-rule="evenodd" clip-rule="evenodd" d="M19.1094 24.6499L20.6076 24.5391L19.9332 26.4805L18.4638 26.5913L19.1094 24.6499Z" fill="url(#paint22_radial_2445_17215)"/>
<path id="Vector_32" fill-rule="evenodd" clip-rule="evenodd" d="M15 25.1363L16.5994 23.6187L16.7584 22.9395L15.342 23.9704L15 25.1363Z" fill="url(#paint23_radial_2445_17215)"/>
<path id="Vector_33" fill-rule="evenodd" clip-rule="evenodd" d="M41.93 32.1553L51.3483 28.1616L50.7268 26.249L40.4462 30.4981L41.93 32.1553Z" fill="url(#paint24_radial_2445_17215)"/>
<path id="Vector_34" fill-rule="evenodd" clip-rule="evenodd" d="M52.0613 26.1816L52.8562 28.046L51.3483 28.1616L50.7268 26.2491L52.0613 26.1816Z" fill="url(#paint25_radial_2445_17215)"/>
<g id="Vector_35" style="mix-blend-mode:multiply" opacity="0.35">
<path fill-rule="evenodd" clip-rule="evenodd" d="M26.6247 21.7553L28.0122 21.736L29.9633 20.9796V20.5412L27.1354 19.4766L23.7487 20.652L26.6247 21.7553Z" fill="#5D6C8C"/>
</g>
<path id="Vector_36" fill-rule="evenodd" clip-rule="evenodd" d="M52.0614 26.1818L53.4247 25.6182L55.0001 27.1405L52.8611 28.051L52.0662 26.1866L52.0614 26.1818ZM38.5145 31.8087L40.1669 31.1198L41.6459 32.8107L39.2275 33.8369L38.5096 31.8039L38.5145 31.8087Z" fill="url(#paint26_radial_2445_17215)"/>
<path id="Vector_37" fill-rule="evenodd" clip-rule="evenodd" d="M53.4247 25.6131L55 27.1355L54.8651 25.8829L53.4054 24.8809L53.4247 25.6131Z" fill="url(#paint27_radial_2445_17215)"/>
<path id="Vector_38" fill-rule="evenodd" clip-rule="evenodd" d="M29.2407 20.2658V21.2631L27.2944 22.0194L25.9069 22.0387L23.2766 21.0607L21.7542 21.5955L23.026 20.3767L26.4128 19.2012L29.2407 20.2658Z" fill="#383F49"/>
<path id="Vector_39" fill-rule="evenodd" clip-rule="evenodd" d="M25.9069 22.0389V21.4849L23.0116 20.3721L21.7542 21.5957L23.2766 21.061L25.9069 22.0389Z" fill="url(#paint28_radial_2445_17215)"/>
<path id="Vector_40" fill-rule="evenodd" clip-rule="evenodd" d="M27.2944 22.0194V21.4605L29.2407 20.709V21.263L27.2944 22.0194Z" fill="url(#paint29_radial_2445_17215)"/>
<path id="Vector_41" fill-rule="evenodd" clip-rule="evenodd" d="M27.2943 22.0198L25.9069 22.039V21.485L27.2943 21.4609V22.0198Z" fill="url(#paint30_radial_2445_17215)"/>
<path id="Vector_42" fill-rule="evenodd" clip-rule="evenodd" d="M25.9069 21.4847L27.2943 21.4606L29.2406 20.7091V20.2658L26.4127 19.2012L23.026 20.3767L25.9069 21.4847Z" fill="url(#paint31_radial_2445_17215)"/>
<path id="Vector_43" fill-rule="evenodd" clip-rule="evenodd" d="M35.8021 33.8707V37.0406H39.2273L39.2321 33.8418L35.8021 33.8707Z" fill="url(#paint32_radial_2445_17215)"/>
<path id="Vector_44" fill-rule="evenodd" clip-rule="evenodd" d="M41.9301 32.1553L41.9108 35.3156L41.6266 35.9804L41.6507 32.8105L41.9301 32.1553Z" fill="url(#paint33_radial_2445_17215)"/>
<path id="Vector_45" fill-rule="evenodd" clip-rule="evenodd" d="M51.3483 28.1625L51.1171 31.2843L52.6394 31.1301L52.8562 28.0469L51.3483 28.1625Z" fill="url(#paint34_radial_2445_17215)"/>
<path id="Vector_46" fill-rule="evenodd" clip-rule="evenodd" d="M52.8562 28.0462L52.6394 31.1294L54.7688 30.19L54.8988 29.9347L54.9952 27.1309L52.8562 28.0414V28.0462ZM39.2322 33.8417L41.6506 32.8156L41.6217 35.9855L39.2226 37.0405L39.2322 33.8417Z" fill="url(#paint35_radial_2445_17215)"/>
<path id="Vector_47" fill-rule="evenodd" clip-rule="evenodd" d="M41.93 32.1558L51.3483 28.1621L51.1171 31.2839L41.9108 35.3161L41.93 32.1558Z" fill="url(#paint36_radial_2445_17215)"/>
<path id="Vector_48" fill-rule="evenodd" clip-rule="evenodd" d="M18.4637 26.5913L18.5649 29.5926L20.0102 29.477L19.9331 26.4805L18.4637 26.5913Z" fill="url(#paint37_radial_2445_17215)"/>
<path id="Vector_49" fill-rule="evenodd" clip-rule="evenodd" d="M21.8408 27.2802L19.9331 26.4805L20.0102 29.477L31.8854 34.5498L32.1648 31.5871L30.1222 30.7344L30.1511 31.8135L21.8697 28.3256L21.8408 27.2802Z" fill="url(#paint38_radial_2445_17215)"/>
<path id="Vector_50" fill-rule="evenodd" clip-rule="evenodd" d="M31.8951 32.2281L31.8855 35.3451L35.8021 37.036V33.8661L31.8951 32.2233V32.2281ZM18.565 29.5929L18.4638 26.5916L15 25.1367L15.1156 28.1043L18.565 29.5929Z" fill="url(#paint39_radial_2445_17215)"/>
<path id="Vector_51" fill-rule="evenodd" clip-rule="evenodd" d="M33.9811 29.9639L32.1649 31.5874L31.8951 32.2281L33.7258 30.6431L33.9811 29.9639Z" fill="url(#paint40_radial_2445_17215)"/>
<path id="Vector_52" fill-rule="evenodd" clip-rule="evenodd" d="M32.1649 31.5871L30.1223 30.7344L31.3363 28.8941L33.9763 29.9636L32.1601 31.5871H32.1649ZM19.9332 26.4853L21.8409 27.2802L23.0308 25.5218L20.6076 24.5391L19.9283 26.4853H19.9332Z" fill="url(#paint41_radial_2445_17215)"/>
<path id="Vector_53" fill-rule="evenodd" clip-rule="evenodd" d="M31.8951 32.2281L35.8021 33.8709L36.5633 31.809L33.7258 30.6431L31.8951 32.2281ZM16.5994 23.6191L15 25.1367L18.4638 26.5916L19.1094 24.6501L16.5994 23.6191Z" fill="url(#paint42_radial_2445_17215)"/>
<path id="Vector_54" fill-rule="evenodd" clip-rule="evenodd" d="M35.8021 33.8705L39.2321 33.8416L38.5191 31.8086H36.568L35.8021 33.8705Z" fill="url(#paint43_radial_2445_17215)"/>
<path id="Vector_55" fill-rule="evenodd" clip-rule="evenodd" d="M40.1716 31.1205L40.4462 30.499L41.93 32.1563L41.6506 32.8114L40.1716 31.1205Z" fill="url(#paint44_radial_2445_17215)"/>
<path id="Vector_56" fill-rule="evenodd" clip-rule="evenodd" d="M47.6966 35.2624L48.2121 35.4648C47.9808 35.3202 47.7544 35.1709 47.5231 35.0264C47.4846 35.0456 47.4413 35.0601 47.4027 35.0794C47.4991 35.142 47.5954 35.2046 47.6966 35.2672V35.2624Z" fill="#49575E"/>
<path id="Vector_57" fill-rule="evenodd" clip-rule="evenodd" d="M48.2121 35.4601L47.6966 35.2578C47.6677 36.7994 47.634 38.341 47.6051 39.8826C47.5762 41.4243 47.5425 42.9659 47.5135 44.5075L48.029 44.705C48.0579 43.1634 48.0917 41.6218 48.1206 40.0802C48.1495 38.5386 48.1832 36.9969 48.2121 35.4553V35.4601Z" fill="url(#paint45_radial_2445_17215)"/>
<path id="Vector_58" fill-rule="evenodd" clip-rule="evenodd" d="M47.5135 44.5078C47.2726 44.8739 47.0366 45.2401 46.7957 45.6014L47.3112 45.8037C47.5472 45.4376 47.7881 45.0715 48.029 44.7101L47.5135 44.5126V44.5078Z" fill="url(#paint46_radial_2445_17215)"/>
<path id="Vector_59" fill-rule="evenodd" clip-rule="evenodd" d="M47.3112 45.8039L46.7957 45.6016C46.4729 45.7605 46.155 45.9195 45.8322 46.0785C45.5431 46.223 45.2589 46.3676 44.9698 46.5073C45.1096 46.5892 45.2493 46.6759 45.389 46.7578C45.7117 46.5988 46.0297 46.4398 46.3525 46.2808C46.6704 46.1219 46.9932 45.9629 47.316 45.8039H47.3112Z" fill="url(#paint47_radial_2445_17215)"/>
<path id="Vector_60" fill-rule="evenodd" clip-rule="evenodd" d="M44.7868 41.6462C44.7579 43.2119 44.729 44.7825 44.7001 46.3482C44.7917 46.4012 44.8784 46.4542 44.9699 46.5071C45.259 46.3626 45.5432 46.2229 45.8323 46.0784C46.155 45.9194 46.473 45.7604 46.7958 45.6014C47.0366 45.2353 47.2727 44.8692 47.5136 44.5079C47.5425 42.9663 47.5762 41.4246 47.6051 39.883C47.634 38.3414 47.6677 36.7998 47.6966 35.2582C47.6003 35.1956 47.5039 35.1329 47.4028 35.0703C47.1185 35.1956 46.8391 35.316 46.5549 35.4413C46.2321 35.581 45.9093 35.7255 45.5866 35.8652C45.3457 36.2217 45.1096 36.5782 44.8688 36.9347C44.8398 38.5052 44.8109 40.0709 44.782 41.6366L44.7868 41.6462Z" fill="url(#paint48_radial_2445_17215)"/>
<path id="Vector_61" fill-rule="evenodd" clip-rule="evenodd" d="M23.6186 39.8687C24.6351 40.3457 25.6564 40.8178 26.6729 41.2947C27.6894 41.7668 28.7107 42.2438 29.7272 42.7159C29.838 42.7689 29.9344 42.9279 29.9344 43.0676C29.9344 43.2073 29.8477 43.2796 29.732 43.2314C28.7155 42.7544 27.6942 42.2775 26.6825 41.8006C25.666 41.3236 24.6495 40.8467 23.633 40.3698C23.5222 40.3168 23.4259 40.1626 23.4259 40.0229C23.4259 39.8832 23.5126 39.8157 23.6234 39.8639L23.6186 39.8687ZM23.6427 40.8949C24.6592 41.3718 25.6757 41.8536 26.6922 42.3305C27.7087 42.8074 28.7252 43.2844 29.7417 43.7613C29.8525 43.8143 29.944 43.9733 29.9488 44.113C29.9488 44.2527 29.8621 44.325 29.7465 44.272C28.73 43.7902 27.7135 43.3133 26.7018 42.8315C25.6853 42.3498 24.6736 41.8728 23.6571 41.3911C23.5463 41.3381 23.45 41.1839 23.45 41.0442C23.45 40.9045 23.5367 40.8371 23.6475 40.8852L23.6427 40.8949ZM23.6668 41.921C24.6833 42.4028 25.6949 42.8845 26.7066 43.3663C27.7183 43.848 28.7348 44.3298 29.7513 44.8115C29.8621 44.8645 29.9536 45.0235 29.9585 45.168C29.9585 45.3077 29.8717 45.38 29.7609 45.327C28.7493 44.8453 27.7328 44.3587 26.7211 43.8769C25.7094 43.3952 24.6929 42.9134 23.6812 42.4269C23.5704 42.3739 23.4741 42.2149 23.4741 42.08C23.4741 41.9403 23.5608 41.8728 23.6716 41.9258L23.6668 41.921ZM23.5945 38.8426C24.6158 39.3147 25.6371 39.7868 26.6536 40.259C27.6749 40.7311 28.6914 41.2032 29.7128 41.6705C29.8236 41.7235 29.9151 41.8825 29.9199 42.0222C29.9199 42.1619 29.8332 42.239 29.7176 42.186C28.6963 41.7139 27.6798 41.2369 26.6584 40.7648C25.6419 40.2927 24.6206 39.8206 23.5993 39.3484C23.4885 39.2955 23.3921 39.1413 23.3873 39.0016C23.3873 38.8619 23.474 38.7896 23.5848 38.8426H23.5945ZM23.6908 42.952C24.7025 43.4337 25.7142 43.9203 26.7259 44.4069C27.7376 44.8934 28.7493 45.3752 29.7609 45.8618C29.8717 45.9147 29.9633 46.0737 29.9681 46.2183C29.9681 46.358 29.8814 46.4302 29.7706 46.3772C28.7589 45.8907 27.7472 45.4041 26.7355 44.9175C25.7238 44.4309 24.7122 43.9444 23.7005 43.4578C23.5897 43.4048 23.4933 43.2458 23.4933 43.1061C23.4933 42.9664 23.58 42.899 23.6908 42.952Z" fill="url(#paint49_radial_2445_17215)"/>
<path id="Vector_62" fill-rule="evenodd" clip-rule="evenodd" d="M23.609 39.3487C24.6303 39.8208 25.6468 40.2929 26.6681 40.765C27.6846 41.2371 28.7059 41.7141 29.7272 42.1862C29.8284 42.2344 29.9151 42.1717 29.9248 42.0513C29.9055 42.0513 29.8814 42.0465 29.8621 42.0368C28.8408 41.5647 27.8243 41.0878 26.803 40.6157C25.7817 40.1436 24.7652 39.6714 23.7439 39.1993C23.6331 39.1463 23.5367 38.9922 23.5319 38.8525C23.5319 38.8428 23.5319 38.838 23.5319 38.8284C23.45 38.8235 23.3922 38.891 23.397 39.0018C23.397 39.1415 23.4934 39.2957 23.609 39.3487Z" fill="url(#paint50_linear_2445_17215)"/>
<path id="Vector_63" fill-rule="evenodd" clip-rule="evenodd" d="M26.8174 41.6506C25.8009 41.1736 24.7844 40.6967 23.7679 40.2198C23.6571 40.1668 23.5608 40.0126 23.5608 39.8729C23.4789 39.844 23.4211 39.9114 23.4259 40.0223C23.4259 40.162 23.5222 40.3161 23.633 40.3691C24.6495 40.8461 25.666 41.323 26.6825 41.7999C27.699 42.2769 28.7155 42.7538 29.732 43.2307C29.838 43.2789 29.9199 43.2211 29.9296 43.0958C29.9103 43.0958 29.8862 43.091 29.8669 43.0814C28.8504 42.6044 27.8291 42.1275 26.8174 41.6506Z" fill="url(#paint51_linear_2445_17215)"/>
<path id="Vector_64" fill-rule="evenodd" clip-rule="evenodd" d="M23.792 41.2461C23.6812 41.1931 23.5849 41.039 23.5849 40.8993C23.503 40.8704 23.4452 40.9378 23.45 41.0486C23.45 41.1883 23.5463 41.3425 23.6572 41.3955C24.6737 41.8772 25.6901 42.3542 26.7018 42.8359C27.7183 43.3129 28.7348 43.7946 29.7465 44.2764C29.8525 44.3245 29.9344 44.2667 29.944 44.1415C29.9248 44.1415 29.9007 44.1367 29.8814 44.127C28.8649 43.6453 27.8484 43.1683 26.8367 42.6866C25.8202 42.2048 24.8085 41.7279 23.792 41.2461Z" fill="url(#paint52_linear_2445_17215)"/>
<path id="Vector_65" fill-rule="evenodd" clip-rule="evenodd" d="M23.8161 42.2774C23.7053 42.2244 23.6089 42.0654 23.6089 41.9305C23.527 41.9016 23.4692 41.9691 23.474 42.0799C23.474 42.2196 23.5704 42.3737 23.6812 42.4267C24.6929 42.9085 25.7094 43.3951 26.721 43.8768C27.7327 44.3586 28.7492 44.8403 29.7609 45.3269C29.8669 45.3751 29.9488 45.3172 29.9584 45.192C29.9392 45.192 29.9199 45.1872 29.8958 45.1727C28.8841 44.691 27.8676 44.2044 26.8559 43.7226C25.8443 43.2409 24.8278 42.7591 23.8161 42.2726V42.2774Z" fill="url(#paint53_linear_2445_17215)"/>
<path id="Vector_66" fill-rule="evenodd" clip-rule="evenodd" d="M23.633 42.9326C23.5511 42.9229 23.4933 42.9904 23.4981 43.106C23.4981 43.2457 23.5945 43.4047 23.7053 43.4577C24.717 43.9442 25.7287 44.4308 26.7404 44.9174C27.752 45.4039 28.7637 45.8905 29.7754 46.3771C29.8814 46.4253 29.9633 46.3675 29.9729 46.2422C29.9536 46.2422 29.9344 46.2374 29.9103 46.2229C28.8986 45.7364 27.8869 45.2498 26.8752 44.7632C25.8636 44.2766 24.8519 43.7901 23.8402 43.3035C23.7294 43.2505 23.633 43.0915 23.633 42.9518V42.9326Z" fill="url(#paint54_linear_2445_17215)"/>
<path id="Vector_67" style="mix-blend-mode:screen" fill-rule="evenodd" clip-rule="evenodd" d="M22.0625 26.9525L22.8285 25.5795L21.0894 24.7316L23.0453 25.3916L31.8132 22.2939L23.1175 25.6036L22.0625 26.9525Z" fill="url(#paint55_radial_2445_17215)"/>
<path id="Vector_68" style="mix-blend-mode:screen" fill-rule="evenodd" clip-rule="evenodd" d="M30.5366 30.1132L31.4374 29.0534L33.615 29.8145L31.6398 28.9088L36.8764 26.7217L31.3411 28.8944L30.5366 30.1132Z" fill="url(#paint56_radial_2445_17215)"/>
<g id="Vector_69" style="mix-blend-mode:multiply" opacity="0.35">
<path fill-rule="evenodd" clip-rule="evenodd" d="M45.0325 31.0907L45.0277 32.9117L45.6444 33.3887L47.528 32.6082L48.3277 31.4809L48.3807 29.6406L45.0325 31.0907Z" fill="#5D6C8C"/>
</g>
<path id="Vector_70" fill-rule="evenodd" clip-rule="evenodd" d="M44.2328 25.9169L42.802 25.9072L40.8749 26.6829V27.8583L43.9389 29.0386L45.0277 30.8404V32.4157L45.7455 32.9216L46.2609 33.1335L48.1398 32.3531L48.9395 31.2258L48.9973 29.3855L47.5424 27.1598L44.2328 25.9169Z" fill="#383F49"/>
<path id="Vector_71" fill-rule="evenodd" clip-rule="evenodd" d="M40.8749 27.2369L44.1894 28.5135L47.5424 27.1598L44.2328 25.9169L42.802 25.9072L40.8749 26.6829V27.2369Z" fill="url(#paint57_radial_2445_17215)"/>
<path id="Vector_72" fill-rule="evenodd" clip-rule="evenodd" d="M44.1895 28.5139L45.6492 30.8359L48.9973 29.3859L47.5425 27.1602L44.1895 28.5139Z" fill="url(#paint58_radial_2445_17215)"/>
<path id="Vector_73" fill-rule="evenodd" clip-rule="evenodd" d="M45.6491 30.8358L45.6443 32.6568L46.2609 33.1338L48.1398 32.3533L48.9395 31.226L48.9973 29.3857L45.6491 30.8358Z" fill="url(#paint59_radial_2445_17215)"/>
<path id="Vector_74" fill-rule="evenodd" clip-rule="evenodd" d="M45.0277 32.4162L45.6444 32.657L45.6492 30.836L44.1895 28.514L40.875 27.2373V27.8588L43.9389 29.0391L45.0277 30.8408V32.4162Z" fill="url(#paint60_radial_2445_17215)"/>
<path id="Vector_75" fill-rule="evenodd" clip-rule="evenodd" d="M45.6444 32.6569L45.0277 32.416L45.7455 32.9219L46.261 33.1338L45.6444 32.6569Z" fill="url(#paint61_radial_2445_17215)"/>
<path id="Vector_76" style="mix-blend-mode:screen" fill-rule="evenodd" clip-rule="evenodd" d="M16.744 23.0166L16.5464 23.5803L15.2264 24.9243L16.638 23.7151L17.7749 24.1005L16.6813 23.5754L16.744 23.0166Z" fill="url(#paint62_radial_2445_17215)"/>
<path id="Vector_77" style="mix-blend-mode:screen" fill-rule="evenodd" clip-rule="evenodd" d="M17.8279 24.1201L18.9985 24.6886L18.7866 25.6184L19.1672 24.7127L20.2077 24.5681L19.1142 24.5874L17.8279 24.1201Z" fill="url(#paint63_radial_2445_17215)"/>
<path id="Vector_78" style="mix-blend-mode:screen" fill-rule="evenodd" clip-rule="evenodd" d="M23.7486 20.6514L25.8587 21.5522L25.9069 21.9521L25.955 21.5474L26.6006 21.4752L25.9069 21.4366L23.7486 20.6514Z" fill="url(#paint64_radial_2445_17215)"/>
<path id="Vector_79" style="mix-blend-mode:screen" fill-rule="evenodd" clip-rule="evenodd" d="M26.6006 21.4755L27.2847 21.4177L28.5758 20.9648L27.3328 21.4996L27.2943 21.9043L27.251 21.4948L26.6006 21.4755Z" fill="url(#paint65_radial_2445_17215)"/>
<path id="Vector_80" style="mix-blend-mode:screen" fill-rule="evenodd" clip-rule="evenodd" d="M23.4548 26.0518L30.7822 29.0531C28.6962 28.2582 26.5862 27.5163 24.5194 26.6732C24.1389 26.5191 23.7197 26.2734 23.45 26.0518H23.4548Z" fill="url(#paint66_radial_2445_17215)"/>
<path id="Vector_81" style="mix-blend-mode:screen" opacity="0.5" fill-rule="evenodd" clip-rule="evenodd" d="M22.578 27.3428L29.9199 30.4067C27.8339 29.6118 25.7142 28.8121 23.6475 27.9642C23.2669 27.8101 22.8478 27.5644 22.578 27.3428Z" fill="url(#paint67_radial_2445_17215)"/>
<path id="Vector_82" style="mix-blend-mode:screen" fill-rule="evenodd" clip-rule="evenodd" d="M22.048 28.3984L29.467 31.525C27.381 30.7301 25.1794 29.863 23.1127 29.0199C22.7321 28.8657 22.313 28.62 22.0432 28.3984H22.048Z" fill="url(#paint68_radial_2445_17215)"/>
<path id="Vector_83" style="mix-blend-mode:screen" fill-rule="evenodd" clip-rule="evenodd" d="M33.9184 30.127L33.6535 30.6135L32.1504 32.0058L33.7739 30.7773L34.9638 31.1531L33.851 30.5846L33.9184 30.127Z" fill="url(#paint69_radial_2445_17215)"/>
<path id="Vector_84" style="mix-blend-mode:screen" fill-rule="evenodd" clip-rule="evenodd" d="M15.5781 28.8125L18.5746 30.0313L19.7115 30.0602L18.6757 30.2337L18.8347 39.2473L18.4493 30.2144L15.5781 28.8125Z" fill="url(#paint70_radial_2445_17215)"/>
<path id="Vector_85" style="mix-blend-mode:screen" fill-rule="evenodd" clip-rule="evenodd" d="M20.28 30.1514L29.5923 34.174C27.5063 33.3791 23.4162 31.6159 21.3495 30.7728C20.9689 30.6187 20.5498 30.373 20.28 30.1514Z" fill="url(#paint71_radial_2445_17215)"/>
<path id="Vector_86" style="mix-blend-mode:screen" opacity="0.75" fill-rule="evenodd" clip-rule="evenodd" d="M32.2083 36.0674L35.6961 37.768L35.8069 46.6563L35.9322 37.768L37.5027 37.6186L35.8021 37.5656L32.2083 36.0674Z" fill="url(#paint72_radial_2445_17215)"/>
<path id="Vector_87" style="mix-blend-mode:screen" opacity="0.5" fill-rule="evenodd" clip-rule="evenodd" d="M37.8784 37.6143L39.184 37.5131L40.3065 37.1133L39.2514 37.6528L39.1984 41.5888L39.0876 37.6577L37.8784 37.6143Z" fill="url(#paint73_radial_2445_17215)"/>
<path id="Vector_88" style="mix-blend-mode:screen" fill-rule="evenodd" clip-rule="evenodd" d="M35.1132 31.2109L36.4139 31.8709L36.1489 32.9356L36.6162 31.9095L37.5412 31.8083L36.5632 31.7553L35.1132 31.2109Z" fill="url(#paint74_radial_2445_17215)"/>
<path id="Vector_89" style="mix-blend-mode:screen" fill-rule="evenodd" clip-rule="evenodd" d="M41.2892 27.4004L44.1316 28.6L45.1963 30.1223L44.3725 28.5566L46.9547 27.4004L44.175 28.3687L41.2892 27.4004Z" fill="url(#paint75_radial_2445_17215)"/>
<path id="Vector_90" style="mix-blend-mode:screen" fill-rule="evenodd" clip-rule="evenodd" d="M45.6203 46.6469L47.1282 45.7316C47.475 45.4184 47.7496 44.9945 47.8267 44.6284L48.188 36.8047L48.0291 44.7103L47.3112 45.8038L45.6203 46.6469Z" fill="url(#paint76_radial_2445_17215)"/>
<path id="Vector_91" style="mix-blend-mode:screen" opacity="0.5" fill-rule="evenodd" clip-rule="evenodd" d="M50.881 26.2398L52.042 26.1193L53.2271 25.7002L52.1528 26.2012L52.3841 26.9383L52.0131 26.2349L50.881 26.2398Z" fill="url(#paint77_radial_2445_17215)"/>
<path id="Vector_92" style="mix-blend-mode:screen" opacity="0.5" fill-rule="evenodd" clip-rule="evenodd" d="M52.4322 27.0488L52.7454 27.9834L51.7192 28.1328L52.7695 28.1135L52.6972 30.3007L52.9284 28.0605L53.7474 27.6655L52.8754 27.9401L52.4322 27.0488Z" fill="url(#paint78_radial_2445_17215)"/>
<path id="Vector_93" style="mix-blend-mode:screen" opacity="0.5" fill-rule="evenodd" clip-rule="evenodd" d="M36.1297 32.9887L35.7539 33.7691L33.2488 32.8008L35.7154 33.9425L35.8021 36.6066L35.8936 33.9618L37.3341 33.8558L35.9032 33.7884L36.1297 32.9887Z" fill="url(#paint79_radial_2445_17215)"/>
<path id="Vector_94" style="mix-blend-mode:screen" opacity="0.75" fill-rule="evenodd" clip-rule="evenodd" d="M23.6716 39.502L28.6192 41.6699C27.9688 41.3664 27.3184 41.0629 26.6681 40.7642C25.6516 40.2921 24.6303 39.82 23.6089 39.3478C23.4981 39.2948 23.4018 39.1407 23.397 39.001C23.3825 39.1551 23.397 39.3816 23.6716 39.502ZM26.6825 41.8C25.666 41.323 24.6495 40.8461 23.633 40.3692C23.5222 40.3162 23.4259 40.162 23.4259 40.0223C23.4114 40.1765 23.4259 40.4029 23.7005 40.5233L28.6336 42.7105C27.9833 42.407 27.3329 42.1035 26.6873 41.8H26.6825ZM23.4451 41.0484C23.4307 41.2026 23.4451 41.429 23.7197 41.5495L28.6384 43.7511C27.9929 43.4476 27.3425 43.1392 26.697 42.8357C25.6805 42.354 24.6688 41.877 23.6523 41.3953C23.5415 41.3423 23.4451 41.1881 23.4451 41.0484ZM26.7162 43.8715C25.7046 43.3898 24.6881 42.908 23.6764 42.4214C23.5656 42.3684 23.4692 42.2095 23.4692 42.0746C23.4548 42.2287 23.4692 42.4503 23.7438 42.5756L28.6529 44.7917C28.0073 44.4833 27.3618 44.175 26.7211 43.8715H26.7162ZM26.7355 44.9073C25.7238 44.4207 24.7122 43.9341 23.7005 43.4476C23.5897 43.3946 23.4933 43.2356 23.4933 43.0959C23.4789 43.25 23.4933 43.4717 23.7679 43.5969L28.6625 45.8322C28.0218 45.5239 27.3762 45.2156 26.7355 44.9073Z" fill="url(#paint80_radial_2445_17215)"/>
<path id="Vector_95" fill-rule="evenodd" clip-rule="evenodd" d="M45.177 44.0884C45.4082 43.9776 45.6443 43.862 45.8756 43.7463C46.1068 43.6355 46.3428 43.5199 46.5741 43.4043C46.7042 43.3417 46.815 43.149 46.815 42.9803C46.815 42.8069 46.7138 42.7202 46.5837 42.7828C46.3525 42.8936 46.1164 43.0092 45.8852 43.1201C45.6539 43.2309 45.4179 43.3465 45.1866 43.4573C45.0566 43.5199 44.9458 43.7126 44.941 43.886C44.941 44.0595 45.0421 44.1462 45.1722 44.0836L45.177 44.0884ZM45.2011 42.6961C45.4323 42.5853 45.6684 42.4745 45.8996 42.3637C46.1309 42.2529 46.3669 42.1421 46.5982 42.0313C46.7283 41.9687 46.8391 41.7808 46.8439 41.6073C46.8439 41.4387 46.7427 41.3472 46.6126 41.4098C46.3814 41.5206 46.1453 41.6314 45.9141 41.7422C45.6828 41.853 45.4468 41.9638 45.2156 42.0746C45.0855 42.1373 44.9747 42.3252 44.9699 42.4986C44.9699 42.672 45.071 42.7587 45.2011 42.6961ZM45.2252 41.3087C45.4564 41.1979 45.6925 41.0871 45.9237 40.9811C46.155 40.8703 46.391 40.7595 46.6223 40.6535C46.7523 40.5908 46.8631 40.403 46.8631 40.2343C46.8631 40.0609 46.762 39.9742 46.6319 40.0368C46.3958 40.1476 46.1646 40.2584 45.9285 40.3644C45.6973 40.4752 45.4612 40.5812 45.23 40.692C45.0999 40.7546 44.9891 40.9425 44.9843 41.116C44.9843 41.2894 45.0855 41.3809 45.2156 41.3183L45.2252 41.3087ZM45.2493 39.9164C45.4805 39.8104 45.7166 39.6996 45.9478 39.5936C46.1791 39.4876 46.4151 39.3768 46.6512 39.2708C46.7812 39.213 46.8921 39.0203 46.8969 38.8517C46.8969 38.6783 46.7957 38.5916 46.6656 38.6494C46.4296 38.7554 46.1983 38.8662 45.9623 38.9722C45.731 39.0781 45.495 39.1889 45.2589 39.2949C45.1288 39.3527 45.018 39.5454 45.0132 39.7189C45.0132 39.8923 45.1144 39.9838 45.2445 39.9212L45.2493 39.9164ZM45.2734 38.5289C45.5094 38.423 45.7407 38.317 45.9767 38.211C46.208 38.105 46.444 37.999 46.6801 37.893C46.8101 37.8352 46.921 37.6473 46.9258 37.4739C46.9258 37.3053 46.8246 37.2138 46.6945 37.2716C46.4585 37.3775 46.2272 37.4835 45.9912 37.5895C45.7551 37.6955 45.5239 37.8015 45.2878 37.9075C45.1577 37.9653 45.0469 38.1532 45.0421 38.3266C45.0421 38.5 45.1433 38.5916 45.2734 38.5338V38.5289ZM45.1433 45.4806C45.3745 45.365 45.6106 45.2494 45.8418 45.1338C46.0731 45.0182 46.3091 44.9025 46.5404 44.7869C46.6705 44.7243 46.7813 44.5316 46.7813 44.3582C46.7813 44.1895 46.6801 44.1028 46.55 44.1655C46.3188 44.2811 46.0827 44.3919 45.8515 44.5075C45.6202 44.6231 45.3842 44.7387 45.1529 44.8495C45.0229 44.9122 44.912 45.1049 44.9072 45.2783C44.9072 45.4517 45.0084 45.5385 45.1385 45.4758L45.1433 45.4806ZM45.3023 37.1367C45.5383 37.0307 45.7696 36.9295 46.0056 36.8235C46.2417 36.7175 46.4729 36.6116 46.709 36.5056C46.8391 36.4478 46.9499 36.2599 46.9547 36.0913C46.9547 35.9178 46.8535 35.8311 46.7234 35.8889C46.4874 35.9901 46.2561 36.0961 46.0201 36.2021C45.784 36.3081 45.5528 36.4092 45.3167 36.5152C45.1866 36.573 45.0758 36.7609 45.071 36.9343C45.071 37.1078 45.1722 37.1993 45.3023 37.1415V37.1367Z" fill="url(#paint81_radial_2445_17215)"/>
<g id="Group_2">
<path id="Vector_96" fill-rule="evenodd" clip-rule="evenodd" d="M21.9661 32.0303L30.2089 35.6386L30.2475 39.6034L22.0577 35.9469L21.9661 32.0303Z" fill="url(#paint82_radial_2445_17215)"/>
<path id="Vector_97" style="mix-blend-mode:screen" fill-rule="evenodd" clip-rule="evenodd" d="M22.0576 35.9473L30.2474 39.6038C28.1614 38.8089 25.1938 37.4118 23.127 36.5687C22.7465 36.4146 22.3273 36.1689 22.0576 35.9473Z" fill="url(#paint83_radial_2445_17215)"/>
<g id="Vector_98" style="mix-blend-mode:screen">
<path fill-rule="evenodd" clip-rule="evenodd" d="M22.6839 34.8101L23.4932 35.1666L23.5077 35.7447L22.6984 35.3834L22.6839 34.8053V34.8101ZM23.8835 34.497L24.6928 34.8535L24.7169 36.2843L23.9076 35.923L23.8787 34.4922L23.8835 34.497ZM25.1119 35.7158L25.9213 36.0772L25.9357 36.8287L25.1264 36.4674L25.1119 35.7158ZM26.3019 34.7764L27.116 35.1329L27.1498 37.3634L26.3404 37.0021L26.3019 34.7764ZM27.5352 36.2506L28.3445 36.6071L28.359 37.903L27.5496 37.5417L27.5303 36.2458L27.5352 36.2506ZM28.7444 36.2795L29.5537 36.636L29.573 38.4426L28.7636 38.0813L28.7395 36.2747L28.7444 36.2795Z" fill="#FFC7E7"/>
</g>
<path id="Vector_99" style="mix-blend-mode:multiply" fill-rule="evenodd" clip-rule="evenodd" d="M30.2089 35.6386C28.1229 34.8437 25.136 33.5526 23.0693 32.7047C22.6887 32.5506 22.2359 32.2519 21.9709 32.0303L30.2089 35.6386Z" fill="url(#paint84_radial_2445_17215)"/>
</g>
<path id="Vector_100" opacity="0.5" fill-rule="evenodd" clip-rule="evenodd" d="M37.8929 50.7754H37.1125C36.992 50.7754 36.8909 50.7368 36.8041 50.6501C36.7174 50.5634 36.6789 50.4622 36.6789 50.3418V50.5104C36.6789 50.6308 36.7222 50.732 36.8041 50.8187C36.8909 50.9054 36.992 50.944 37.1125 50.944H37.8929C38.129 50.944 38.3265 50.7465 38.3265 50.5104V50.4285V50.3418C38.3265 50.3707 38.3265 50.3996 38.3169 50.4285C38.2783 50.626 38.1001 50.7754 37.8929 50.7754Z" fill="url(#paint85_radial_2445_17215)"/>
<g id="Group_3">
<path id="Vector_101" fill-rule="evenodd" clip-rule="evenodd" d="M42.5563 23.6809C42.8261 23.6472 43.1007 23.705 43.1633 23.8062C43.2259 23.9073 43.0573 24.0182 42.7827 24.0519C41.058 24.259 39.3333 24.4614 37.6135 24.6637C37.3389 24.6926 37.0691 24.6348 37.0065 24.5336C36.9439 24.4325 37.1125 24.3217 37.3871 24.2928C39.1118 24.0952 40.8364 23.8929 42.5611 23.6857L42.5563 23.6809ZM36.4669 21.6576C36.5488 21.5564 36.833 21.4938 37.1028 21.5179C37.3678 21.5419 37.5171 21.6431 37.4352 21.7491C36.9149 22.3995 36.3947 23.0498 35.8744 23.7098C35.7925 23.811 35.5082 23.8784 35.2433 23.8544C34.9783 23.8303 34.829 23.7243 34.9109 23.6231C35.4263 22.9679 35.9466 22.3127 36.4717 21.6672L36.4669 21.6576ZM26.4079 25.8729C26.1381 25.9018 25.8635 25.8344 25.7961 25.7332C25.7334 25.6272 25.9021 25.5212 26.1767 25.4923C27.9062 25.3189 29.6308 25.1358 31.3603 24.9528C31.6301 24.9238 31.9047 24.9865 31.9673 25.0876C32.03 25.1888 31.8614 25.2996 31.5868 25.3285C29.8573 25.5116 28.1326 25.6947 26.4031 25.8729H26.4079ZM32.5165 28.0552C32.4346 28.1612 32.1504 28.2287 31.8854 28.1998C31.6205 28.1709 31.4711 28.0649 31.5482 27.9541C32.0589 27.2748 32.5792 26.6004 33.0995 25.9307C33.1814 25.8247 33.4656 25.7621 33.7306 25.7862C33.9955 25.8151 34.1449 25.9211 34.0678 26.0271C33.5523 26.7015 33.032 27.376 32.5165 28.0552Z" fill="#FF2C82"/>
<path id="Vector_102" fill-rule="evenodd" clip-rule="evenodd" d="M36.4669 21.8262C36.5488 21.7251 36.833 21.6624 37.1028 21.6865C37.2473 21.701 37.3533 21.7347 37.4111 21.7829C37.4208 21.7732 37.4256 21.7636 37.4352 21.754C37.5171 21.6528 37.3678 21.5516 37.1028 21.5227C36.833 21.4986 36.5536 21.5613 36.4669 21.6624C35.9466 22.3128 35.4263 22.9632 34.906 23.6184C34.8675 23.6665 34.8771 23.7147 34.9301 23.7533C35.4408 23.1077 35.9514 22.4622 36.4669 21.8262Z" fill="url(#paint86_linear_2445_17215)"/>
<path id="Vector_103" fill-rule="evenodd" clip-rule="evenodd" d="M31.9673 25.0873C31.9047 24.9861 31.6301 24.9235 31.3603 24.9524C29.6308 25.1354 27.9013 25.3137 26.1767 25.4919C25.9069 25.5209 25.7334 25.6268 25.7961 25.7328C25.8057 25.7473 25.8153 25.7569 25.8298 25.7714C25.8924 25.7184 26.0177 25.675 26.1718 25.6606C27.9013 25.4871 29.626 25.3041 31.3555 25.121C31.5916 25.0969 31.8325 25.1403 31.9288 25.2173C31.977 25.1788 31.9914 25.1354 31.9625 25.0873H31.9673Z" fill="url(#paint87_linear_2445_17215)"/>
<path id="Vector_104" fill-rule="evenodd" clip-rule="evenodd" d="M33.7305 25.786C33.4655 25.7571 33.1813 25.8246 33.0994 25.9305C32.5839 26.605 32.0636 27.2746 31.5482 27.9539C31.5096 28.0021 31.5241 28.0503 31.5674 28.0936C32.0733 27.424 32.5888 26.7592 33.0994 26.0943C33.1813 25.9883 33.4655 25.9257 33.7305 25.9498C33.875 25.9643 33.9859 26.0028 34.0437 26.051C34.0485 26.0413 34.0581 26.0317 34.0629 26.0221C34.1448 25.9161 33.9955 25.8101 33.7257 25.7812L33.7305 25.786Z" fill="url(#paint88_linear_2445_17215)"/>
<path id="Vector_105" fill-rule="evenodd" clip-rule="evenodd" d="M37.3822 24.2875C37.1124 24.3164 36.939 24.4272 37.0016 24.5284C37.0113 24.5428 37.0209 24.5525 37.0354 24.5669C37.098 24.5139 37.2232 24.4706 37.3774 24.4513C38.206 24.3549 39.0395 24.2586 39.8681 24.1622C40.7641 24.0562 41.6602 23.9503 42.5514 23.8443C42.7875 23.8154 43.0236 23.8539 43.1199 23.931C43.1681 23.8924 43.1825 23.8443 43.1536 23.8009C43.091 23.6997 42.8212 23.6419 42.5466 23.6757C41.3278 23.8202 40.109 23.9647 38.8901 24.1092C38.3843 24.167 37.8784 24.2249 37.3726 24.2875H37.3822Z" fill="url(#paint89_linear_2445_17215)"/>
</g>
</g>
</g>
<defs>
<filter id="filter0_f_2445_17215" x="0" y="0" width="70" height="70" filterUnits="userSpaceOnUse" color-interpolation-filters="sRGB">
<feFlood flood-opacity="0" result="BackgroundImageFix"/>
<feBlend mode="normal" in="SourceGraphic" in2="BackgroundImageFix" result="shape"/>
<feGaussianBlur stdDeviation="11.5" result="effect1_foregroundBlur_2445_17215"/>
</filter>
<radialGradient id="paint0_radial_2445_17215" cx="0" cy="0" r="1" gradientUnits="userSpaceOnUse" gradientTransform="translate(20.2174 6.32905) scale(4.90424 4.90425)">
<stop stop-color="#989CAD"/>
<stop offset="1" stop-color="#4A4B59"/>
</radialGradient>
<radialGradient id="paint1_radial_2445_17215" cx="0" cy="0" r="1" gradientUnits="userSpaceOnUse" gradientTransform="translate(2.58048 6.32904) scale(24.1599 24.1599)">
<stop stop-color="#BDC8D1"/>
<stop offset="1" stop-color="#717C99"/>
</radialGradient>
<radialGradient id="paint2_radial_2445_17215" cx="0" cy="0" r="1" gradientUnits="userSpaceOnUse" gradientTransform="translate(17.0138 6.32931) scale(0.240877)">
<stop stop-color="#F0F8FF"/>
<stop offset="1" stop-color="#B1C5D6"/>
</radialGradient>
<radialGradient id="paint3_radial_2445_17215" cx="0" cy="0" r="1" gradientUnits="userSpaceOnUse" gradientTransform="translate(11.6229 6.32865) scale(0.240877)">
<stop stop-color="#90A8BD"/>
<stop offset="1" stop-color="#616C8A"/>
</radialGradient>
<radialGradient id="paint4_radial_2445_17215" cx="0" cy="0" r="1" gradientUnits="userSpaceOnUse" gradientTransform="translate(23.3054 6.3293) scale(0.240877)">
<stop stop-color="#5A5E6E"/>
<stop offset="1" stop-color="#3E3F4A"/>
</radialGradient>
<radialGradient id="paint5_radial_2445_17215" cx="0" cy="0" r="1" gradientUnits="userSpaceOnUse" gradientTransform="translate(26.4946 6.32943) scale(19.0919 19.0919)">
<stop stop-color="#D0DCE6"/>
<stop offset="1" stop-color="#8A99BD"/>
</radialGradient>
<radialGradient id="paint6_radial_2445_17215" cx="0" cy="0" r="1" gradientUnits="userSpaceOnUse" gradientTransform="translate(11.7192 6.32904) scale(0.240877)">
<stop stop-color="#E7F4FF"/>
<stop offset="1" stop-color="#A9BCCC"/>
</radialGradient>
<radialGradient id="paint7_radial_2445_17215" cx="0" cy="0" r="1" gradientUnits="userSpaceOnUse" gradientTransform="translate(37.8736 6.32834) scale(6.02675 6.02672)">
<stop stop-color="#8E9CBC"/>
<stop offset="1" stop-color="#404B68"/>
</radialGradient>
<radialGradient id="paint8_radial_2445_17215" cx="0" cy="0" r="1" gradientUnits="userSpaceOnUse" gradientTransform="translate(18.2085 36.7132) scale(31.2273 31.2273)">
<stop stop-color="#BDC8D1"/>
<stop offset="1" stop-color="#717C99"/>
</radialGradient>
<radialGradient id="paint9_radial_2445_17215" cx="0" cy="0" r="1" gradientUnits="userSpaceOnUse" gradientTransform="translate(51.5169 6.32927) scale(16.9482 16.9481)">
<stop stop-color="#A6B4BF"/>
<stop offset="1" stop-color="#717C99"/>
</radialGradient>
<radialGradient id="paint10_radial_2445_17215" cx="0" cy="0" r="1" gradientUnits="userSpaceOnUse" gradientTransform="translate(65.1601 43.4625) scale(24.5983 24.5983)">
<stop stop-color="#90A8BD"/>
<stop offset="1" stop-color="#616C8A"/>
</radialGradient>
<radialGradient id="paint11_radial_2445_17215" cx="0" cy="0" r="1" gradientUnits="userSpaceOnUse" gradientTransform="translate(65.4541 38.1202) scale(25.4753 25.4751)">
<stop stop-color="#E7F4FF"/>
<stop offset="1" stop-color="#A9BCCC"/>
</radialGradient>
<radialGradient id="paint12_radial_2445_17215" cx="0" cy="0" r="1" gradientUnits="userSpaceOnUse" gradientTransform="translate(24.6447 3.21218) scale(50.7624 50.7624)">
<stop stop-color="#BDC8D1"/>
<stop offset="1" stop-color="#717C99"/>
</radialGradient>
<radialGradient id="paint13_radial_2445_17215" cx="0" cy="0" r="1" gradientUnits="userSpaceOnUse" gradientTransform="translate(66.8655 43.9778) scale(34.7103 34.7103)">
<stop stop-color="#BDC8D1"/>
<stop offset="1" stop-color="#717C99"/>
</radialGradient>
<radialGradient id="paint14_radial_2445_17215" cx="0" cy="0" r="1" gradientUnits="userSpaceOnUse" gradientTransform="translate(37.2474 6.32917) scale(0.240877)">
<stop stop-color="#727D87"/>
<stop offset="1" stop-color="#414D66"/>
</radialGradient>
<radialGradient id="paint15_radial_2445_17215" cx="0" cy="0" r="1" gradientUnits="userSpaceOnUse" gradientTransform="translate(35.2048 14.8408) scale(5.49196 5.49199)">
<stop stop-color="#727D87"/>
<stop offset="1" stop-color="#414D66"/>
</radialGradient>
<radialGradient id="paint16_radial_2445_17215" cx="0" cy="0" r="1" gradientUnits="userSpaceOnUse" gradientTransform="translate(29.7176 31.9772) scale(14.5634 14.5634)">
<stop stop-color="#BDC8D1"/>
<stop offset="1" stop-color="#717C99"/>
</radialGradient>
<radialGradient id="paint17_radial_2445_17215" cx="0" cy="0" r="1" gradientUnits="userSpaceOnUse" gradientTransform="translate(25.0879 32.1745) scale(9.71215 9.71216)">
<stop stop-color="#D0DCE6"/>
<stop offset="1" stop-color="#8A99BD"/>
</radialGradient>
<radialGradient id="paint18_radial_2445_17215" cx="0" cy="0" r="1" gradientUnits="userSpaceOnUse" gradientTransform="translate(27.7279 26.3263) scale(10.6853 10.6853)">
<stop stop-color="#5A5E6E"/>
<stop offset="1" stop-color="#3E3F4A"/>
</radialGradient>
<radialGradient id="paint19_radial_2445_17215" cx="0" cy="0" r="1" gradientUnits="userSpaceOnUse" gradientTransform="translate(26.2538 6.32877) scale(0.240877)">
<stop stop-color="#AAB3D1"/>
<stop offset="1" stop-color="#6C6D82"/>
</radialGradient>
<radialGradient id="paint20_radial_2445_17215" cx="0" cy="0" r="1" gradientUnits="userSpaceOnUse" gradientTransform="translate(25.8539 6.32883) scale(0.240877)">
<stop stop-color="#7A8196"/>
<stop offset="1" stop-color="#535463"/>
</radialGradient>
<radialGradient id="paint21_radial_2445_17215" cx="0" cy="0" r="1" gradientUnits="userSpaceOnUse" gradientTransform="translate(21.1761 25.6713) scale(56.7554)">
<stop stop-color="#E7F4FF"/>
<stop offset="1" stop-color="#A9BCCC"/>
</radialGradient>
<radialGradient id="paint22_radial_2445_17215" cx="0" cy="0" r="1" gradientUnits="userSpaceOnUse" gradientTransform="translate(17.6159 24.1537) scale(6.45552 6.4555)">
<stop stop-color="#BDC8D1"/>
<stop offset="1" stop-color="#717C99"/>
</radialGradient>
<radialGradient id="paint23_radial_2445_17215" cx="0" cy="0" r="1" gradientUnits="userSpaceOnUse" gradientTransform="translate(15.8816 6.32858) scale(0.240876)">
<stop stop-color="white"/>
<stop offset="1" stop-color="#8999C4"/>
</radialGradient>
<radialGradient id="paint24_radial_2445_17215" cx="0" cy="0" r="1" gradientUnits="userSpaceOnUse" gradientTransform="translate(38.6685 6.32851) scale(17.2179)">
<stop stop-color="#BDC8D1"/>
<stop offset="1" stop-color="#929CBD"/>
</radialGradient>
<radialGradient id="paint25_radial_2445_17215" cx="0" cy="0" r="1" gradientUnits="userSpaceOnUse" gradientTransform="translate(53.9449 22.8286) scale(8.74867 8.74865)">
<stop stop-color="#E7F4FF"/>
<stop offset="1" stop-color="#A9BCCC"/>
</radialGradient>
<radialGradient id="paint26_radial_2445_17215" cx="0" cy="0" r="1" gradientUnits="userSpaceOnUse" gradientTransform="translate(43.9149 6.32875) scale(0.240877)">
<stop stop-color="#BDC8D1"/>
<stop offset="1" stop-color="#7A84A1"/>
</radialGradient>
<radialGradient id="paint27_radial_2445_17215" cx="0" cy="0" r="1" gradientUnits="userSpaceOnUse" gradientTransform="translate(51.7048 6.32853) scale(6.38323 6.38324)">
<stop stop-color="#90A1BD"/>
<stop offset="1" stop-color="#616C8A"/>
</radialGradient>
<radialGradient id="paint28_radial_2445_17215" cx="0" cy="0" r="1" gradientUnits="userSpaceOnUse" gradientTransform="translate(26.3839 21.3789) scale(4.83199 4.83199)">
<stop stop-color="#989CAD"/>
<stop offset="1" stop-color="#4A4B59"/>
</radialGradient>
<radialGradient id="paint29_radial_2445_17215" cx="0" cy="0" r="1" gradientUnits="userSpaceOnUse" gradientTransform="translate(27.0535 18.8061) scale(3.78659 3.78658)">
<stop stop-color="#7A8196"/>
<stop offset="1" stop-color="#535463"/>
</radialGradient>
<radialGradient id="paint30_radial_2445_17215" cx="0" cy="0" r="1" gradientUnits="userSpaceOnUse" gradientTransform="translate(26.2248 6.32905) scale(0.240877)">
<stop stop-color="#D1D5E6"/>
<stop offset="1" stop-color="#83849E"/>
</radialGradient>
<radialGradient id="paint31_radial_2445_17215" cx="0" cy="0" r="1" gradientUnits="userSpaceOnUse" gradientTransform="translate(24.8519 6.32872) scale(10.8539 10.8539)">
<stop stop-color="#8F97B0"/>
<stop offset="1" stop-color="#535463"/>
</radialGradient>
<radialGradient id="paint32_radial_2445_17215" cx="0" cy="0" r="1" gradientUnits="userSpaceOnUse" gradientTransform="translate(26.3163 34.9595) scale(19.4966 19.4966)">
<stop stop-color="#BDC8D1"/>
<stop offset="1" stop-color="#717C99"/>
</radialGradient>
<radialGradient id="paint33_radial_2445_17215" cx="0" cy="0" r="1" gradientUnits="userSpaceOnUse" gradientTransform="translate(48.9493 34.275) scale(7.57323 7.57317)">
<stop stop-color="#90A8BD"/>
<stop offset="1" stop-color="#616C8A"/>
</radialGradient>
<radialGradient id="paint34_radial_2445_17215" cx="0" cy="0" r="1" gradientUnits="userSpaceOnUse" gradientTransform="translate(59.9042 31.318) scale(10.2324 10.2324)">
<stop stop-color="#E7F4FF"/>
<stop offset="1" stop-color="#A9BCCC"/>
</radialGradient>
<radialGradient id="paint35_radial_2445_17215" cx="0" cy="0" r="1" gradientUnits="userSpaceOnUse" gradientTransform="translate(39.5791 18.2473) scale(19.8097 19.8097)">
<stop stop-color="#BDC8D1"/>
<stop offset="1" stop-color="#717C99"/>
</radialGradient>
<radialGradient id="paint36_radial_2445_17215" cx="0" cy="0" r="1" gradientUnits="userSpaceOnUse" gradientTransform="translate(38.4325 15.7473) scale(20.4842)">
<stop stop-color="#BDC8D1"/>
<stop offset="1" stop-color="#717C99"/>
</radialGradient>
<radialGradient id="paint37_radial_2445_17215" cx="0" cy="0" r="1" gradientUnits="userSpaceOnUse" gradientTransform="translate(11.1651 27.7812) scale(9.48098 9.48091)">
<stop stop-color="#BDC8D1"/>
<stop offset="1" stop-color="#717C99"/>
</radialGradient>
<radialGradient id="paint38_radial_2445_17215" cx="0" cy="0" r="1" gradientUnits="userSpaceOnUse" gradientTransform="translate(27.1257 18.4207) scale(19.222 19.222)">
<stop stop-color="#E7F4FF"/>
<stop offset="1" stop-color="#A9BCCC"/>
</radialGradient>
<radialGradient id="paint39_radial_2445_17215" cx="0" cy="0" r="1" gradientUnits="userSpaceOnUse" gradientTransform="translate(21.5567 24.785) scale(26.535 26.535)">
<stop stop-color="#F0F8FF"/>
<stop offset="1" stop-color="#B1C5D6"/>
</radialGradient>
<radialGradient id="paint40_radial_2445_17215" cx="0" cy="0" r="1" gradientUnits="userSpaceOnUse" gradientTransform="translate(34.4917 30.0602) scale(7.24079 7.24075)">
<stop stop-color="white"/>
<stop offset="1" stop-color="#8999C4"/>
</radialGradient>
<radialGradient id="paint41_radial_2445_17215" cx="0" cy="0" r="1" gradientUnits="userSpaceOnUse" gradientTransform="translate(27.8002 23.7923) scale(17.6033 17.6033)">
<stop stop-color="#F0F8FF"/>
<stop offset="1" stop-color="#B1C5D6"/>
</radialGradient>
<radialGradient id="paint42_radial_2445_17215" cx="0" cy="0" r="1" gradientUnits="userSpaceOnUse" gradientTransform="translate(18.353 6.329) scale(0.240877)">
<stop stop-color="#F0F8FF"/>
<stop offset="1" stop-color="#BACFE0"/>
</radialGradient>
<radialGradient id="paint43_radial_2445_17215" cx="0" cy="0" r="1" gradientUnits="userSpaceOnUse" gradientTransform="translate(29.573 27.7667) scale(15.551 15.551)">
<stop stop-color="#E7F4FF"/>
<stop offset="1" stop-color="#A9BCCC"/>
</radialGradient>
<radialGradient id="paint44_radial_2445_17215" cx="0" cy="0" r="1" gradientUnits="userSpaceOnUse" gradientTransform="translate(40.8991 29.2465) scale(5.993 5.99302)">
<stop stop-color="#90A1BD"/>
<stop offset="1" stop-color="#616C8A"/>
</radialGradient>
<radialGradient id="paint45_radial_2445_17215" cx="0" cy="0" r="1" gradientUnits="userSpaceOnUse" gradientTransform="translate(55.1637 6.3285) scale(16.2349 16.2351)">
<stop stop-color="#A3B2BF"/>
<stop offset="1" stop-color="#596178"/>
</radialGradient>
<radialGradient id="paint46_radial_2445_17215" cx="0" cy="0" r="1" gradientUnits="userSpaceOnUse" gradientTransform="translate(48.4674 45.004) scale(5.16439 5.1644)">
<stop stop-color="#BDC8D1"/>
<stop offset="1" stop-color="#717C99"/>
</radialGradient>
<radialGradient id="paint47_radial_2445_17215" cx="0" cy="0" r="1" gradientUnits="userSpaceOnUse" gradientTransform="translate(48.583 6.32899) scale(0.240877)">
<stop stop-color="#BDC8D1"/>
<stop offset="1" stop-color="#5B647D"/>
</radialGradient>
<radialGradient id="paint48_radial_2445_17215" cx="0" cy="0" r="1" gradientUnits="userSpaceOnUse" gradientTransform="translate(51.8349 6.32889) scale(8.67638 8.67638)">
<stop stop-color="#54596E"/>
<stop offset="1" stop-color="#333542"/>
</radialGradient>
<radialGradient id="paint49_radial_2445_17215" cx="0" cy="0" r="1" gradientUnits="userSpaceOnUse" gradientTransform="translate(23.8402 6.32905) scale(13.0459 13.0459)">
<stop stop-color="#363A47"/>
<stop offset="1" stop-color="#21232B"/>
</radialGradient>
<linearGradient id="paint50_linear_2445_17215" x1="23.397" y1="6.08839" x2="29.9199" y2="6.08839" gradientUnits="userSpaceOnUse">
<stop stop-color="#2B2C33"/>
<stop offset="0.15" stop-color="#444552"/>
<stop offset="0.37" stop-color="#4E505F"/>
<stop offset="0.67" stop-color="#575A6A"/>
<stop offset="1" stop-color="#5A5E6E"/>
</linearGradient>
<linearGradient id="paint51_linear_2445_17215" x1="23.4211" y1="41.559" x2="29.9344" y2="41.559" gradientUnits="userSpaceOnUse">
<stop stop-color="#2B2C33"/>
<stop offset="0.15" stop-color="#444552"/>
<stop offset="0.37" stop-color="#4E505F"/>
<stop offset="0.67" stop-color="#575A6A"/>
<stop offset="1" stop-color="#5A5E6E"/>
</linearGradient>
<linearGradient id="paint52_linear_2445_17215" x1="23.4452" y1="42.595" x2="29.9488" y2="42.595" gradientUnits="userSpaceOnUse">
<stop stop-color="#2B2C33"/>
<stop offset="0.15" stop-color="#444552"/>
<stop offset="0.37" stop-color="#4E505F"/>
<stop offset="0.67" stop-color="#575A6A"/>
<stop offset="1" stop-color="#5A5E6E"/>
</linearGradient>
<linearGradient id="paint53_linear_2445_17215" x1="23.4692" y1="43.6311" x2="29.9584" y2="43.6311" gradientUnits="userSpaceOnUse">
<stop stop-color="#2B2C33"/>
<stop offset="0.15" stop-color="#444552"/>
<stop offset="0.37" stop-color="#4E505F"/>
<stop offset="0.67" stop-color="#575A6A"/>
<stop offset="1" stop-color="#5A5E6E"/>
</linearGradient>
<linearGradient id="paint54_linear_2445_17215" x1="23.4933" y1="44.6572" x2="29.9729" y2="44.6572" gradientUnits="userSpaceOnUse">
<stop stop-color="#2B2C33"/>
<stop offset="0.15" stop-color="#444552"/>
<stop offset="0.37" stop-color="#4E505F"/>
<stop offset="0.67" stop-color="#575A6A"/>
<stop offset="1" stop-color="#5A5E6E"/>
</linearGradient>
<radialGradient id="paint55_radial_2445_17215" cx="0" cy="0" r="1" gradientUnits="userSpaceOnUse" gradientTransform="translate(20.0584 6.32863) scale(19.5303 19.5303)">
<stop stop-color="white"/>
<stop offset="1"/>
</radialGradient>
<radialGradient id="paint56_radial_2445_17215" cx="0" cy="0" r="1" gradientUnits="userSpaceOnUse" gradientTransform="translate(29.3225 26.4182) scale(9.47607 9.47609)">
<stop stop-color="white"/>
<stop offset="1"/>
</radialGradient>
<radialGradient id="paint57_radial_2445_17215" cx="0" cy="0" r="1" gradientUnits="userSpaceOnUse" gradientTransform="translate(40.9279 27.2128) scale(14.6453 14.6453)">
<stop stop-color="#8F97B0"/>
<stop offset="1" stop-color="#535463"/>
</radialGradient>
<radialGradient id="paint58_radial_2445_17215" cx="0" cy="0" r="1" gradientUnits="userSpaceOnUse" gradientTransform="translate(39.29 19.1968) scale(15.5895 15.5895)">
<stop stop-color="#7A8196"/>
<stop offset="1" stop-color="#535463"/>
</radialGradient>
<radialGradient id="paint59_radial_2445_17215" cx="0" cy="0" r="1" gradientUnits="userSpaceOnUse" gradientTransform="translate(40.557 6.32902) scale(12.6894 12.6894)">
<stop stop-color="#6C7285"/>
<stop offset="1" stop-color="#42434F"/>
</radialGradient>
<radialGradient id="paint60_radial_2445_17215" cx="0" cy="0" r="1" gradientUnits="userSpaceOnUse" gradientTransform="translate(41.3905 27.2325) scale(12.1739 12.1739)">
<stop stop-color="#989CAD"/>
<stop offset="1" stop-color="#4A4B59"/>
</radialGradient>
<radialGradient id="paint61_radial_2445_17215" cx="0" cy="0" r="1" gradientUnits="userSpaceOnUse" gradientTransform="translate(46.5838 31.0816) scale(2.05709 2.05708)">
<stop stop-color="#5A5E6E"/>
<stop offset="1" stop-color="#3E3F4A"/>
</radialGradient>
<radialGradient id="paint62_radial_2445_17215" cx="0" cy="0" r="1" gradientUnits="userSpaceOnUse" gradientTransform="translate(16.3297 23.5273) scale(5.16438 5.1644)">
<stop stop-color="white"/>
<stop offset="1"/>
</radialGradient>
<radialGradient id="paint63_radial_2445_17215" cx="0" cy="0" r="1" gradientUnits="userSpaceOnUse" gradientTransform="translate(19.225 24.4862) scale(4.83681 4.83681)">
<stop stop-color="white"/>
<stop offset="1"/>
</radialGradient>
<radialGradient id="paint64_radial_2445_17215" cx="0" cy="0" r="1" gradientUnits="userSpaceOnUse" gradientTransform="translate(26.4561 6.32883) scale(3.38192 3.38191)">
<stop stop-color="#5D768F"/>
<stop offset="1"/>
</radialGradient>
<radialGradient id="paint65_radial_2445_17215" cx="0" cy="0" r="1" gradientUnits="userSpaceOnUse" gradientTransform="translate(27.4099 20.7673) scale(2.52921)">
<stop stop-color="#5D768F"/>
<stop offset="1"/>
</radialGradient>
<radialGradient id="paint66_radial_2445_17215" cx="0" cy="0" r="1" gradientUnits="userSpaceOnUse" gradientTransform="translate(26.2971 25.9891) scale(7.43346)">
<stop stop-color="#5D768F"/>
<stop offset="1"/>
</radialGradient>
<radialGradient id="paint67_radial_2445_17215" cx="0" cy="0" r="1" gradientUnits="userSpaceOnUse" gradientTransform="translate(23.3295 29.0771) scale(7.56836 7.56835)">
<stop stop-color="#5D768F"/>
<stop offset="1"/>
</radialGradient>
<radialGradient id="paint68_radial_2445_17215" cx="0" cy="0" r="1" gradientUnits="userSpaceOnUse" gradientTransform="translate(25.5889 26.4859) scale(10.5167 10.5167)">
<stop stop-color="white"/>
<stop offset="1"/>
</radialGradient>
<radialGradient id="paint69_radial_2445_17215" cx="0" cy="0" r="1" gradientUnits="userSpaceOnUse" gradientTransform="translate(33.2247 30.0161) scale(5.14994)">
<stop stop-color="white"/>
<stop offset="1"/>
</radialGradient>
<radialGradient id="paint70_radial_2445_17215" cx="0" cy="0" r="1" gradientUnits="userSpaceOnUse" gradientTransform="translate(17.2594 27.7767) scale(15.1319 15.1319)">
<stop stop-color="white"/>
<stop offset="1"/>
</radialGradient>
<radialGradient id="paint71_radial_2445_17215" cx="0" cy="0" r="1" gradientUnits="userSpaceOnUse" gradientTransform="translate(23.9365 28.5471) scale(11.6632 11.6633)">
<stop stop-color="white"/>
<stop offset="1"/>
</radialGradient>
<radialGradient id="paint72_radial_2445_17215" cx="0" cy="0" r="1" gradientUnits="userSpaceOnUse" gradientTransform="translate(34.2798 35.2099) scale(13.6962 13.6963)">
<stop stop-color="white"/>
<stop offset="1"/>
</radialGradient>
<radialGradient id="paint73_radial_2445_17215" cx="0" cy="0" r="1" gradientUnits="userSpaceOnUse" gradientTransform="translate(37.4545 34.2517) scale(9.38939 9.38938)">
<stop stop-color="white"/>
<stop offset="1"/>
</radialGradient>
<radialGradient id="paint74_radial_2445_17215" cx="0" cy="0" r="1" gradientUnits="userSpaceOnUse" gradientTransform="translate(37.1221 29.8668) scale(5.42452 5.42454)">
<stop stop-color="white"/>
<stop offset="1"/>
</radialGradient>
<radialGradient id="paint75_radial_2445_17215" cx="0" cy="0" r="1" gradientUnits="userSpaceOnUse" gradientTransform="translate(43.698 29.2214) scale(5.42937 5.42936)">
<stop stop-color="#5D768F"/>
<stop offset="1"/>
</radialGradient>
<radialGradient id="paint76_radial_2445_17215" cx="0" cy="0" r="1" gradientUnits="userSpaceOnUse" gradientTransform="translate(52.0758 45.5871) scale(9.5387 9.53872)">
<stop stop-color="white"/>
<stop offset="1"/>
</radialGradient>
<radialGradient id="paint77_radial_2445_17215" cx="0" cy="0" r="1" gradientUnits="userSpaceOnUse" gradientTransform="translate(51.7722 24.5633) scale(5.18366 5.18367)">
<stop stop-color="white"/>
<stop offset="1"/>
</radialGradient>
<radialGradient id="paint78_radial_2445_17215" cx="0" cy="0" r="1" gradientUnits="userSpaceOnUse" gradientTransform="translate(52.808 27.9931) scale(3.26628 3.26629)">
<stop stop-color="white"/>
<stop offset="1"/>
</radialGradient>
<radialGradient id="paint79_radial_2445_17215" cx="0" cy="0" r="1" gradientUnits="userSpaceOnUse" gradientTransform="translate(35.5467 32.5744) scale(8.46924 8.46923)">
<stop stop-color="white"/>
<stop offset="1"/>
</radialGradient>
<radialGradient id="paint80_radial_2445_17215" cx="0" cy="0" r="1" gradientUnits="userSpaceOnUse" gradientTransform="translate(25.3529 38.7649) scale(10.377 10.377)">
<stop stop-color="#5D768F"/>
<stop offset="1"/>
</radialGradient>
<radialGradient id="paint81_radial_2445_17215" cx="0" cy="0" r="1" gradientUnits="userSpaceOnUse" gradientTransform="translate(45.1192 34.1209) scale(11.7548 11.7548)">
<stop stop-color="#FF6699"/>
<stop offset="0.19" stop-color="#FF508E"/>
<stop offset="0.74" stop-color="#FF1672"/>
<stop offset="1" stop-color="#FF0068"/>
</radialGradient>
<radialGradient id="paint82_radial_2445_17215" cx="0" cy="0" r="1" gradientUnits="userSpaceOnUse" gradientTransform="translate(26.3886 32.7914) scale(8.17054)">
<stop stop-color="#FF6699"/>
<stop offset="0.19" stop-color="#FF509B"/>
<stop offset="0.74" stop-color="#FF16A3"/>
<stop offset="1" stop-color="#FF00A6"/>
</radialGradient>
<radialGradient id="paint83_radial_2445_17215" cx="0" cy="0" r="1" gradientUnits="userSpaceOnUse" gradientTransform="translate(23.7292 6.32905) scale(0.240877)">
<stop stop-color="#7FFF3D"/>
<stop offset="1"/>
</radialGradient>
<radialGradient id="paint84_radial_2445_17215" cx="0" cy="0" r="1" gradientUnits="userSpaceOnUse" gradientTransform="translate(23.6522 34.309) scale(6.8987 6.89871)">
<stop stop-color="#C75C88"/>
<stop offset="1" stop-color="white"/>
</radialGradient>
<radialGradient id="paint85_radial_2445_17215" cx="0" cy="0" r="1" gradientUnits="userSpaceOnUse" gradientTransform="translate(40.0367 49.2627) scale(4.1816 4.18162)">
<stop stop-color="#E7F4FF"/>
<stop offset="1" stop-color="#A9BCCC"/>
</radialGradient>
<linearGradient id="paint86_linear_2445_17215" x1="34.8867" y1="22.6308" x2="37.4593" y2="22.6308" gradientUnits="userSpaceOnUse">
<stop stop-color="#91044B"/>
<stop offset="0.15" stop-color="#BA0950"/>
<stop offset="0.28" stop-color="#C00651"/>
<stop offset="0.62" stop-color="#CB0153"/>
<stop offset="1" stop-color="#CF0054"/>
</linearGradient>
<linearGradient id="paint87_linear_2445_17215" x1="25.7816" y1="25.3571" x2="31.9818" y2="25.3571" gradientUnits="userSpaceOnUse">
<stop stop-color="#91044B"/>
<stop offset="0.15" stop-color="#BA0950"/>
<stop offset="0.28" stop-color="#C00651"/>
<stop offset="0.62" stop-color="#CB0153"/>
<stop offset="1" stop-color="#CF0054"/>
</linearGradient>
<linearGradient id="paint88_linear_2445_17215" x1="31.5241" y1="26.9374" x2="34.087" y2="26.9374" gradientUnits="userSpaceOnUse">
<stop stop-color="#91044B"/>
<stop offset="0.15" stop-color="#BA0950"/>
<stop offset="0.28" stop-color="#C00651"/>
<stop offset="0.62" stop-color="#CB0153"/>
<stop offset="1" stop-color="#CF0054"/>
</linearGradient>
<linearGradient id="paint89_linear_2445_17215" x1="36.992" y1="24.1189" x2="43.1729" y2="24.1189" gradientUnits="userSpaceOnUse">
<stop stop-color="#91044B"/>
<stop offset="0.15" stop-color="#BA0950"/>
<stop offset="0.28" stop-color="#C00651"/>
<stop offset="0.62" stop-color="#CB0153"/>
<stop offset="1" stop-color="#CF0054"/>
</linearGradient>
</defs>
</svg>
