<?xml version="1.0" standalone="no"?>
<!DOCTYPE svg PUBLIC "-//W3C//DTD SVG 20010904//EN"
 "http://www.w3.org/TR/2001/REC-SVG-20010904/DTD/svg10.dtd">
<svg version="1.0" xmlns="http://www.w3.org/2000/svg"
 width="512.000000pt" height="512.000000pt" viewBox="0 0 512.000000 512.000000"
 preserveAspectRatio="xMidYMid meet">

<g transform="translate(0.000000,512.000000) scale(0.100000,-0.100000)"
fill="#b0e822" stroke="none">
<path d="M1446 4760 c-91 -84 -164 -207 -191 -322 -19 -82 -19 -234 0 -309 9
-32 27 -86 42 -119 l26 -61 -40 -42 c-22 -23 -53 -59 -69 -81 l-28 -38 -21 68
c-48 153 -140 279 -267 364 -100 66 -139 50 -184 -78 -65 -187 -51 -354 44
-536 34 -65 113 -158 175 -203 l27 -21 -29 -90 c-16 -49 -33 -105 -36 -124
l-7 -35 -86 87 c-72 72 -102 95 -172 128 -103 49 -228 79 -259 62 -45 -23 -54
-54 -47 -148 11 -152 53 -263 141 -374 79 -100 213 -190 329 -219 43 -11 45
-13 50 -53 3 -22 9 -72 14 -109 7 -60 6 -68 -7 -63 -9 3 -47 16 -86 30 -92 33
-192 41 -301 26 -74 -11 -93 -17 -116 -41 -36 -35 -35 -55 5 -142 69 -148 177
-255 322 -322 93 -43 162 -58 268 -59 l87 -1 63 -111 63 -111 -115 5 c-138 5
-206 -9 -327 -68 -106 -52 -144 -87 -144 -133 0 -29 9 -43 54 -87 66 -63 109
-93 190 -131 173 -81 383 -76 556 11 l63 32 84 -91 c60 -64 91 -91 108 -91 25
0 95 70 95 95 0 9 -40 58 -90 111 -318 338 -529 714 -601 1073 -52 257 -27
584 63 840 85 242 194 408 401 614 164 164 183 194 211 330 31 150 14 286 -54
421 -51 102 -86 144 -127 152 -27 5 -37 0 -77 -36z m85 -237 c30 -76 33 -230
6 -316 -20 -64 -79 -139 -95 -122 -39 40 -54 238 -26 336 16 54 72 159 85 159
4 0 18 -26 30 -57z m-621 -520 c48 -56 93 -146 110 -222 12 -52 9 -215 -4
-228 -9 -10 -73 55 -106 107 -42 67 -71 164 -73 245 -2 76 9 145 23 145 4 0
27 -21 50 -47z m-347 -799 c134 -68 233 -197 260 -341 8 -42 -2 -42 -81 -3
-113 57 -229 210 -248 328 -8 50 -3 52 69 16z m88 -864 c70 -13 183 -68 236
-114 39 -34 84 -119 70 -132 -3 -3 -38 -1 -79 5 -82 13 -180 55 -240 103 -42
32 -118 123 -118 139 0 12 64 11 131 -1z m500 -800 c35 -10 87 -34 114 -51
l50 -32 -40 -17 c-146 -62 -323 -48 -455 35 l-44 28 30 15 c88 46 237 56 345
22z"/>
<path d="M3574 4790 c-11 -4 -38 -33 -58 -64 -104 -157 -137 -323 -100 -503
28 -136 47 -166 211 -330 206 -204 318 -375 401 -614 90 -257 114 -580 63
-840 -71 -356 -283 -736 -601 -1073 -50 -53 -90 -102 -90 -111 0 -25 70 -95
95 -95 17 0 48 27 108 91 l84 91 63 -32 c173 -87 383 -92 556 -11 81 38 124
68 190 131 45 44 54 58 54 87 0 46 -38 81 -144 133 -121 59 -189 73 -327 68
l-115 -5 63 111 63 111 87 1 c106 1 175 16 268 59 145 67 253 174 322 322 40
87 41 107 5 143 -34 34 -99 46 -242 44 -75 -1 -111 -7 -170 -28 -41 -15 -82
-29 -91 -32 -14 -5 -15 3 -7 63 5 37 11 86 14 108 l5 41 73 22 c223 69 397
275 435 513 23 137 8 206 -48 224 -32 10 -162 -25 -251 -67 -70 -33 -100 -56
-172 -128 l-86 -87 -7 35 c-3 19 -20 75 -36 125 l-29 90 22 15 c52 34 146 143
180 208 94 180 108 351 43 537 -44 127 -83 143 -183 77 -127 -85 -219 -211
-267 -364 l-21 -68 -29 38 c-16 22 -47 58 -68 81 l-39 42 30 73 c45 109 55
171 50 294 -4 85 -11 125 -33 184 -34 92 -98 191 -164 253 -50 47 -68 53 -107
37z m83 -262 c42 -69 63 -153 63 -248 0 -74 -21 -174 -42 -195 -16 -17 -75 58
-95 122 -27 86 -24 240 6 316 12 31 26 57 30 57 4 0 21 -24 38 -52z m620 -515
c22 -106 -7 -258 -67 -353 -33 -52 -97 -117 -106 -107 -3 3 -9 44 -11 90 -6
98 6 165 48 252 28 59 102 155 119 155 5 0 13 -17 17 -37z m349 -825 c-19
-118 -135 -271 -248 -328 -79 -39 -89 -39 -81 3 27 142 124 271 258 340 72 37
79 36 71 -15z m-26 -847 c0 -16 -76 -107 -118 -139 -60 -48 -158 -90 -240
-103 -41 -6 -76 -8 -79 -5 -14 13 31 98 70 132 50 43 166 101 228 113 60 12
139 13 139 2z m-310 -812 l55 -25 -45 -29 c-132 -83 -308 -97 -455 -35 l-40
17 44 29 c24 15 73 39 110 51 56 20 82 23 171 20 87 -2 114 -7 160 -28z"/>
<path d="M1603 3740 c-47 -43 -122 -292 -148 -487 -82 -626 199 -1249 724
-1603 l64 -43 -7 -98 c-12 -194 -63 -389 -145 -559 -59 -125 -77 -150 -104
-150 -53 0 -117 -32 -160 -80 -56 -62 -67 -102 -67 -239 0 -105 1 -113 25
-136 l24 -25 751 0 751 0 24 25 c24 23 25 31 25 136 0 137 -11 177 -67 239
-43 48 -107 80 -160 80 -27 0 -45 25 -103 147 -81 168 -134 369 -146 561 l-7
98 64 44 c482 327 762 882 736 1455 -9 199 -43 366 -109 538 -50 131 72 117
-1008 117 -915 0 -937 0 -957 -20z m1846 -242 c54 -174 64 -245 65 -448 0
-142 -4 -207 -18 -280 -40 -207 -122 -408 -237 -581 -87 -131 -282 -324 -416
-412 -57 -38 -107 -76 -113 -87 -15 -27 -12 -172 5 -303 27 -205 81 -376 183
-579 2 -5 -159 -8 -358 -8 -199 0 -360 3 -358 8 102 203 156 374 183 579 17
131 20 276 5 303 -6 11 -56 49 -113 87 -134 88 -329 281 -416 412 -116 175
-192 358 -233 566 -19 91 -23 141 -22 295 1 203 11 274 65 448 l32 102 857 0
857 0 32 -102z m-274 -2883 c21 -20 25 -34 25 -80 l0 -55 -640 0 -640 0 0 55
c0 46 4 60 25 80 l24 25 591 0 591 0 24 -25z"/>
<path d="M2435 3430 c-145 -27 -271 -94 -381 -204 -90 -90 -143 -175 -182
-294 -22 -67 -26 -94 -25 -212 0 -119 3 -144 26 -215 38 -115 91 -199 182
-290 91 -91 175 -144 290 -182 71 -23 96 -26 215 -26 119 0 144 3 215 26 115
38 199 91 290 182 91 91 144 175 182 290 23 71 26 96 26 215 0 119 -3 144 -26
215 -38 115 -91 199 -182 290 -139 140 -284 203 -475 210 -58 2 -127 0 -155
-5z m231 -161 c98 -17 210 -78 288 -155 219 -220 219 -569 -1 -789 -219 -219
-568 -218 -788 3 -270 269 -194 722 148 891 118 58 225 73 353 50z"/>
<path d="M2444 3066 c-141 -69 -144 -72 -113 -137 30 -65 44 -72 98 -48 24 10
47 19 52 19 5 0 9 -125 9 -284 0 -321 -7 -296 85 -296 44 0 56 4 65 20 7 13
10 137 8 376 l-3 356 -28 24 c-15 13 -36 24 -46 24 -10 0 -67 -24 -127 -54z"/>
</g>
</svg>
