<svg width="25" height="25" viewBox="0 0 25 25" fill="none" xmlns="http://www.w3.org/2000/svg">
<path d="M12.5 16C13.4283 16 14.3185 15.6313 14.9749 14.9749C15.6313 14.3185 16 13.4283 16 12.5C16 11.5717 15.6313 10.6815 14.9749 10.0251C14.3185 9.36875 13.4283 9 12.5 9C11.5717 9 10.6815 9.36875 10.0251 10.0251C9.36875 10.6815 9 11.5717 9 12.5C9 13.4283 9.36875 14.3185 10.0251 14.9749C10.6815 15.6313 11.5717 16 12.5 16Z" stroke="white" stroke-width="2" stroke-linecap="round" stroke-linejoin="round"/>
<path d="M3.5 16.5V8.5C3.5 7.17392 4.02678 5.90215 4.96447 4.96447C5.90215 4.02678 7.17392 3.5 8.5 3.5H16.5C17.8261 3.5 19.0979 4.02678 20.0355 4.96447C20.9732 5.90215 21.5 7.17392 21.5 8.5V16.5C21.5 17.8261 20.9732 19.0979 20.0355 20.0355C19.0979 20.9732 17.8261 21.5 16.5 21.5H8.5C7.17392 21.5 5.90215 20.9732 4.96447 20.0355C4.02678 19.0979 3.5 17.8261 3.5 16.5Z" stroke="white" stroke-width="2"/>
</svg>
