<svg width="25" height="25" viewBox="0 0 25 25" fill="none" xmlns="http://www.w3.org/2000/svg">
<path fill-rule="evenodd" clip-rule="evenodd" d="M21.5858 8.91416C22.3668 8.13311 22.3668 6.86678 21.5858 6.08573L18.9142 3.41416C18.1332 2.63311 16.8668 2.63311 16.0858 3.41416L4.08579 15.4142C3.71071 15.7892 3.5 16.2979 3.5 16.8284V20.4999C3.5 21.0522 3.94772 21.4999 4.5 21.4999H8.17157C8.70201 21.4999 9.21071 21.2892 9.58579 20.9142L21.5858 8.91416ZM14.3184 8.00999L16.9899 10.6816L8.17157 19.4999H5.5V16.8284L14.3184 8.00999ZM18.4042 9.26735L15.7326 6.59578L17.5 4.82837L20.1716 7.49994L18.4042 9.26735Z" fill="#B0E822"/>
</svg>
