<svg width="32" height="32" viewBox="0 0 32 32" fill="none" xmlns="http://www.w3.org/2000/svg">
<path d="M31.2564 5.23021C30.2664 4.2388 28.6586 4.23943 27.6672 5.23021L11.5132 21.3849L4.33341 14.2052C3.342 13.2138 1.73496 13.2138 0.743553 14.2052C-0.247851 15.1966 -0.247851 16.8036 0.743553 17.795L9.71788 26.7693C10.2133 27.2647 10.8629 27.5131 11.5125 27.5131C12.1621 27.5131 12.8123 27.2654 13.3077 26.7693L31.2564 8.82C32.2479 7.82928 32.2479 6.22155 31.2564 5.23021Z" fill="url(#paint0_linear_1125_11662)"/>
<path d="M31.2564 5.23021C30.2664 4.2388 28.6586 4.23943 27.6672 5.23021L11.5132 21.3849L4.33341 14.2052C3.342 13.2138 1.73496 13.2138 0.743553 14.2052C-0.247851 15.1966 -0.247851 16.8036 0.743553 17.795L9.71788 26.7693C10.2133 27.2647 10.8629 27.5131 11.5125 27.5131C12.1621 27.5131 12.8123 27.2654 13.3077 26.7693L31.2564 8.82C32.2479 7.82928 32.2479 6.22155 31.2564 5.23021Z" fill="#212121" fill-opacity="0.05"/>
<defs>
<linearGradient id="paint0_linear_1125_11662" x1="0" y1="4.48689" x2="34.9163" y2="21.5431" gradientUnits="userSpaceOnUse">
<stop stop-color="#FCC63A"/>
<stop offset="1" stop-color="#8BF54D"/>
</linearGradient>
</defs>
</svg>
