<svg width="25" height="25" viewBox="0 0 25 25" fill="none" xmlns="http://www.w3.org/2000/svg">
<path d="M18.1585 5.42888C18.549 5.03836 19.1822 5.03835 19.5727 5.42888C19.9632 5.8194 19.9632 6.45257 19.5727 6.84309L13.9158 12.5L19.5727 18.1568C19.9632 18.5473 19.9632 19.1805 19.5727 19.571C19.1822 19.9615 18.549 19.9615 18.1585 19.571L12.5016 13.9142L6.84481 19.571C6.8387 19.5771 6.83254 19.5831 6.82632 19.589C6.43455 19.9614 5.81501 19.9554 5.43059 19.571C5.1377 19.2781 5.06447 18.8487 5.21092 18.4876C5.25973 18.3672 5.33296 18.2544 5.43059 18.1568L11.0874 12.5L5.43059 6.84314C5.04006 6.45262 5.04006 5.81945 5.43059 5.42893C5.82111 5.0384 6.45428 5.0384 6.8448 5.42893L12.5016 11.0857L18.1585 5.42888Z" fill="#B0E822"/>
</svg>
