<svg width="40" height="40" viewBox="0 0 40 40" fill="none" xmlns="http://www.w3.org/2000/svg">
<path d="M40 20C40 31.0451 31.0451 40 20 40C8.95492 40 0 31.0451 0 20C0 8.95492 8.95492 0 20 0C31.0474 0 40 8.95492 40 20Z" fill="#2081E2"/>
<path d="M33.0577 22.1844V23.4728C33.0577 23.5467 33.0125 23.6125 32.9468 23.6412C32.544 23.8138 31.1652 24.4467 30.592 25.244C29.1289 27.2803 28.0111 30.192 25.5124 30.192H15.0884C11.3938 30.192 8.39996 27.1879 8.39996 23.481V23.3618C8.39996 23.2632 8.48008 23.183 8.57872 23.183H14.3898C14.5048 23.183 14.589 23.2899 14.5788 23.4029C14.5377 23.781 14.6076 24.1673 14.7863 24.5186C15.1315 25.2194 15.8466 25.657 16.6192 25.657H19.496V23.4111H16.6521C16.5062 23.4111 16.4199 23.2426 16.5042 23.1234C16.535 23.0762 16.5699 23.0269 16.6069 22.9714C16.8761 22.5892 17.2603 21.9954 17.6425 21.3193C17.9035 20.8632 18.1562 20.3762 18.3596 19.8871C18.4008 19.7988 18.4336 19.7083 18.4665 19.62C18.522 19.4638 18.5795 19.3179 18.6206 19.172C18.6617 19.0487 18.6946 18.9193 18.7274 18.798C18.824 18.383 18.8651 17.9432 18.8651 17.4871C18.8651 17.3083 18.8569 17.1213 18.8405 16.9426C18.8322 16.7474 18.8076 16.5521 18.7829 16.3569C18.7665 16.1843 18.7357 16.0138 18.7028 15.835C18.6617 15.574 18.6042 15.3152 18.5384 15.0542L18.5158 14.9556C18.4665 14.7768 18.4254 14.6062 18.3679 14.4275C18.2055 13.8665 18.0186 13.3199 17.8213 12.8083C17.7494 12.6048 17.6672 12.4096 17.585 12.2144C17.4638 11.9206 17.3404 11.6535 17.2274 11.4007C17.1699 11.2856 17.1206 11.1808 17.0713 11.074C17.0158 10.9528 16.9583 10.8315 16.9007 10.7165C16.8596 10.6281 16.8124 10.5459 16.7795 10.4637L16.4281 9.8144C16.3788 9.72604 16.461 9.62124 16.5576 9.64796L18.7562 10.2438H18.7624C18.7665 10.2438 18.7686 10.2459 18.7706 10.2459L19.0603 10.326L19.3788 10.4165L19.496 10.4493V9.14248C19.496 8.51164 20.0014 8 20.6261 8C20.9384 8 21.222 8.1274 21.4254 8.33492C21.6288 8.54248 21.7562 8.82604 21.7562 9.14248V11.0822L21.9905 11.148C22.009 11.1542 22.0275 11.1624 22.0439 11.1747C22.1015 11.2178 22.1836 11.2815 22.2884 11.3596C22.3706 11.4254 22.459 11.5055 22.5658 11.5877C22.7775 11.7582 23.0302 11.9781 23.3076 12.2309C23.3816 12.2946 23.4535 12.3603 23.5193 12.4261C23.8768 12.759 24.2775 13.1494 24.6597 13.5809C24.7666 13.7021 24.8714 13.8254 24.9782 13.9548C25.085 14.0864 25.1981 14.2158 25.2967 14.3453C25.4262 14.5179 25.5659 14.6966 25.6871 14.8836C25.7446 14.972 25.8104 15.0624 25.8659 15.1508C26.022 15.387 26.1597 15.6316 26.2912 15.8761C26.3467 15.9891 26.4042 16.1124 26.4536 16.2336C26.5994 16.5604 26.7145 16.8932 26.7885 17.2261C26.8111 17.298 26.8275 17.3761 26.8358 17.446V17.4624C26.8604 17.561 26.8686 17.6658 26.8768 17.7727C26.9097 18.1138 26.8933 18.4549 26.8193 18.798C26.7885 18.944 26.7474 19.0816 26.6981 19.2275C26.6488 19.3672 26.5994 19.5131 26.5358 19.6508C26.4125 19.9364 26.2666 20.222 26.094 20.4892C26.0385 20.5878 25.9727 20.6926 25.907 20.7912C25.835 20.896 25.7611 20.9946 25.6953 21.0912C25.6049 21.2145 25.5084 21.344 25.4097 21.459C25.3214 21.5803 25.231 21.7015 25.1323 21.8084C24.9946 21.9707 24.8631 22.1248 24.7254 22.2728C24.6433 22.3693 24.5549 22.468 24.4645 22.5563C24.3762 22.6549 24.2857 22.7433 24.2035 22.8255C24.0659 22.9632 23.9508 23.07 23.8542 23.1584L23.6282 23.3659C23.5953 23.3947 23.5522 23.4111 23.507 23.4111H21.7562V25.657H23.959C24.4522 25.657 24.9207 25.4824 25.2988 25.1618C25.4282 25.0488 25.9933 24.5598 26.6611 23.8221C26.6837 23.7974 26.7125 23.7789 26.7454 23.7707L32.8296 22.0118C32.9427 21.9789 33.0577 22.0652 33.0577 22.1844Z" fill="white"/>
</svg>
