<svg width="24" height="24" viewBox="0 0 24 24" fill="none" xmlns="http://www.w3.org/2000/svg">
<path d="M17.0625 2C16.1133 2.0011 15.1744 2.19666 14.3037 2.5746C13.433 2.95255 12.649 3.50487 12 4.1975C11.0489 3.18242 9.8146 2.47669 8.45735 2.17195C7.1001 1.8672 5.68258 1.97751 4.38881 2.48854C3.09504 2.99958 1.98478 3.88775 1.20215 5.03775C0.419527 6.18775 0.000684862 7.54646 0 8.9375C0 15.845 11.1412 22.625 11.625 22.8913C11.7416 22.9613 11.8752 22.9984 12.0112 22.9984C12.1473 22.9984 12.2809 22.9613 12.3975 22.8913C12.8588 22.625 24 15.845 24 8.9375C23.998 7.09817 23.2665 5.33474 21.9659 4.03414C20.6653 2.73354 18.9018 2.00199 17.0625 2ZM12 21.365C10.0612 20.1275 1.5 14.345 1.5 8.9375C1.50096 7.78248 1.86969 6.65777 2.55276 5.72637C3.23582 4.79498 4.19772 4.10528 5.29906 3.75725C6.4004 3.40922 7.58395 3.42093 8.67819 3.79068C9.77243 4.16043 10.7205 4.86902 11.385 5.81375C11.4542 5.91202 11.5461 5.99221 11.6528 6.04756C11.7595 6.10291 11.8779 6.1318 11.9981 6.1318C12.1183 6.1318 12.2368 6.10291 12.3435 6.04756C12.4502 5.99221 12.542 5.91202 12.6112 5.81375C13.2752 4.8674 14.2235 4.15728 15.3184 3.78648C16.4134 3.41569 17.598 3.40352 18.7004 3.75174C19.8027 4.09996 20.7654 4.79044 21.4486 5.72295C22.1319 6.65546 22.5002 7.78147 22.5 8.9375C22.5 14.3412 13.9388 20.1238 12 21.365Z" fill="#D73B3B"/>
</svg>
