<svg width="25" height="24" viewBox="0 0 25 24" fill="none" xmlns="http://www.w3.org/2000/svg">
<path d="M23.0896 0.881394C23.014 0.804888 22.8779 0.713623 22.6593 0.713623C22.3793 0.713623 21.5276 0.713623 16.2989 5.18176C14.611 6.624 12.7445 8.30316 11.0142 9.92733L14.147 13.0981C15.8787 11.2084 17.6669 9.16406 19.1789 7.33406C20.5225 5.70797 21.555 4.36726 22.2479 3.34918C23.2355 1.89782 23.4558 1.25201 23.0896 0.881394ZM8.58444 12.2621L11.8397 15.5568C12.3742 15.0017 12.9037 14.4418 13.4281 13.8771L10.2444 10.6548C9.68629 11.1856 9.13294 11.7214 8.58444 12.2621ZM7.83315 13.0113C4.57031 13.4075 4.14708 15.4971 3.80605 17.1803C3.51365 18.6238 3.30545 19.3827 2.10934 19.4792C1.92655 19.4939 1.7777 19.6342 1.74905 19.8152C1.72039 19.9963 1.81946 20.1783 1.98882 20.2487C2.05633 20.2769 3.66481 20.9463 5.5461 20.9463H5.54676C7.6123 20.9463 10.2407 20.133 11.0912 16.3253L11.1008 16.3155L7.8346 13.0097C7.83414 13.0102 7.83365 13.0108 7.83315 13.0113Z" fill="#B0E822"/>
</svg>
