<?xml version="1.0" standalone="no"?>
<!DOCTYPE svg PUBLIC "-//W3C//DTD SVG 20010904//EN"
 "http://www.w3.org/TR/2001/REC-SVG-20010904/DTD/svg10.dtd">
<svg version="1.0" xmlns="http://www.w3.org/2000/svg"
 width="512.000000pt" height="512.000000pt" viewBox="0 0 512.000000 512.000000"
 preserveAspectRatio="xMidYMid meet">

<g transform="translate(0.000000,512.000000) scale(0.100000,-0.100000)"
fill="#b0e822" stroke="none">
<path d="M2035 5111 c-80 -21 -140 -65 -279 -205 -159 -162 -155 -159 -382
-210 -210 -46 -303 -118 -360 -279 -8 -22 -27 -98 -44 -170 -16 -72 -41 -148
-54 -171 -13 -23 -83 -98 -155 -167 -110 -107 -136 -137 -163 -195 -30 -62
-33 -78 -32 -154 1 -70 8 -108 43 -220 56 -177 61 -239 27 -350 -62 -203 -78
-273 -73 -338 7 -100 50 -174 160 -279 207 -199 203 -193 253 -401 19 -81 46
-170 59 -199 52 -115 151 -184 320 -224 50 -11 91 -22 93 -24 2 -2 -89 -267
-202 -590 -113 -323 -206 -594 -206 -601 0 -7 11 -25 23 -40 31 -36 45 -35
286 16 187 40 195 41 211 23 9 -10 74 -87 144 -170 78 -95 136 -155 151 -159
32 -8 63 3 79 29 7 12 101 272 207 579 l194 556 75 24 c119 37 204 32 370 -21
112 -36 149 -44 220 -45 122 -2 187 32 307 156 148 155 207 208 217 197 4 -6
364 -1034 362 -1036 -1 -1 -78 14 -171 33 -94 19 -180 32 -192 29 -12 -3 -71
-65 -134 -141 -77 -93 -115 -131 -119 -122 -4 7 -60 164 -124 348 -119 343
-137 380 -185 380 -34 0 -71 -39 -71 -73 0 -50 286 -859 311 -879 24 -20 51
-23 79 -8 10 5 80 84 156 175 75 91 139 165 142 165 2 0 93 -18 201 -41 239
-50 248 -50 278 -15 12 15 23 33 23 40 0 7 -93 278 -206 601 -113 323 -204
588 -202 590 2 2 44 13 93 24 169 40 268 109 320 224 13 29 40 118 59 199 50
208 46 202 253 401 110 105 153 179 160 279 5 65 -11 135 -73 338 -33 111 -29
173 26 350 35 110 43 150 44 220 1 77 -2 92 -32 154 -27 58 -53 88 -163 195
-72 69 -142 144 -155 167 -13 23 -38 99 -54 171 -17 72 -36 148 -44 170 -57
161 -150 233 -360 279 -227 51 -223 48 -386 213 -182 183 -221 205 -355 205
-79 1 -107 -5 -230 -44 -188 -60 -246 -60 -430 -1 -134 43 -248 59 -310 42z
m291 -192 c126 -40 148 -43 239 -43 89 1 115 6 234 43 240 76 276 69 413 -76
194 -206 240 -234 457 -283 260 -59 271 -70 344 -381 41 -175 70 -220 259
-396 42 -39 89 -90 105 -114 40 -60 37 -137 -10 -284 -72 -225 -73 -291 -7
-503 78 -256 78 -258 -119 -452 -173 -171 -186 -193 -237 -401 -41 -168 -49
-193 -81 -237 -34 -46 -100 -76 -237 -106 -234 -53 -278 -78 -441 -252 -172
-184 -199 -191 -443 -112 -119 39 -134 41 -242 41 -108 0 -123 -2 -242 -41
-244 -79 -271 -72 -443 112 -165 175 -207 200 -441 252 -137 30 -203 60 -237
106 -32 44 -40 69 -81 237 -51 208 -64 230 -237 401 -197 194 -198 198 -117
452 38 121 42 142 42 238 0 96 -4 117 -43 240 -23 74 -45 158 -48 187 -8 75
20 126 125 226 207 196 234 240 282 456 57 254 77 274 333 331 214 49 259 76
454 281 45 47 101 96 125 108 59 30 119 24 294 -30z m-680 -3470 c22 -16 73
-68 114 -114 135 -149 211 -198 332 -212 l66 -8 -153 -439 c-85 -241 -156
-440 -158 -443 -3 -2 -55 57 -116 131 -63 76 -122 138 -134 141 -12 3 -98 -10
-191 -29 -93 -20 -170 -35 -171 -33 -4 5 360 1037 366 1037 3 0 24 -14 45 -31z"/>
<path d="M2425 4554 c-574 -63 -1049 -442 -1229 -984 -52 -157 -70 -270 -69
-450 0 -245 49 -449 157 -657 372 -712 1238 -984 1945 -613 388 205 663 580
746 1020 25 128 25 370 1 500 -34 187 -119 397 -226 555 -78 115 -115 136
-166 92 -40 -35 -34 -64 35 -168 157 -233 223 -447 225 -719 0 -166 -12 -252
-60 -400 -66 -207 -172 -377 -328 -528 -109 -105 -194 -167 -312 -227 -355
-181 -787 -185 -1144 -11 -127 61 -224 130 -332 234 -197 190 -321 419 -375
690 -25 130 -23 356 6 491 52 248 173 472 350 649 185 185 406 303 671 359
117 24 363 24 480 0 186 -40 327 -99 487 -206 104 -70 139 -77 172 -35 42 53
19 90 -113 176 -229 150 -471 226 -746 233 -74 2 -153 1 -175 -1z"/>
<path d="M3055 3670 c-19 -6 -141 -121 -342 -322 l-313 -313 -182 182 c-101
99 -193 186 -205 192 -30 15 -87 14 -126 -3 -51 -22 -183 -164 -196 -211 -23
-86 -18 -93 286 -398 298 -300 334 -327 423 -327 94 0 116 19 552 456 355 357
407 414 413 447 13 71 -1 103 -83 189 -42 44 -88 86 -102 93 -37 19 -90 25
-125 15z m-225 -655 c-367 -366 -398 -395 -430 -395 -31 0 -56 22 -302 267
l-268 268 60 60 60 60 208 -208 c189 -188 211 -207 242 -207 32 0 60 26 370
335 l335 335 60 -60 60 -60 -395 -395z"/>
</g>
</svg>
