<svg width="24" height="24" viewBox="0 0 24 24" fill="none" xmlns="http://www.w3.org/2000/svg">
<path d="M17.3194 8.33398C17.1312 8.05709 16.8851 7.82439 16.5981 7.65196L12.9037 5.51921C12.5522 5.3163 12.1535 5.20947 11.7477 5.20947C11.3419 5.20947 10.9432 5.3163 10.5917 5.51921L6.89267 7.65196C6.60568 7.82439 6.35957 8.05709 6.17135 8.33398L11.7477 11.5464L17.3194 8.33398ZM12.0367 12.0481V18.3284C12.3409 18.2967 12.6357 18.2044 12.9037 18.0568L16.6027 15.9229C16.9542 15.7199 17.246 15.4281 17.4489 15.0767C17.6519 14.7252 17.7587 14.3266 17.7587 13.9207V9.65524C17.7533 9.37771 17.6973 9.10349 17.5934 8.84607L12.0367 12.0481ZM5.90664 8.84607C5.80278 9.10349 5.74676 9.37771 5.74133 9.65524V13.9207C5.74134 14.3266 5.84817 14.7252 6.05109 15.0767C6.254 15.4281 6.54585 15.7199 6.89729 15.9229L10.5917 18.0568C10.8597 18.2044 11.1545 18.2967 11.4587 18.3284V12.0481L5.90664 8.84607Z" fill="#B0E822"/>
<path d="M16.8871 16.4246L13.188 18.5574C12.7485 18.8103 12.2502 18.9435 11.7431 18.9435C11.2359 18.9435 10.7377 18.8103 10.2981 18.5574L6.59904 16.4246C6.25711 16.2142 5.96329 15.9342 5.73669 15.6027L2.98435 17.1771C3.16373 17.4278 3.39223 17.6394 3.65597 17.799L10.5917 21.8045C10.9432 22.0074 11.3419 22.1142 11.7477 22.1142C12.1535 22.1142 12.5522 22.0074 12.9037 21.8045L19.8394 17.799C20.1027 17.6408 20.3312 17.4308 20.511 17.1818L17.7587 15.6027C17.5294 15.9351 17.2324 16.2152 16.8871 16.4246ZM5.15871 13.9208V9.6553C5.15969 9.14807 5.29362 8.64995 5.54716 8.21063C5.80069 7.7713 6.16497 7.40612 6.60367 7.15149L10.3027 5.01874C10.6588 4.82174 11.053 4.70348 11.4587 4.67196V1.5C11.1545 1.53168 10.8597 1.62405 10.5917 1.77165L3.65597 5.77706C3.30384 5.98036 3.01155 6.27293 2.8086 6.62525C2.60565 6.97758 2.4992 7.3772 2.5 7.7838V15.7923C2.50566 16.0973 2.57248 16.398 2.69652 16.6766L5.44192 15.1033C5.26371 14.7341 5.16711 14.3307 5.15871 13.9208ZM20.9954 7.7838C20.9962 7.3772 20.8897 6.97758 20.6868 6.62525C20.4838 6.27293 20.1915 5.98036 19.8394 5.77706L12.9037 1.77627C12.6357 1.62867 12.3409 1.5363 12.0367 1.50462V4.6708C12.4424 4.70232 12.8366 4.82058 13.1926 5.01759L16.8917 7.15034C17.3304 7.40496 17.6947 7.77015 17.9482 8.20947C18.2018 8.6488 18.3357 9.14691 18.3367 9.65415V13.9196C18.3297 14.3292 18.2347 14.7326 18.0581 15.1022L20.8035 16.6755C20.9275 16.3968 20.9943 16.0961 21 15.7911L20.9954 7.7838Z" fill="#B0E822"/>
</svg>
