<svg width="154" height="166" viewBox="0 0 154 166" fill="none" xmlns="http://www.w3.org/2000/svg">
<g filter="url(#filter0_d_970_6360)">
<path fill-rule="evenodd" clip-rule="evenodd" d="M71.3872 110.7C70.6049 111.172 69.4995 110.636 69.4995 109.621V88H57.2172C56.1493 88 55.5732 86.7473 56.2682 85.9365L82.3005 55.5655C82.3947 55.4553 82.5 55.3673 82.6117 55.2999C83.394 54.8277 84.4995 55.3635 84.4995 56.379V77.9999H96.7817C97.8497 77.9999 98.4257 79.2525 97.7307 80.0635L71.6986 110.434C71.6042 110.545 71.499 110.632 71.3872 110.7Z" fill="url(#paint0_linear_970_6360)"/>
<path fill-rule="evenodd" clip-rule="evenodd" d="M71.3872 110.7C70.6049 111.172 69.4995 110.636 69.4995 109.621V88H57.2172C56.1493 88 55.5732 86.7473 56.2682 85.9365L82.3005 55.5655C82.3947 55.4553 82.5 55.3673 82.6117 55.2999C83.394 54.8277 84.4995 55.3635 84.4995 56.379V77.9999H96.7817C97.8497 77.9999 98.4257 79.2525 97.7307 80.0635L71.6986 110.434C71.6042 110.545 71.499 110.632 71.3872 110.7Z" fill="#212121" fill-opacity="0.05"/>
</g>
<path d="M69.0311 64.2673C69.1922 63.8319 69.8078 63.8319 69.9689 64.2673L71.0408 67.1638C71.0914 67.3007 71.1993 67.4086 71.3362 67.4592L74.2327 68.5311C74.6681 68.6922 74.6681 69.3078 74.2327 69.4689L71.3362 70.5408C71.1993 70.5914 71.0914 70.6993 71.0408 70.8362L69.9689 73.7327C69.8078 74.1681 69.1922 74.1681 69.0311 73.7327L67.9592 70.8362C67.9086 70.6993 67.8007 70.5914 67.6638 70.5408L64.7673 69.4689C64.3319 69.3078 64.3319 68.6922 64.7673 68.5311L67.6638 67.4592C67.8007 67.4086 67.9086 67.3007 67.9592 67.1638L69.0311 64.2673Z" fill="white"/>
<path d="M70.0311 100.267C70.1922 99.8319 70.8078 99.8319 70.9689 100.267L71.7707 102.434C71.8213 102.571 71.9292 102.679 72.0661 102.729L74.2327 103.531C74.6681 103.692 74.6681 104.308 74.2327 104.469L72.0661 105.271C71.9292 105.321 71.8213 105.429 71.7707 105.566L70.9689 107.733C70.8078 108.168 70.1922 108.168 70.0311 107.733L69.2293 105.566C69.1787 105.429 69.0708 105.321 68.9339 105.271L66.7673 104.469C66.3319 104.308 66.3319 103.692 66.7673 103.531L68.9339 102.729C69.0708 102.679 69.1787 102.571 69.2293 102.434L70.0311 100.267Z" fill="white"/>
<path d="M85.0311 74.2673C85.1922 73.8319 85.8078 73.8319 85.9689 74.2673L86.5006 75.704C86.5512 75.8409 86.6591 75.9488 86.796 75.9994L88.2327 76.5311C88.6681 76.6922 88.6681 77.3078 88.2327 77.4689L86.796 78.0006C86.6591 78.0512 86.5512 78.1591 86.5006 78.296L85.9689 79.7327C85.8078 80.1681 85.1922 80.1681 85.0311 79.7327L84.4994 78.296C84.4488 78.1591 84.3409 78.0512 84.204 78.0006L82.7673 77.4689C82.3319 77.3078 82.3319 76.6922 82.7673 76.5311L84.204 75.9994C84.3409 75.9488 84.4488 75.8409 84.4994 75.704L85.0311 74.2673Z" fill="white"/>
<defs>
<filter id="filter0_d_970_6360" x="0.964844" y="0.126465" width="152.069" height="165.747" filterUnits="userSpaceOnUse" color-interpolation-filters="sRGB">
<feFlood flood-opacity="0" result="BackgroundImageFix"/>
<feColorMatrix in="SourceAlpha" type="matrix" values="0 0 0 0 0 0 0 0 0 0 0 0 0 0 0 0 0 0 127 0" result="hardAlpha"/>
<feOffset/>
<feGaussianBlur stdDeviation="27.5"/>
<feComposite in2="hardAlpha" operator="out"/>
<feColorMatrix type="matrix" values="0 0 0 0 0.678431 0 0 0 0 0.839216 0 0 0 0 0.294118 0 0 0 0.55 0"/>
<feBlend mode="normal" in2="BackgroundImageFix" result="effect1_dropShadow_970_6360"/>
<feBlend mode="normal" in="SourceGraphic" in2="effect1_dropShadow_970_6360" result="shape"/>
</filter>
<linearGradient id="paint0_linear_970_6360" x1="55.9648" y1="55.1265" x2="109.084" y2="69.2168" gradientUnits="userSpaceOnUse">
<stop stop-color="#FCC63A"/>
<stop offset="1" stop-color="#8BF54D"/>
</linearGradient>
</defs>
</svg>
