<svg width="34" height="33" viewBox="0 0 34 33" fill="none" xmlns="http://www.w3.org/2000/svg">
<g clip-path="url(#clip0_1352_7642)">
<path d="M24.8414 30.3143C24.5817 30.3143 24.3163 30.2813 24.0534 30.2126L2.78985 24.5184C1.14954 24.0659 0.171894 22.3692 0.60097 20.7302L2.93842 11.7664C3.08145 11.2163 3.64388 10.8821 4.19658 11.0295C4.7467 11.1725 5.078 11.7362 4.93375 12.2876L2.59604 21.2528C2.45179 21.8054 2.78038 22.376 3.3305 22.5273L24.5817 28.2186C25.1276 28.363 25.6913 28.0384 25.8343 27.4953L26.5601 24.5664C26.6979 24.0137 27.256 23.6782 27.8087 23.8131C28.3616 23.9506 28.6985 24.5088 28.5622 25.0614L27.8336 28.0041C27.4663 29.397 26.2125 30.3142 24.8415 30.3142L24.8414 30.3143Z" fill="url(#paint0_linear_1352_7642)"/>
<path d="M24.8414 30.3143C24.5817 30.3143 24.3163 30.2813 24.0534 30.2126L2.78985 24.5184C1.14954 24.0659 0.171894 22.3692 0.60097 20.7302L2.93842 11.7664C3.08145 11.2163 3.64388 10.8821 4.19658 11.0295C4.7467 11.1725 5.078 11.7362 4.93375 12.2876L2.59604 21.2528C2.45179 21.8054 2.78038 22.376 3.3305 22.5273L24.5817 28.2186C25.1276 28.363 25.6913 28.0384 25.8343 27.4953L26.5601 24.5664C26.6979 24.0137 27.256 23.6782 27.8087 23.8131C28.3616 23.9506 28.6985 24.5088 28.5622 25.0614L27.8336 28.0041C27.4663 29.397 26.2125 30.3142 24.8415 30.3142L24.8414 30.3143Z" fill="#212121" fill-opacity="0.05"/>
<path d="M30.4062 22.0642H9.0931C7.38685 22.0642 5.99927 20.6767 5.99927 18.9704V3.15731C5.99927 1.45106 7.38685 0.0634766 9.0931 0.0634766H30.4062C32.1125 0.0634766 33.5001 1.45106 33.5001 3.15731V18.9704C33.5001 20.6767 32.1125 22.0642 30.4062 22.0642ZM9.0931 2.12603C8.52383 2.12603 8.06182 2.58804 8.06182 3.15731V18.9704C8.06182 19.5396 8.52383 20.0017 9.0931 20.0017H30.4062C30.9755 20.0017 31.4375 19.5396 31.4375 18.9704V3.15731C31.4375 2.58804 30.9755 2.12603 30.4062 2.12603H9.0931Z" fill="url(#paint1_linear_1352_7642)"/>
<path d="M30.4062 22.0642H9.0931C7.38685 22.0642 5.99927 20.6767 5.99927 18.9704V3.15731C5.99927 1.45106 7.38685 0.0634766 9.0931 0.0634766H30.4062C32.1125 0.0634766 33.5001 1.45106 33.5001 3.15731V18.9704C33.5001 20.6767 32.1125 22.0642 30.4062 22.0642ZM9.0931 2.12603C8.52383 2.12603 8.06182 2.58804 8.06182 3.15731V18.9704C8.06182 19.5396 8.52383 20.0017 9.0931 20.0017H30.4062C30.9755 20.0017 31.4375 19.5396 31.4375 18.9704V3.15731C31.4375 2.58804 30.9755 2.12603 30.4062 2.12603H9.0931Z" fill="#212121" fill-opacity="0.05"/>
<path d="M12.8745 9.68879C11.3579 9.68879 10.1244 8.45532 10.1244 6.93863C10.1244 5.42195 11.3579 4.18848 12.8745 4.18848C14.3912 4.18848 15.6244 5.42195 15.6244 6.93863C15.6244 8.45532 14.3913 9.68879 12.8745 9.68879ZM12.8745 6.25103C12.4949 6.25103 12.1869 6.55919 12.1869 6.93863C12.1869 7.31808 12.4949 7.62624 12.8745 7.62624C13.254 7.62624 13.5619 7.31808 13.5619 6.93863C13.5619 6.55919 13.254 6.25103 12.8745 6.25103ZM7.05801 20.6614C6.79414 20.6614 6.53007 20.561 6.32935 20.3591C5.92651 19.9562 5.92651 19.3029 6.32935 18.9L12.5445 12.685C13.4851 11.7443 15.0154 11.7443 15.9545 12.685L17.617 14.3474L22.7237 8.21741C23.1803 7.67006 23.85 7.35385 24.561 7.34985C25.3255 7.30725 25.9442 7.65492 26.4048 8.1955L33.2499 16.1816C33.6209 16.6134 33.5701 17.2653 33.1383 17.6364C32.7052 18.0078 32.0549 17.9569 31.6835 17.5251L24.8359 9.53622C24.745 9.42742 24.6338 9.43297 24.5719 9.41363C24.5129 9.41363 24.3986 9.43148 24.308 9.53874L18.4779 16.5379C18.292 16.7604 18.0214 16.8954 17.7326 16.9077C17.4383 16.9241 17.1605 16.8113 16.9568 16.6066L14.4958 14.1453C14.321 13.9705 14.1767 13.9705 14.002 14.1453L7.78693 20.3591C7.69147 20.4552 7.57788 20.5314 7.45276 20.5833C7.32764 20.6352 7.19347 20.6617 7.05801 20.6614Z" fill="url(#paint2_linear_1352_7642)"/>
<path d="M12.8745 9.68879C11.3579 9.68879 10.1244 8.45532 10.1244 6.93863C10.1244 5.42195 11.3579 4.18848 12.8745 4.18848C14.3912 4.18848 15.6244 5.42195 15.6244 6.93863C15.6244 8.45532 14.3913 9.68879 12.8745 9.68879ZM12.8745 6.25103C12.4949 6.25103 12.1869 6.55919 12.1869 6.93863C12.1869 7.31808 12.4949 7.62624 12.8745 7.62624C13.254 7.62624 13.5619 7.31808 13.5619 6.93863C13.5619 6.55919 13.254 6.25103 12.8745 6.25103ZM7.05801 20.6614C6.79414 20.6614 6.53007 20.561 6.32935 20.3591C5.92651 19.9562 5.92651 19.3029 6.32935 18.9L12.5445 12.685C13.4851 11.7443 15.0154 11.7443 15.9545 12.685L17.617 14.3474L22.7237 8.21741C23.1803 7.67006 23.85 7.35385 24.561 7.34985C25.3255 7.30725 25.9442 7.65492 26.4048 8.1955L33.2499 16.1816C33.6209 16.6134 33.5701 17.2653 33.1383 17.6364C32.7052 18.0078 32.0549 17.9569 31.6835 17.5251L24.8359 9.53622C24.745 9.42742 24.6338 9.43297 24.5719 9.41363C24.5129 9.41363 24.3986 9.43148 24.308 9.53874L18.4779 16.5379C18.292 16.7604 18.0214 16.8954 17.7326 16.9077C17.4383 16.9241 17.1605 16.8113 16.9568 16.6066L14.4958 14.1453C14.321 13.9705 14.1767 13.9705 14.002 14.1453L7.78693 20.3591C7.69147 20.4552 7.57788 20.5314 7.45276 20.5833C7.32764 20.6352 7.19347 20.6617 7.05801 20.6614Z" fill="#212121" fill-opacity="0.05"/>
</g>
<defs>
<linearGradient id="paint0_linear_1352_7642" x1="0.5" y1="10.9946" x2="30.603" y2="26.3807" gradientUnits="userSpaceOnUse">
<stop stop-color="#FCC63A"/>
<stop offset="1" stop-color="#8BF54D"/>
</linearGradient>
<linearGradient id="paint1_linear_1352_7642" x1="5.99927" y1="0.0634766" x2="37.1525" y2="13.7514" gradientUnits="userSpaceOnUse">
<stop stop-color="#FCC63A"/>
<stop offset="1" stop-color="#8BF54D"/>
</linearGradient>
<linearGradient id="paint2_linear_1352_7642" x1="6.02722" y1="4.18848" x2="33.6597" y2="20.386" gradientUnits="userSpaceOnUse">
<stop stop-color="#FCC63A"/>
<stop offset="1" stop-color="#8BF54D"/>
</linearGradient>
<clipPath id="clip0_1352_7642">
<rect width="33" height="33" fill="white" transform="translate(0.5)"/>
</clipPath>
</defs>
</svg>
