<?xml version="1.0" encoding="UTF-8" standalone="no" ?>
<!DOCTYPE svg PUBLIC "-//W3C//DTD SVG 1.1//EN" "http://www.w3.org/Graphics/SVG/1.1/DTD/svg11.dtd">
<svg xmlns="http://www.w3.org/2000/svg" xmlns:xlink="http://www.w3.org/1999/xlink" version="1.1" width="50" height="50" viewBox="0 0 500 500" xml:space="preserve">
<desc>Created with Fabric.js 5.3.0</desc>
<defs>
</defs>
<g transform="matrix(50.9158959627 0 0 50.9205616267 249.9926900585 249.9926900585)" id="xS5cloXyswU1llPehb75C"  >
<path style="stroke: none; stroke-width: 0; stroke-dasharray: none; stroke-linecap: butt; stroke-dashoffset: 0; stroke-linejoin: miter; stroke-miterlimit: 4; fill: rgb(255,255,255); fill-rule: evenodd; opacity: 1;" vector-effect="non-scaling-stroke"  transform=" translate(-12.0015040962, -12.8339845)" d="M 8.660156 7.929688 L 15.390625 7.929688 C 15.628906 7.929688 15.867188 7.964844 16.117188 8.082031 C 16.414062 8.21875 16.570312 8.4375 16.683594 8.601562 C 16.691406 8.613281 16.699219 8.625 16.707031 8.640625 C 16.835938 8.871094 16.90625 9.121094 16.90625 9.390625 C 16.90625 9.648438 16.84375 9.925781 16.707031 10.167969 C 16.707031 10.171875 16.703125 10.171875 16.703125 10.175781 L 12.449219 17.480469 C 12.355469 17.640625 12.183594 17.738281 12 17.738281 C 11.8125 17.738281 11.640625 17.636719 11.546875 17.476562 L 7.375 10.1875 C 7.371094 10.1875 7.371094 10.183594 7.371094 10.183594 C 7.273438 10.023438 7.125 9.78125 7.101562 9.46875 C 7.078125 9.179688 7.140625 8.886719 7.285156 8.636719 C 7.433594 8.386719 7.652344 8.1875 7.914062 8.0625 C 8.195312 7.929688 8.480469 7.929688 8.660156 7.929688 Z M 11.476562 8.972656 L 8.660156 8.972656 C 8.476562 8.972656 8.40625 8.984375 8.355469 9.007812 C 8.285156 9.039062 8.230469 9.09375 8.191406 9.160156 C 8.152344 9.226562 8.132812 9.304688 8.140625 9.382812 C 8.144531 9.425781 8.164062 9.476562 8.269531 9.652344 C 8.269531 9.65625 8.273438 9.660156 8.277344 9.664062 L 11.476562 15.257812 Z M 12.523438 8.972656 L 12.523438 15.285156 L 15.800781 9.65625 C 15.835938 9.585938 15.859375 9.492188 15.859375 9.390625 C 15.859375 9.3125 15.84375 9.242188 15.808594 9.167969 C 15.769531 9.113281 15.742188 9.082031 15.722656 9.0625 C 15.707031 9.046875 15.695312 9.035156 15.675781 9.027344 C 15.597656 8.992188 15.519531 8.972656 15.390625 8.972656 Z M 12.523438 8.972656" stroke-linecap="round" />
</g>
</svg>