<svg width="24" height="24" viewBox="0 0 24 24" fill="none" xmlns="http://www.w3.org/2000/svg">
<path d="M5.6558 11.1781L12 17.6216L18.3442 11.1781C18.3916 11.1299 18.4426 11.0879 18.4963 11.0518C18.8728 10.7993 19.3845 10.8415 19.7159 11.1781C20.0947 11.5628 20.0947 12.1865 19.7159 12.5713L12.6858 19.7115C12.504 19.8962 12.2573 20 12 20C11.7427 20 11.4961 19.8962 11.3141 19.7115L4.28409 12.5713C3.9053 12.1865 3.9053 11.5628 4.28409 11.1781C4.66287 10.7933 5.27702 10.7933 5.6558 11.1781Z" fill="#B0E822"/>
<path d="M5.6558 4.2886L12 10.7322L18.3442 4.2886C18.3916 4.24043 18.4426 4.19836 18.4963 4.1623C18.8728 3.90981 19.3845 3.95198 19.7159 4.2886C20.0947 4.6733 20.0947 5.297 19.7159 5.6818L12.6858 12.822C12.504 13.0067 12.2573 13.1105 12 13.1105C11.7427 13.1105 11.4961 13.0067 11.3141 12.822L4.28409 5.6818C3.9053 5.297 3.9053 4.6733 4.28409 4.2886C4.66287 3.9038 5.27702 3.9038 5.6558 4.2886Z" fill="#B0E822"/>
</svg>
